<svg width="22" height="21" viewBox="0 0 22 21" fill="none" xmlns="http://www.w3.org/2000/svg">
<g id="menu-icon-04.svg">
<path id="Vector" d="M15.0256 3.46406V2.16406C15.0256 1.8224 14.7423 1.53906 14.4006 1.53906C14.0589 1.53906 13.7756 1.8224 13.7756 2.16406V3.41406H8.35892V2.16406C8.35892 1.8224 8.07558 1.53906 7.73392 1.53906C7.39225 1.53906 7.10892 1.8224 7.10892 2.16406V3.46406C4.85892 3.67239 3.76725 5.01406 3.60058 7.00573C3.58392 7.24739 3.78392 7.44739 4.01725 7.44739H18.1173C18.3589 7.44739 18.5589 7.23906 18.5339 7.00573C18.3673 5.01406 17.2756 3.67239 15.0256 3.46406Z" fill="#797979"/>
<path id="Vector_2" opacity="0.4" d="M17.7333 8.70312C18.1917 8.70312 18.5667 9.07812 18.5667 9.53646V14.6698C18.5667 17.1698 17.3167 18.8365 14.4 18.8365H7.73332C4.81665 18.8365 3.56665 17.1698 3.56665 14.6698V9.53646C3.56665 9.07812 3.94165 8.70312 4.39998 8.70312H17.7333Z" fill="#797979"/>
<path id="Vector_3" d="M8.14998 13.0017C7.93332 13.0017 7.71665 12.91 7.55832 12.76C7.40832 12.6017 7.31665 12.385 7.31665 12.1684C7.31665 11.9517 7.40832 11.735 7.55832 11.5767C7.79165 11.3434 8.15832 11.2683 8.46665 11.4017C8.57498 11.4433 8.66665 11.5017 8.74165 11.5767C8.89165 11.735 8.98332 11.9517 8.98332 12.1684C8.98332 12.385 8.89165 12.6017 8.74165 12.76C8.58332 12.91 8.36665 13.0017 8.14998 13.0017Z" fill="#797979"/>
<path id="Vector_4" d="M11.0657 13.0017C10.8491 13.0017 10.6324 12.91 10.4741 12.76C10.3241 12.6017 10.2324 12.385 10.2324 12.1684C10.2324 11.9517 10.3241 11.735 10.4741 11.5767C10.5491 11.5017 10.6407 11.4433 10.7491 11.4017C11.0574 11.2683 11.4241 11.3434 11.6574 11.5767C11.8074 11.735 11.8991 11.9517 11.8991 12.1684C11.8991 12.385 11.8074 12.6017 11.6574 12.76C11.6157 12.7933 11.5741 12.8267 11.5324 12.86C11.4824 12.8933 11.4324 12.9184 11.3824 12.935C11.3324 12.96 11.2824 12.9767 11.2324 12.985C11.1741 12.9934 11.1241 13.0017 11.0657 13.0017Z" fill="#797979"/>
<path id="Vector_5" d="M13.9837 13.0026C13.7671 13.0026 13.5504 12.9109 13.3921 12.7609C13.2421 12.6026 13.1504 12.3859 13.1504 12.1693C13.1504 11.9526 13.2421 11.736 13.3921 11.5776C13.4754 11.5026 13.5587 11.4443 13.6671 11.4026C13.8171 11.3359 13.9837 11.3193 14.1504 11.3526C14.2004 11.3609 14.2504 11.3776 14.3004 11.4026C14.3504 11.4193 14.4004 11.4443 14.4504 11.4776C14.4921 11.511 14.5337 11.5443 14.5754 11.5776C14.7254 11.736 14.8171 11.9526 14.8171 12.1693C14.8171 12.3859 14.7254 12.6026 14.5754 12.7609C14.5337 12.7943 14.4921 12.8276 14.4504 12.8609C14.4004 12.8943 14.3504 12.9193 14.3004 12.936C14.2504 12.961 14.2004 12.9776 14.1504 12.986C14.0921 12.9943 14.0337 13.0026 13.9837 13.0026Z" fill="#797979"/>
<path id="Vector_6" d="M8.14998 15.9167C8.04165 15.9167 7.93332 15.8917 7.83332 15.85C7.72498 15.8084 7.64165 15.75 7.55832 15.675C7.40832 15.5167 7.31665 15.3 7.31665 15.0833C7.31665 14.8667 7.40832 14.65 7.55832 14.4917C7.64165 14.4167 7.72498 14.3583 7.83332 14.3167C7.98332 14.25 8.14998 14.2333 8.31665 14.2667C8.36665 14.275 8.41665 14.2917 8.46665 14.3167C8.51665 14.3333 8.56665 14.3584 8.61665 14.3917C8.65832 14.425 8.69998 14.4584 8.74165 14.4917C8.89165 14.65 8.98332 14.8667 8.98332 15.0833C8.98332 15.3 8.89165 15.5167 8.74165 15.675C8.69998 15.7083 8.65832 15.75 8.61665 15.775C8.56665 15.8083 8.51665 15.8334 8.46665 15.85C8.41665 15.875 8.36665 15.8917 8.31665 15.9C8.25832 15.9084 8.20832 15.9167 8.14998 15.9167Z" fill="#797979"/>
<path id="Vector_7" d="M11.0657 15.9141C10.8491 15.9141 10.6324 15.8224 10.4741 15.6724C10.3241 15.514 10.2324 15.2974 10.2324 15.0807C10.2324 14.8641 10.3241 14.6474 10.4741 14.4891C10.7824 14.1807 11.3491 14.1807 11.6574 14.4891C11.8074 14.6474 11.8991 14.8641 11.8991 15.0807C11.8991 15.2974 11.8074 15.514 11.6574 15.6724C11.4991 15.8224 11.2824 15.9141 11.0657 15.9141Z" fill="#797979"/>
<path id="Vector_8" d="M13.9837 15.9141C13.7671 15.9141 13.5504 15.8224 13.3921 15.6724C13.2421 15.514 13.1504 15.2974 13.1504 15.0807C13.1504 14.8641 13.2421 14.6474 13.3921 14.4891C13.7004 14.1807 14.2671 14.1807 14.5754 14.4891C14.7254 14.6474 14.8171 14.8641 14.8171 15.0807C14.8171 15.2974 14.7254 15.514 14.5754 15.6724C14.4171 15.8224 14.2004 15.9141 13.9837 15.9141Z" fill="#797979"/>
</g>
</svg>
