<svg width="7" height="14" viewBox="0 0 7 14" fill="none" xmlns="http://www.w3.org/2000/svg">
<path d="M6.7438 12.0044C6.82053 12.0704 6.88284 12.1516 6.92684 12.243C6.97083 12.3344 6.99555 12.4339 6.99945 12.5353C7.00335 12.6367 6.98634 12.7379 6.94949 12.8324C6.91264 12.9269 6.85675 13.0127 6.78532 13.0845C6.71389 13.1563 6.62847 13.2124 6.53441 13.2494C6.44035 13.2865 6.33969 13.3036 6.23875 13.2996C6.13781 13.2957 6.03876 13.2709 5.94783 13.2267C5.85689 13.1825 5.77603 13.1199 5.71033 13.0428L0.213139 7.51939C0.0766249 7.38141 0 7.19475 0 7.00019C0 6.80563 0.0766249 6.61898 0.213139 6.481L5.71033 0.957617C5.77603 0.880524 5.85689 0.81791 5.94783 0.773706C6.03876 0.729502 6.13781 0.704662 6.23875 0.700744C6.33969 0.696827 6.44035 0.713917 6.53441 0.750941C6.62847 0.787966 6.71389 0.844126 6.78532 0.915897C6.85675 0.987667 6.91264 1.0735 6.94949 1.168C6.98634 1.26251 7.00335 1.36365 6.99945 1.46507C6.99555 1.56649 6.97083 1.66601 6.92684 1.75738C6.88284 1.84875 6.82053 1.92999 6.7438 1.99601L1.76701 7.00019L6.7438 12.0044Z" fill="#3A643B"/>
</svg>
