<svg width="18" height="16" viewBox="0 0 18 16" fill="none" xmlns="http://www.w3.org/2000/svg">
<rect id="Rectangle 3464866" x="-5808" y="-3708" width="16472" height="16413" rx="150" stroke="white" stroke-width="100"/>
<g id="Routine" clip-path="url(#clip0_0_1)">
<rect width="1280" height="832" transform="translate(-200 -29)" fill="#F4F4F5"/>
<g id="div.header" filter="url(#filter0_d_0_1)">
<rect width="1280" height="70" transform="translate(-200 -29)" fill="white"/>
<g id="Link &#226;&#134;&#146; bar-icon.svg" clip-path="url(#clip1_0_1)">
<g id="bar-icon.svg fill" clip-path="url(#clip2_0_1)">
<g id="bar-icon.svg" clip-path="url(#clip3_0_1)">
<path id="Vector" fill-rule="evenodd" clip-rule="evenodd" d="M17.8616 1.37493C17.8616 1.05288 17.7336 0.744024 17.5059 0.516301C17.2782 0.288579 16.9693 0.160645 16.6473 0.160645H2.07586C1.75381 0.160645 1.44495 0.288579 1.21723 0.516301C0.989504 0.744024 0.861572 1.05288 0.861572 1.37493C0.861572 1.69698 0.989504 2.00584 1.21723 2.23356C1.44495 2.46128 1.75381 2.58922 2.07586 2.58922H16.6473C16.9693 2.58922 17.2782 2.46128 17.5059 2.23356C17.7336 2.00584 17.8616 1.69698 17.8616 1.37493Z" fill="#3A643B"/>
<path id="Vector_2" fill-rule="evenodd" clip-rule="evenodd" d="M17.8616 7.44524C17.8616 7.12319 17.7336 6.81434 17.5059 6.58661C17.2782 6.35889 16.9693 6.23096 16.6473 6.23096H2.07586C1.75381 6.23096 1.44495 6.35889 1.21723 6.58661C0.989504 6.81434 0.861572 7.12319 0.861572 7.44524C0.861572 7.76729 0.989504 8.07615 1.21723 8.30387C1.44495 8.5316 1.75381 8.65953 2.07586 8.65953H16.6473C16.9693 8.65953 17.2782 8.5316 17.5059 8.30387C17.7336 8.07615 17.8616 7.76729 17.8616 7.44524Z" fill="#3A643B"/>
<path id="Vector_3" fill-rule="evenodd" clip-rule="evenodd" d="M17.8616 13.5156C17.8616 13.1936 17.7336 12.8847 17.5059 12.657C17.2782 12.4293 16.9693 12.3013 16.6473 12.3013H9.36162C9.03957 12.3013 8.73072 12.4293 8.50299 12.657C8.27527 12.8847 8.14734 13.1936 8.14734 13.5156C8.14734 13.8377 8.27527 14.1465 8.50299 14.3743C8.73072 14.602 9.03957 14.7299 9.36162 14.7299H16.6473C16.9693 14.7299 17.2782 14.602 17.5059 14.3743C17.7336 14.1465 17.8616 13.8377 17.8616 13.5156Z" fill="#3A643B"/>
</g>
</g>
</g>
</g>
</g>
<defs>
<filter id="filter0_d_0_1" x="-467.312" y="-43" width="2184.31" height="98" filterUnits="userSpaceOnUse" color-interpolation-filters="sRGB">
<feFlood flood-opacity="0" result="BackgroundImageFix"/>
<feColorMatrix in="SourceAlpha" type="matrix" values="0 0 0 0 0 0 0 0 0 0 0 0 0 0 0 0 0 0 127 0" result="hardAlpha"/>
<feOffset/>
<feGaussianBlur stdDeviation="7"/>
<feComposite in2="hardAlpha" operator="out"/>
<feColorMatrix type="matrix" values="0 0 0 0 0.8 0 0 0 0 0.8 0 0 0 0 0.8 0 0 0 0.25 0"/>
<feBlend mode="normal" in2="BackgroundImageFix" result="effect1_dropShadow_0_1"/>
<feBlend mode="normal" in="SourceGraphic" in2="effect1_dropShadow_0_1" result="shape"/>
</filter>
<clipPath id="clip0_0_1">
<rect width="1280" height="832" fill="white" transform="translate(-200 -29)"/>
</clipPath>
<clipPath id="clip1_0_1">
<rect width="18" height="15" fill="white" transform="translate(0 0.0200195)"/>
</clipPath>
<clipPath id="clip2_0_1">
<rect width="18" height="15" fill="white" transform="translate(0 0.0200195)"/>
</clipPath>
<clipPath id="clip3_0_1">
<rect width="18" height="15" fill="white" transform="translate(0 0.0200195)"/>
</clipPath>
</defs>
</svg>
