<svg width="84" height="78" viewBox="0 0 84 78" fill="none" xmlns="http://www.w3.org/2000/svg">
<path d="M45 0H39C17.4609 0 0 17.4609 0 39C0 60.5391 17.4609 78 39 78H45C66.5391 78 84 60.5391 84 39C84 17.4609 66.5391 0 45 0Z" fill="white"/>
<path d="M42.5 71C60.4493 71 75 56.6731 75 39C75 21.3269 60.4493 7 42.5 7C24.5507 7 10 21.3269 10 39C10 56.6731 24.5507 71 42.5 71Z" fill="#E0E8E2"/>
<path d="M41.5333 57.7208C41.4814 58.0003 41.4453 58.1944 41.2501 58.3604C40.3344 58.3957 39.4679 58.2574 38.5815 58.116C38.3759 58.0832 38.1692 58.0502 37.9606 58.0192C37.6608 57.9746 37.3489 57.9352 37.0419 57.8965C36.827 57.8694 36.6145 57.8426 36.4101 57.8145C36.2632 57.7943 36.1815 57.7717 36.1384 57.753C36.1407 57.7409 36.1445 57.724 36.1508 57.7012C36.1602 57.6676 36.1725 57.6298 36.1881 57.5823C36.2032 57.5365 36.2208 57.4831 36.2382 57.4254C37.1593 54.3638 38.0002 51.2485 37.8081 47.9575C37.7918 47.6773 37.7483 47.4031 37.707 47.1428C37.7023 47.1128 37.6976 47.0829 37.6929 47.0533C37.6471 46.7617 37.6077 46.4849 37.6049 46.2031C37.5832 44.0066 38.3317 42.0101 39.393 40.1006C39.4741 39.9547 39.5305 39.8219 39.5508 39.6998C39.5727 39.5687 39.5541 39.4383 39.4722 39.3274C39.3994 39.2287 39.2972 39.1759 39.2238 39.1436C39.1812 39.1248 39.1222 39.103 39.0712 39.0841C39.0439 39.0739 39.0189 39.0647 38.9999 39.0572C37.4592 38.4496 35.9402 37.8061 34.4961 37.0339C31.5898 35.48 28.7526 33.8593 26.265 31.7281C25.9348 31.4453 25.621 31.1621 25.3046 30.8766C25.0544 30.6508 24.8025 30.4236 24.5397 30.1939C24.343 30.0219 24.2698 29.9072 24.2537 29.8144C24.2396 29.7328 24.2598 29.602 24.4394 29.3695L24.2425 29.2175L24.4394 29.3695C24.9684 28.6843 25.4701 27.9658 25.9741 27.244C26.2891 26.793 26.605 26.3406 26.929 25.8943C27.1407 25.8998 27.3047 25.9859 27.5061 26.1088C28.3062 26.5971 29.1062 27.0857 29.9062 27.5744C32.9493 29.4331 35.9931 31.2923 39.0484 33.1334C40.3312 33.9064 41.2255 34.9185 41.5615 36.3503C41.6933 36.9121 41.9331 37.4871 42.4559 37.9017C43.6027 38.8111 45.3171 38.4208 45.9661 37.0628C46.3832 36.1899 46.8043 35.386 47.4761 34.714C48.1807 34.0093 48.1071 33.13 47.7753 32.3644C47.43 31.568 46.7375 31.1923 45.9009 31.1312C45.4285 31.0967 44.9867 31.1918 44.5694 31.3017C43.6021 31.5566 42.7028 31.46 41.838 30.9411C39.5241 29.5529 37.2277 28.1461 34.9302 26.7386C33.0802 25.6052 31.2295 24.4714 29.3683 23.3466C29.2266 23.2609 29.1149 23.1853 29.0276 23.0654C29.5442 22.288 30.071 21.5362 30.5972 20.7854C30.8899 20.3676 31.1825 19.9501 31.4729 19.5287C31.5409 19.4301 31.5907 19.3626 31.6355 19.3153C31.6787 19.2697 31.7037 19.2576 31.7165 19.2535C31.7384 19.2466 31.8198 19.2346 32.0841 19.3935C34.1032 20.6072 36.1277 21.7954 38.1508 22.9828C40.5199 24.3733 42.8871 25.7626 45.2416 27.1906C45.8711 27.5724 46.5082 27.9324 47.1415 28.2902C48.6861 29.1629 50.208 30.0227 51.5413 31.1554C53.0493 32.4365 54.0527 34.1021 54.5937 36.0182C55.2349 38.2887 54.8471 40.5217 54.3527 42.8188C53.9782 44.5589 53.6177 46.3027 53.2575 48.0452C53.0791 48.9087 52.9006 49.7718 52.7206 50.6341C52.5608 51.3993 52.3998 52.1646 52.2387 52.9302C51.7752 55.1325 51.3114 57.3367 50.8764 59.5457C50.8403 59.729 50.8007 59.7469 50.8069 59.743C50.809 59.7416 50.8027 59.7472 50.7725 59.7493C50.7397 59.7515 50.6926 59.7488 50.6208 59.7388C48.7102 59.4713 46.8001 59.2013 44.8193 58.9183C44.7042 58.8096 44.6621 58.7023 44.6475 58.5934C44.6287 58.4526 44.6538 58.3006 44.6873 58.1012C45.1728 55.2103 45.6689 52.3211 46.1747 49.4334C46.4527 47.8459 47.254 46.5163 48.3927 45.3303C48.8114 44.8943 49.071 44.4997 49.0403 44.0619C49.0105 43.637 48.7097 43.2581 48.2914 42.8405C47.3108 41.8613 46.0439 41.5025 44.8563 41.1661C44.7357 41.1319 44.6158 41.098 44.4972 41.0637C43.6769 40.8263 42.8904 41.1292 42.3639 41.8297C42.1007 42.1799 41.9421 42.5505 41.9147 42.941C41.8873 43.3326 41.9936 43.7211 42.2213 44.1032C42.3088 44.25 42.4008 44.3929 42.4909 44.5321L42.5157 44.5703C42.5979 44.6971 42.678 44.8207 42.7547 44.9461C43.2804 45.8054 43.4889 46.7166 43.3186 47.6927C43.2041 48.3488 43.0903 49.0048 42.9765 49.6607C42.5142 52.3258 42.0523 54.9886 41.5475 57.6445C41.5426 57.6706 41.5379 57.696 41.5333 57.7208Z" fill="#FDF8E5" stroke="#3A643C" stroke-width="0.5"/>
<path d="M27.2436 25.5723C27.7237 24.79 28.2259 24.0414 28.7676 23.2754C29.7372 23.6909 30.5993 24.2439 31.4775 24.8072C31.8234 25.0291 32.1718 25.2526 32.5303 25.47C35.2325 27.1082 37.9143 28.7788 40.5976 30.4503C40.9467 30.6678 41.2959 30.8853 41.6451 31.1028C42.5843 31.6876 43.5666 31.7416 44.5726 31.4034C45.7127 31.0202 46.7584 31.3195 47.2661 32.0891C47.5651 32.5423 47.6719 33.0173 47.6009 33.48C47.5296 33.945 47.2753 34.4201 46.8125 34.8621C46.2638 35.386 45.9891 36.042 45.7342 36.6505C45.6955 36.7429 45.6572 36.8343 45.6185 36.9239C45.2843 37.6982 44.5046 38.1877 43.6824 38.1453C43.225 38.1218 42.7991 38.0175 42.4756 37.822C42.1591 37.6308 41.9388 37.3528 41.8701 36.9569C41.4037 34.2693 39.3785 33.0558 37.419 31.8817C37.3321 31.8297 37.2455 31.7777 37.159 31.7258C34.8044 30.3092 32.4705 28.8608 30.1349 27.4114C29.2704 26.8749 28.4056 26.3383 27.5395 25.803C27.4426 25.7431 27.3517 25.6694 27.2436 25.5723Z" fill="#E0E8E2" stroke="#3A643C" stroke-width="0.5"/>
<path d="M44.292 58.851C43.3281 58.7706 42.362 58.642 41.3407 58.4995C41.7292 56.2138 42.1509 53.9362 42.5728 51.6569C42.8235 50.303 43.0743 48.9485 43.3183 47.5913C43.5484 46.3109 42.9271 45.2432 42.2078 44.2885C41.7882 43.7316 41.698 43.1391 41.8541 42.6333C42.0108 42.1256 42.4258 41.6732 43.0791 41.4213C43.3429 41.3195 43.5871 41.2689 43.8163 41.3041C45.7795 41.6055 47.5427 42.1879 48.7803 43.6352C48.9635 43.8494 49.0691 44.0801 49.082 44.2858C49.094 44.4785 49.0271 44.6716 48.8142 44.844C46.6406 46.6039 45.9401 48.9253 45.5776 51.3773C45.3272 53.0705 45.0241 54.754 44.7167 56.4618C44.5745 57.2519 44.4313 58.0471 44.292 58.851Z" fill="#E0E8E2" stroke="#3A643C" stroke-width="0.5"/>
<path d="M58.0474 34.1046C58.9834 33.7897 59.853 33.4781 60.725 33.1732C61.0305 33.0664 61.3579 33.0523 61.4657 33.4208C61.5662 33.7647 61.5366 34.1135 61.079 34.2513C60.1697 34.525 59.2659 34.8177 58.3634 35.1135C57.9155 35.2603 57.3801 35.5645 57.1676 34.8985C56.9635 34.2589 57.6021 34.267 58.0474 34.1046Z" fill="#3A643C"/>
<path d="M56.9037 31.1013C57.6666 30.4864 58.3936 29.9267 59.0862 29.324C59.3966 29.0539 59.6042 29.0908 59.8668 29.368C60.1647 29.6825 60.0724 29.9385 59.7989 30.1739C58.8669 30.9763 57.9379 31.7831 56.9852 32.5581C56.7933 32.7141 56.4957 32.7127 56.298 32.4818C56.1089 32.2609 56.112 31.9872 56.2711 31.7642C56.4359 31.533 56.6573 31.3455 56.9037 31.1013Z" fill="#3A643C"/>
<path d="M59.4023 38.2267C58.8648 38.3277 58.4542 38.0432 57.9969 38.0455C57.6402 38.0473 57.6345 37.737 57.6169 37.4499C57.5941 37.0786 57.813 37.0582 58.0728 37.082C59.257 37.1903 60.4415 37.2967 61.6243 37.4184C61.9817 37.4551 61.9819 37.7414 61.9984 38.0279C62.0202 38.4065 61.7886 38.3863 61.5355 38.3928C60.8427 38.4108 60.1547 38.3852 59.4023 38.2267Z" fill="#3A643C"/>
<path d="M49.4867 36.9629L49.4867 36.9629C49.6655 36.7355 49.8062 36.6951 49.8772 36.6939C49.9465 36.6927 50.0849 36.7264 50.2657 36.946C50.7639 37.5508 51.2317 38.1768 51.6171 38.8393L51.6171 38.8393C51.7994 39.1526 51.7657 39.3513 51.719 39.4399C51.6752 39.5229 51.5483 39.645 51.2297 39.6507L51.2129 39.6511C50.469 39.6646 49.7565 39.6775 49.0592 39.6048C48.5808 39.5548 48.4496 39.4113 48.4097 39.33C48.3571 39.2229 48.3288 38.9711 48.5355 38.4664C48.6552 38.2739 48.761 38.0947 48.8607 37.9258C49.0714 37.5687 49.2552 37.2573 49.4867 36.9629Z" fill="#E0E8E2" stroke="#3A643C"/>
</svg>
