<svg width="11" height="16" viewBox="0 0 11 16" fill="none" xmlns="http://www.w3.org/2000/svg">
<path id="Vector" fill-rule="evenodd" clip-rule="evenodd" d="M3.8809 15.1844H7.11534C7.25661 15.1844 7.37102 15.07 7.37102 14.9287C7.37102 14.7874 7.25661 14.673 7.11534 14.673H3.8809C3.73964 14.673 3.62522 14.7874 3.62522 14.9287C3.62522 15.07 3.73964 15.1844 3.8809 15.1844ZM3.22508 13.8817H7.77107C7.91233 13.8817 8.02675 13.7673 8.02675 13.626C8.02675 13.4848 7.91233 13.3703 7.77107 13.3703H3.22508C3.08382 13.3703 2.9694 13.4848 2.9694 13.626C2.9694 13.7673 3.08382 13.8817 3.22508 13.8817ZM3.21422 12.5777C3.165 12.572 2.9694 12.5336 2.9694 12.3233C2.9694 10.6403 2.48808 8.99298 1.58232 7.57458C1.12401 6.85739 0.859375 6.00468 0.859375 5.09123C0.859375 2.53114 2.93739 0.453125 5.49748 0.453125C8.05758 0.453125 10.1356 2.53114 10.1356 5.09123C10.1356 6.00465 9.87096 6.85671 9.41458 7.57523H9.41394C8.50818 8.99363 8.02686 10.6408 8.02686 12.3233C8.02686 12.4556 7.9265 12.5643 7.79739 12.5771C7.79547 12.5777 7.78908 12.5784 7.77438 12.579C7.78205 12.5784 7.78972 12.5784 7.79739 12.5771H7.79931L7.76415 12.5796C7.76288 12.579 7.76096 12.579 7.75904 12.579H3.22517L3.21422 12.5777ZM7.51933 12.0676H3.47767C3.43101 10.3763 2.9254 8.72781 2.01326 7.29975C1.60608 6.66119 1.37085 5.90374 1.37085 5.09132C1.37085 2.81382 3.22011 0.96457 5.4976 0.96457C7.77509 0.96457 9.62434 2.81382 9.62434 5.09132C9.62434 5.90374 9.38912 6.66185 8.98258 7.30106C8.07108 8.72841 7.56534 10.3769 7.51933 12.0676ZM5.52051 7.82388C5.52498 7.82196 5.52946 7.82004 5.53393 7.81749C6.62378 7.59952 7.37288 7.18212 7.74629 6.57167C8.13812 5.93182 8.13685 5.05995 7.62293 3.92338L7.60503 3.88887L7.58266 3.85946C7.57243 3.84668 7.56092 3.83517 7.54814 3.82558L7.5117 3.80129L7.47847 3.78595C7.46313 3.7802 7.44778 3.77573 7.4318 3.77317L7.38898 3.76933L7.3551 3.77125C6.58166 3.85946 5.9987 4.06593 5.58635 4.3689C5.13125 3.76613 4.31753 3.36854 3.07879 3.23814C3.0251 3.23239 2.97268 3.24389 2.92858 3.26882L2.91963 3.27394C2.87616 3.2995 2.84037 3.33914 2.818 3.38899C2.23887 4.69041 2.2408 5.68629 2.69271 6.41365C3.14016 7.13339 4.05039 7.61024 5.37291 7.84164C5.42469 7.85059 5.47576 7.8437 5.52051 7.82388ZM5.80687 7.23006C6.52597 7.04021 7.04118 6.74491 7.31028 6.30514C7.61199 5.81168 7.58386 5.15328 7.23038 4.30321C6.62442 4.39142 6.16483 4.56017 5.84394 4.81521C6.1124 5.4493 6.0958 6.26163 5.80687 7.23006ZM5.30574 4.87402C4.98038 4.27637 4.29196 3.91266 3.21168 3.76884C2.793 4.78262 2.76615 5.56377 3.12731 6.14419C3.44818 6.66065 4.05799 7.00455 4.90947 7.22124L3.68347 5.09773C3.61252 4.97564 3.65471 4.81904 3.7768 4.74873C3.89888 4.67778 4.05549 4.71996 4.1258 4.84205L5.35244 6.9649C5.59022 6.11987 5.59725 5.41931 5.31089 4.88361L5.30574 4.87402Z" fill="#A0A0A0"/>
</svg>
