<svg width="18" height="16" viewBox="0 0 18 16" fill="none" xmlns="http://www.w3.org/2000/svg">
<path id="Vector" d="M4.14355 0.113281V3.20117M13.9385 0.113281V3.20117M17.1758 13.5771C17.1758 14.1915 16.6778 14.6895 16.0635 14.6895H2.01855C1.40425 14.6895 0.90625 14.1915 0.90625 13.5771V2.91895C0.90625 2.30464 1.40425 1.80664 2.01855 1.80664H16.0635C16.6778 1.80664 17.1758 2.30464 17.1758 2.91895V13.5771ZM5.59204 5.81592H3.56665V7.84131H5.59204V5.81592ZM10.0081 7.84131H7.98267V5.81592H10.0081V7.84131ZM14.5154 7.84131H12.49V5.81592H14.5154V7.84131ZM5.56714 9.8335H3.54175V11.8589H5.56714V9.8335ZM9.98315 11.8589H7.95776V9.8335H9.98315V11.8589ZM14.4905 11.8589H12.4651V9.8335H14.4905V11.8589Z" stroke="#A0A0A0" stroke-width="0.8" stroke-miterlimit="10"/>
</svg>
