<svg width="34" height="34" viewBox="0 0 34 34" fill="none" xmlns="http://www.w3.org/2000/svg">
<path d="M8.5 2.83325L4.25 8.49992V28.3333C4.25 29.0847 4.54851 29.8054 5.07986 30.3367C5.61122 30.8681 6.33189 31.1666 7.08333 31.1666H26.9167C27.6681 31.1666 28.3888 30.8681 28.9201 30.3367C29.4515 29.8054 29.75 29.0847 29.75 28.3333V8.49992L25.5 2.83325H8.5Z" stroke="black" stroke-width="1.25" stroke-linecap="round" stroke-linejoin="round"/>
<path d="M4.25 8.5H29.75" stroke="black" stroke-width="1.25" stroke-linecap="round" stroke-linejoin="round"/>
<path d="M22.6666 14.1667C22.6666 15.6696 22.0696 17.111 21.0069 18.1737C19.9442 19.2364 18.5028 19.8334 16.9999 19.8334C15.497 19.8334 14.0557 19.2364 12.993 18.1737C11.9303 17.111 11.3333 15.6696 11.3333 14.1667" stroke="black" stroke-width="1.25" stroke-linecap="round" stroke-linejoin="round"/>
</svg>
