<svg width="21" height="21" viewBox="0 0 21 21" fill="none" xmlns="http://www.w3.org/2000/svg">
<g id="menu-icon-10.svg">
<path id="Vector" opacity="0.4" d="M2 11.8245V6.7415C2 4.3955 3.904 2.5 6.24999 2.5H14.75C17.096 2.5 19 4.3955 19 6.7415V12.6745C19 15.012 17.096 16.9075 14.75 16.9075H13.475C13.2115 16.9075 12.9565 17.035 12.7949 17.2475L11.5199 18.9389C10.9589 19.687 10.0409 19.687 9.47998 18.9389L8.20498 17.2475C8.06899 17.0605 7.76299 16.9075 7.52498 16.9075H6.24999C3.904 16.9075 2 15.012 2 12.6745V11.8245Z" fill="#797979"/>
<path id="Vector_2" d="M10.9999 10.5C10.44 10.5 10 10.05 10 9.5C10 8.95 10.45 8.5 10.9999 8.5C11.55 8.5 12 8.95 12 9.5C12 10.05 11.56 10.5 10.9999 10.5Z" fill="#797979"/>
<path id="Vector_3" d="M14 10.5C13.4399 10.5 13 10.05 13 9.5C13 8.95 13.45 8.5 14 8.5C14.55 8.5 15 8.95 15 9.5C15 10.05 14.5601 10.5 14 10.5Z" fill="#797979"/>
<path id="Vector_4" d="M7.00001 10.5C6.44 10.5 6 10.05 6 9.5C6 8.95 6.45 8.5 7.00001 8.5C7.55 8.5 8 8.95 8 9.5C8 10.05 7.56 10.5 7.00001 10.5Z" fill="#797979"/>
</g>
</svg>
