<svg width="18" height="17" viewBox="0 0 17 17" fill="none" xmlns="http://www.w3.org/2000/svg">
<path d="M8.00219 0.988281C3.58553 0.988281 -0.0078125 4.58144 -0.0078125 8.99828C-0.0078125 13.4151 3.58553 17.0083 8.00219 17.0083C12.4188 17.0083 16.0122 13.4151 16.0122 8.99828C16.0122 4.58144 12.4188 0.988281 8.00219 0.988281ZM8.00219 16.1083C4.08179 16.1083 0.892188 12.9187 0.892188 8.99828C0.892188 5.07788 4.08179 1.88828 8.00219 1.88828C11.9226 1.88828 15.1122 5.07788 15.1122 8.99828C15.1122 12.9187 11.9226 16.1083 8.00219 16.1083ZM12.4122 8.54828H8.45219V3.38822C8.45219 3.13964 8.25077 2.93822 8.00219 2.93822C7.75361 2.93822 7.55219 3.13964 7.55219 3.38822V8.99828C7.55219 9.24686 7.75361 9.44828 8.00219 9.44828H12.4122C12.6608 9.44828 12.8622 9.24686 12.8622 8.99828C12.8622 8.7497 12.6608 8.54828 12.4122 8.54828Z" fill="#A0A0A0"/>
</svg>
