<svg width="22" height="21" viewBox="0 0 22 21" fill="none" xmlns="http://www.w3.org/2000/svg">
<g id="menu-icon-07.svg">
<path id="Vector" opacity="0.4" d="M7.73332 18.8307H14.4C16.7 18.8307 18.5667 16.9641 18.5667 14.6641V6.33073C18.5667 4.03073 16.7 2.16406 14.4 2.16406H7.73332C5.43332 2.16406 3.56665 4.03073 3.56665 6.33073V14.6641C3.56665 16.9641 5.43332 18.8307 7.73332 18.8307Z" fill="#797979"/>
<path id="Vector_2" d="M13.5667 5.25781H8.56667C7.70833 5.25781 7 5.95781 7 6.82448V7.65781C7 8.51615 7.7 9.22448 8.56667 9.22448H13.5667C14.425 9.22448 15.1333 8.52448 15.1333 7.65781V6.82448C15.1333 5.95781 14.4333 5.25781 13.5667 5.25781Z" fill="#797979"/>
<path id="Vector_3" d="M7.86706 12.933C7.75039 12.933 7.64206 12.908 7.54206 12.8664C7.44206 12.8247 7.35039 12.7664 7.27539 12.6914C7.11706 12.533 7.02539 12.3247 7.02539 12.0997C7.02539 11.9914 7.05039 11.883 7.09206 11.783C7.13372 11.6747 7.19206 11.5914 7.27539 11.508C7.46706 11.3164 7.75872 11.2247 8.02539 11.283C8.07539 11.2914 8.13372 11.308 8.18372 11.333C8.23372 11.3497 8.28372 11.3747 8.32539 11.408C8.37539 11.433 8.41706 11.4747 8.45039 11.508C8.52539 11.5914 8.59206 11.6747 8.63372 11.783C8.67539 11.883 8.69206 11.9914 8.69206 12.0997C8.69206 12.3247 8.60872 12.533 8.45039 12.6914C8.29206 12.8497 8.08372 12.933 7.86706 12.933Z" fill="#797979"/>
<path id="Vector_4" d="M11.1927 12.9297C10.976 12.9297 10.7677 12.8464 10.6093 12.688C10.451 12.5297 10.3594 12.3214 10.3594 12.0964C10.3594 11.8797 10.451 11.663 10.6093 11.5047C10.9177 11.1964 11.476 11.1964 11.7843 11.5047C11.8593 11.588 11.926 11.6714 11.9677 11.7797C12.0093 11.8797 12.026 11.988 12.026 12.0964C12.026 12.3214 11.9427 12.5297 11.7843 12.688C11.626 12.8464 11.4177 12.9297 11.1927 12.9297Z" fill="#797979"/>
<path id="Vector_5" d="M14.5247 12.9297C14.3081 12.9297 14.0997 12.8464 13.9414 12.688C13.7831 12.5297 13.6914 12.3214 13.6914 12.0964C13.6914 11.8797 13.7831 11.663 13.9414 11.5047C14.2497 11.1964 14.8081 11.1964 15.1164 11.5047C15.2747 11.663 15.3664 11.8797 15.3664 12.0964C15.3664 12.2047 15.3414 12.313 15.2997 12.413C15.2581 12.513 15.1997 12.6047 15.1164 12.688C14.9581 12.8464 14.7497 12.9297 14.5247 12.9297Z" fill="#797979"/>
<path id="Vector_6" d="M7.86706 16.2641C7.64206 16.2641 7.43372 16.1807 7.27539 16.0224C7.11706 15.8641 7.02539 15.6557 7.02539 15.4307C7.02539 15.2141 7.11706 14.9974 7.27539 14.8391C7.35039 14.7641 7.44206 14.7057 7.54206 14.6641C7.75039 14.5807 7.97539 14.5807 8.18372 14.6641C8.23372 14.6807 8.28372 14.7057 8.32539 14.7391C8.37539 14.7641 8.41706 14.8057 8.45039 14.8391C8.60872 14.9974 8.70039 15.2141 8.70039 15.4307C8.70039 15.6557 8.60872 15.8641 8.45039 16.0224C8.29206 16.1807 8.08372 16.2641 7.86706 16.2641Z" fill="#797979"/>
<path id="Vector_7" d="M11.1927 16.2636C10.976 16.2636 10.7677 16.1803 10.6093 16.0219C10.451 15.8636 10.3594 15.6553 10.3594 15.4303C10.3594 15.3719 10.3677 15.3219 10.376 15.2636C10.3927 15.2136 10.4094 15.1636 10.426 15.1136C10.451 15.0636 10.476 15.0136 10.501 14.9636C10.5343 14.9219 10.5677 14.8803 10.6093 14.8386C10.6843 14.7636 10.776 14.7053 10.876 14.6636C11.1843 14.5386 11.551 14.6053 11.7843 14.8386C11.9427 14.9969 12.026 15.2136 12.026 15.4303C12.026 15.6553 11.9427 15.8636 11.7843 16.0219C11.7093 16.0969 11.6177 16.1553 11.5177 16.1969C11.4177 16.2386 11.3093 16.2636 11.1927 16.2636Z" fill="#797979"/>
<path id="Vector_8" d="M14.5262 16.2636C14.4179 16.2636 14.3095 16.2386 14.2095 16.1969C14.1095 16.1553 14.0179 16.0969 13.9429 16.0219C13.7845 15.8636 13.7012 15.6553 13.7012 15.4303C13.7012 15.2136 13.7845 14.9969 13.9429 14.8386C14.1679 14.6053 14.5429 14.5386 14.8512 14.6636C14.9512 14.7053 15.0429 14.7636 15.1179 14.8386C15.2762 14.9969 15.3595 15.2136 15.3595 15.4303C15.3595 15.6553 15.2762 15.8636 15.1179 16.0219C14.9595 16.1803 14.7512 16.2636 14.5262 16.2636Z" fill="#797979"/>
</g>
</svg>
