<svg width="22" height="21" viewBox="0 0 22 21" fill="none" xmlns="http://www.w3.org/2000/svg">
<g id="menu-icon-01.svg">
<path id="Vector" d="M18.9837 9.58073V3.91406C18.9837 2.66406 18.4504 2.16406 17.1254 2.16406H13.7587C12.4337 2.16406 11.9004 2.66406 11.9004 3.91406V9.58073C11.9004 10.8307 12.4337 11.3307 13.7587 11.3307H17.1254C18.4504 11.3307 18.9837 10.8307 18.9837 9.58073Z" fill="#797979" fill-opacity="0.75"/>
<path id="Vector_2" d="M10.2337 11.4141V17.0807C10.2337 18.3307 9.70039 18.8307 8.37539 18.8307H5.00873C3.68373 18.8307 3.15039 18.3307 3.15039 17.0807V11.4141C3.15039 10.1641 3.68373 9.66406 5.00873 9.66406H8.37539C9.70039 9.66406 10.2337 10.1641 10.2337 11.4141Z" fill="#797979" fill-opacity="0.75"/>
<path id="Vector_3" opacity="0.4" d="M18.9837 17.0833V14.75C18.9837 13.5 18.4504 13 17.1254 13H13.7587C12.4337 13 11.9004 13.5 11.9004 14.75V17.0833C11.9004 18.3333 12.4337 18.8333 13.7587 18.8333H17.1254C18.4504 18.8333 18.9837 18.3333 18.9837 17.0833Z" fill="#3A643B" fill-opacity="0.75"/>
<path id="Vector_4" opacity="0.4" d="M10.2337 6.2474V3.91406C10.2337 2.66406 9.70039 2.16406 8.37539 2.16406H5.00873C3.68373 2.16406 3.15039 2.66406 3.15039 3.91406V6.2474C3.15039 7.4974 3.68373 7.9974 5.00873 7.9974H8.37539C9.70039 7.9974 10.2337 7.4974 10.2337 6.2474Z" fill="#3A643B" fill-opacity="0.75"/>
</g>
</svg>
