<svg width="84" height="78" viewBox="0 0 84 78" fill="none" xmlns="http://www.w3.org/2000/svg">
<rect width="84" height="78" rx="39" fill="white"/>
<ellipse cx="41.5" cy="39" rx="32.5" ry="32" fill="#E0E8E2"/>
<path d="M27.0356 36.6601L26.4244 35.5526C26.4243 35.5524 26.4242 35.5522 26.4242 35.552C24.532 31.3979 26.4713 26.804 30.8303 25.224C32.9056 24.4717 35.1629 24.5357 37.1883 25.2588C39.913 26.2316 43.8073 26.2316 46.532 25.2588C48.5574 24.5357 50.8148 24.4717 52.8901 25.224C57.2491 26.804 59.1883 31.3979 57.2962 35.552C57.2961 35.5522 57.2961 35.5524 57.296 35.5526L56.6848 36.6601C54.5392 40.5479 52.9211 44.6251 51.8614 48.8158L50.8668 52.7494C50.5949 53.6219 49.6104 54.3125 48.3847 54.3125C47.0589 54.3125 46.0383 53.5124 45.8562 52.5642L44.4496 45.2403C44.2276 44.0847 43.0796 43.3378 41.8602 43.3378C40.6408 43.3378 39.4928 44.0847 39.2709 45.2403L37.8642 52.5642C37.6821 53.5124 36.6615 54.3125 35.3357 54.3125C34.11 54.3125 33.1255 53.6219 32.8536 52.7494L31.859 48.8158C30.7993 44.6251 29.1812 40.5479 27.0356 36.6601Z" fill="#FDF8E5" stroke="#3A643C"/>
<path d="M30.8028 27.8804L30.731 27.5949C30.643 27.2452 30.3286 27 29.968 27C29.5951 27 29.2734 27.2617 29.1976 27.6268L29.1461 27.875C28.823 29.4309 27.576 30.6276 26.0082 30.8864L24.4813 31.1384C24.2037 31.1842 24 31.4243 24 31.7057C24 31.9944 24.214 32.2383 24.5003 32.2758L25.8567 32.4534C27.5024 32.669 28.8276 33.9096 29.1509 35.5376L29.2032 35.8007C29.2756 36.1654 29.5956 36.4281 29.9674 36.4281C30.3275 36.4281 30.6407 36.1813 30.725 35.8312L30.7966 35.5334C31.191 33.894 32.5515 32.665 34.2224 32.4387L35.4089 32.278C35.6954 32.2392 35.9092 31.9946 35.9092 31.7054C35.9092 31.4238 35.7062 31.1832 35.4286 31.1358L34.0697 30.9039C32.4779 30.6323 31.1967 29.4465 30.8028 27.8804Z" fill="#3A643C"/>
<path d="M30.5694 29.0786L30.2963 27.2887C30.271 27.1227 30.1282 27 29.9602 27C29.7874 27 29.642 27.1297 29.6224 27.3014L29.4199 29.0749C29.2948 30.1707 28.4216 31.0304 27.324 31.1385L24.2432 31.442C24.1052 31.4556 24 31.5717 24 31.7103C24 31.8521 24.1098 31.9697 24.2512 31.9793L27.2138 32.1817C28.3665 32.2605 29.2972 33.1537 29.4234 34.3022L29.6237 36.1268C29.6426 36.2983 29.7875 36.4281 29.96 36.4281C30.1279 36.4281 30.2704 36.305 30.2947 36.1389L30.5646 34.2996C30.7344 33.1424 31.6867 32.2593 32.8534 32.1772L35.6579 31.9799C35.7994 31.9699 35.9092 31.8521 35.9092 31.7102C35.9092 31.5715 35.8042 31.4553 35.6662 31.4413L32.742 31.1446C31.6314 31.0319 30.7377 30.1821 30.5694 29.0786Z" fill="#3A643C"/>
<path d="M51.2775 43.5536L51.2324 43.374C51.1771 43.1541 50.9794 43 50.7526 43C50.5182 43 50.3159 43.1646 50.2683 43.3941L50.2358 43.5502C50.0327 44.5285 49.2486 45.2809 48.2628 45.4437L47.3028 45.6021C47.1282 45.6309 47.0001 45.7819 47.0001 45.9588C47.0001 46.1403 47.1347 46.2937 47.3147 46.3173L48.1676 46.429C49.2024 46.5645 50.0356 47.3446 50.2389 48.3682L50.2717 48.5336C50.3173 48.7629 50.5185 48.9281 50.7523 48.9281C50.9787 48.9281 51.1756 48.7729 51.2286 48.5528L51.2737 48.3655C51.5216 47.3347 52.3771 46.562 53.4277 46.4197L54.1737 46.3187C54.3539 46.2943 54.4883 46.1404 54.4883 45.9586C54.4883 45.7816 54.3606 45.6303 54.1861 45.6005L53.3317 45.4547C52.3308 45.2839 51.5252 44.5383 51.2775 43.5536Z" fill="#3A643C"/>
<path d="M51.1308 44.3069L50.9591 43.1815C50.9432 43.0771 50.8534 43 50.7478 43C50.6391 43 50.5477 43.0815 50.5354 43.1895L50.408 44.3046C50.3294 44.9936 49.7803 45.5342 49.0902 45.6022L47.153 45.793C47.0663 45.8015 47.0001 45.8745 47.0001 45.9617C47.0001 46.0509 47.0692 46.1248 47.1581 46.1309L49.0209 46.2581C49.7457 46.3076 50.3309 46.8692 50.4102 47.5914L50.5362 48.7386C50.548 48.8465 50.6391 48.9281 50.7476 48.9281C50.8532 48.9281 50.9428 48.8507 50.9581 48.7463L51.1278 47.5898C51.2345 46.8621 51.8333 46.3069 52.5669 46.2553L54.3303 46.1312C54.4193 46.1249 54.4883 46.0509 54.4883 45.9616C54.4883 45.8744 54.4223 45.8014 54.3355 45.7926L52.4968 45.606C51.7985 45.5352 51.2366 45.0008 51.1308 44.3069Z" fill="#3A643C"/>
</svg>
