<svg width="84" height="78" viewBox="0 0 84 78" fill="none" xmlns="http://www.w3.org/2000/svg">
<ellipse cx="44.5" cy="40.5" rx="16.5" ry="14.5" fill="#FDF8E5"/>
<path d="M45 0H39C17.4609 0 0 17.4609 0 39C0 60.5391 17.4609 78 39 78H45C66.5391 78 84 60.5391 84 39C84 17.4609 66.5391 0 45 0Z" fill="white"/>
<path d="M44.5 71C62.4493 71 77 56.6731 77 39C77 21.3269 62.4493 7 44.5 7C26.5507 7 12 21.3269 12 39C12 56.6731 26.5507 71 44.5 71Z" fill="#E0E8E2"/>
<path d="M53.8409 44.7827C45.8409 46.7827 34.8409 53.7827 36.8409 49.2827C33.3106 46.7907 55.2365 37.3851 44.8408 33.2834C50.2365 27.8851 51.8105 27.2908 55.3409 29.7828C58.8713 32.2748 57.4519 36.3586 53.8409 44.7827Z" fill="#FDF8E5"/>
<path d="M49.0001 46.5C47.5001 51 45.5001 53.5 41.0003 53C37.1343 53 35.0002 49.7615 35.0002 47C33.5002 43 37.6343 45 41.5003 45C45.3663 45 49.0001 43.7386 49.0001 46.5Z" fill="#FDF8E5"/>
<path d="M27.1359 43.1694C25.64 44.4167 24.7826 46.3481 24.7826 48.4694V55.5864H24V48.4694C24 46.0616 24.974 43.8687 26.673 42.4524C28.4061 41.0072 30.59 40.6037 32.665 41.347C34.6204 42.0467 36.0972 42.3968 36.9224 42.3501C40.108 42.1851 42.7994 39.1461 42.7994 35.7144C42.7994 33.7825 42.3682 32.8137 41.9116 31.788C41.4033 30.6439 40.8261 29.3477 40.8261 26.6735V20.0013H41.6087V26.6735C41.6087 29.1356 42.1178 30.2796 42.6104 31.3863C43.0882 32.4601 43.582 33.5704 43.582 35.7144C43.582 39.6069 40.5487 43.0529 36.9584 43.2393C36.0217 43.2886 34.501 42.9372 32.4299 42.1957C30.5958 41.5392 28.6659 41.8937 27.1359 43.1694ZM46.7555 33.859C46.7555 33.267 47.1789 32.7857 47.6993 32.7857C48.2202 32.7857 48.6436 33.2674 48.6436 33.859C48.6436 34.4506 48.2202 34.9324 47.6993 34.9324C47.1789 34.9319 46.7555 34.4506 46.7555 33.859ZM47.5381 33.859C47.5381 33.9605 47.6105 34.0428 47.6993 34.0428C47.7882 34.0428 47.861 33.9605 47.861 33.859C47.861 33.7576 47.7882 33.6753 47.6993 33.6753C47.6105 33.6753 47.5381 33.7576 47.5381 33.859ZM46.534 45.5794C46.534 44.9878 46.9574 44.5061 47.4783 44.5061C47.9991 44.5061 48.4225 44.9878 48.4225 45.5794C48.4225 46.1715 47.9991 46.6528 47.4783 46.6528C46.9574 46.6528 46.534 46.1715 46.534 45.5794ZM47.3167 45.5794C47.3167 45.6808 47.3894 45.7631 47.4783 45.7631C47.5671 45.7631 47.6399 45.6804 47.6399 45.5794C47.6399 45.4784 47.5675 45.3962 47.4783 45.3962C47.389 45.3962 47.3167 45.4784 47.3167 45.5794ZM52.2537 38.591C51.7333 38.591 51.3099 38.1092 51.3099 37.5176C51.3099 36.926 51.7333 36.4443 52.2537 36.4443C52.7746 36.4443 53.198 36.926 53.198 37.5176C53.198 38.1097 52.7746 38.591 52.2537 38.591ZM52.2537 37.7013C52.343 37.7013 52.4153 37.6186 52.4153 37.5176C52.4153 37.4167 52.3426 37.3339 52.2537 37.3339C52.1649 37.3339 52.0925 37.4162 52.0925 37.5176C52.0925 37.619 52.1649 37.7013 52.2537 37.7013ZM53.3243 43.4532C53.3243 44.0453 52.901 44.5266 52.3801 44.5266C51.8597 44.5266 51.4363 44.0448 51.4363 43.4532C51.4363 42.8616 51.8597 42.3799 52.3801 42.3799C52.901 42.3799 53.3243 42.8616 53.3243 43.4532ZM52.5417 43.4532C52.5417 43.3518 52.469 43.2695 52.3801 43.2695C52.2913 43.2695 52.2189 43.3518 52.2189 43.4532C52.2189 43.5546 52.2913 43.6369 52.3801 43.6369C52.469 43.6369 52.5417 43.5542 52.5417 43.4532ZM40.4019 47.6905C40.1421 47.1776 40.297 46.5198 40.7478 46.224C41.1982 45.9286 41.7766 46.1043 42.0376 46.6167C42.1636 46.8654 42.1972 47.1545 42.1319 47.4316C42.0661 47.7083 41.91 47.94 41.6917 48.0833C41.5433 48.1802 41.3813 48.2265 41.2213 48.2265C40.895 48.2265 40.5768 48.0339 40.4019 47.6905ZM41.0797 47.2457C41.1239 47.3324 41.2221 47.3636 41.3 47.3124C41.3504 47.2795 41.3692 47.2283 41.3755 47.2008C41.3817 47.1732 41.388 47.1189 41.359 47.0615C41.3293 47.0028 41.2745 46.9695 41.219 46.9695C41.192 46.9695 41.1638 46.9775 41.1387 46.9939C41.062 47.0451 41.0354 47.1576 41.0797 47.2457ZM51.9728 39.6105L51.7658 38.7524C50.2045 39.2391 49.2822 41.0792 49.7099 42.8545L50.4651 42.6196C50.1509 41.3177 50.8278 39.9677 51.9728 39.6105ZM47.3675 36.7294L47.1582 37.5866C47.4196 37.6693 47.6853 37.7102 47.9494 37.7102C48.4487 37.7102 48.9421 37.5639 49.389 37.277C50.0722 36.8384 50.5641 36.1236 50.7742 35.2647L50.0198 35.0267C49.8656 35.657 49.5052 36.181 49.004 36.5026C48.5027 36.8237 47.9216 36.9042 47.3675 36.7294ZM45.5577 45.0314L45.9134 44.2392C44.4711 43.4025 42.6985 44.055 41.962 45.6946L42.659 46.099C43.1993 44.8962 44.4981 44.4171 45.5577 45.0314ZM54.481 32.3969L54.9189 31.6599C53.5779 30.6306 51.7486 31.0314 50.8419 32.5566L51.4899 33.0548C52.1555 31.9361 53.4973 31.6412 54.481 32.3969ZM47.4916 43.6218L47.9075 42.8683C47.4974 42.5756 47.2122 42.1192 47.1038 41.5823C46.9954 41.0454 47.078 40.4934 47.335 40.0268L46.6726 39.554C46.304 40.2212 46.1862 41.0121 46.3407 41.7803C46.4953 42.5489 46.9042 43.2028 47.4916 43.6218ZM39.8917 48.5712L39.5853 47.7528C39.1423 47.9667 38.6536 47.9721 38.2083 47.7688C37.7622 47.5651 37.4131 47.1759 37.2245 46.6732L36.5045 47.022C36.7745 47.743 37.2762 48.3012 37.9156 48.5944C38.2274 48.7367 38.5538 48.8079 38.8797 48.8079C39.2233 48.8074 39.5665 48.7287 39.8917 48.5712ZM54.4975 39.098C54.6524 39.9619 54.1606 40.8084 53.4003 40.9854L53.5568 41.8568C54.7393 41.5819 55.5051 40.2644 55.2637 38.9201L54.4975 39.098ZM53.8698 34.4653L53.088 34.5098C53.1173 35.1739 53.3725 35.7851 53.806 36.2312C54.2122 36.6485 54.7287 36.8744 55.2723 36.8744C55.3098 36.8744 55.347 36.8735 55.3846 36.8713L55.3454 35.983C54.9643 36.0004 54.6098 35.858 54.3308 35.572C54.0526 35.2842 53.8886 34.8919 53.8698 34.4653ZM40.5146 50.3403C40.0032 50.3625 39.5105 50.1663 39.1306 49.7736L38.6039 50.4314C39.1059 50.951 39.7469 51.2321 40.4215 51.2321C40.4645 51.2321 40.5083 51.2312 40.5514 51.2285C41.273 51.1898 41.9382 50.8344 42.4242 50.2268L41.8454 49.6281C41.5003 50.06 41.0276 50.3127 40.5146 50.3403ZM42.3166 49.0868L42.8953 49.6855C43.2412 49.254 43.7135 49.0009 44.2265 48.9733C44.7368 48.9413 45.2306 49.1468 45.6102 49.5396L46.1369 48.8817C45.6031 48.3293 44.916 48.0464 44.1893 48.0846C43.4678 48.1233 42.8026 48.4792 42.3166 49.0868ZM57.6796 50.9795C57.6796 54.2991 55.3036 57 52.3833 57C50.3907 57 48.653 55.7416 47.749 53.8881C45.4012 55.0201 43.0256 55.6051 40.7596 55.6055C40.0337 55.6055 39.3188 55.5464 38.6199 55.4267C35.806 54.9459 33.5635 53.0243 32.6216 50.286C32.3352 49.4524 31.6676 48.9142 30.921 48.9142C29.8954 48.9142 29.087 49.8332 29.087 50.9626V55.5864H28.3043V50.9626C28.3043 49.3425 29.4638 48.0246 30.8889 48.0246C31.9916 48.0246 32.9456 48.7847 33.3506 49.9613C34.1892 52.3993 36.2024 54.1132 38.7361 54.5464C41.4694 55.0139 44.464 54.4984 47.4247 53.075C47.2795 52.6333 47.1766 52.1689 47.1265 51.6849C45.0929 52.6626 42.9923 53.1826 41.0166 53.1826C40.4105 53.1826 39.8103 53.1328 39.2323 53.0349C37.2136 52.6889 35.4425 51.1418 34.7198 49.0934C34.3813 48.1353 34.2549 46.6403 34.3437 44.6507L34.3676 44.1204L34.8231 44.2401C35.8702 44.515 36.7307 44.64 37.3709 44.6017C41.5559 44.3842 44.9586 40.4925 44.9586 35.9256C44.9586 34.4311 44.842 33.9004 44.7399 33.6055L44.6335 33.295L44.8655 33.0913C46.3141 31.8191 47.9353 30.6226 48.9034 29.9073C49.1523 29.7236 49.3518 29.5764 49.486 29.4736C50.4338 28.7495 51.4042 28.3429 52.4529 28.2308C52.6274 28.2121 52.8039 28.2024 52.9761 28.2024C55.2586 28.2024 57.9245 29.9291 57.9245 34.7967C57.9245 38.5767 56.7244 42.2424 54.4517 45.4384C54.8297 45.6212 55.1815 45.8579 55.5086 46.1305C57.9339 42.657 59.2174 38.6661 59.2174 34.5587C59.2174 31.8685 58.4684 29.672 57.0511 28.2068C55.7993 26.9124 54.1203 26.3061 52.3222 26.5001C51.0563 26.6366 49.893 27.1188 48.7657 27.9746C47.9737 28.5756 46.9911 28.701 46.1392 28.3113C45.0584 27.8171 44.3631 26.6504 44.36 25.3355L44.3478 20.0022L45.1304 20L45.1426 25.3324C45.1449 26.2834 45.6477 27.1272 46.4237 27.4822C47.0431 27.766 47.7541 27.6726 48.3305 27.2344C49.5682 26.295 50.8497 25.7648 52.2479 25.614C54.2678 25.3974 56.1605 26.0828 57.5774 27.5485C59.1622 29.1872 60 31.611 60 34.5587C60 38.8783 58.6527 43.0676 56.1065 46.7035C57.077 47.795 57.6796 49.3083 57.6796 50.9795ZM47.0983 50.7286C47.2153 47.5255 49.5377 44.9585 52.3837 44.9585C52.8215 44.9585 53.2449 45.0261 53.6523 45.1404C55.9343 42.0427 57.1419 38.4722 57.1419 34.7954C57.1419 30.5848 54.8982 29.0906 52.9761 29.0906C52.8278 29.0906 52.6756 29.0995 52.5261 29.1156C51.6108 29.2134 50.7593 29.5719 49.9231 30.2107C49.7866 30.3152 49.5835 30.4656 49.3299 30.6524C48.4205 31.3241 46.9289 32.425 45.5624 33.6037C45.6606 34.0183 45.7413 34.6748 45.7413 35.9248C45.7413 40.96 42.0035 45.2512 37.4096 45.4896C36.8047 45.5247 36.0291 45.4357 35.1072 45.2209C35.0669 46.7991 35.1827 48.0166 35.446 48.7621C36.0678 50.5231 37.5998 51.8553 39.3489 52.1551C41.7515 52.563 44.4883 52.0434 47.0983 50.7286ZM56.897 50.9795C56.897 48.1504 54.872 45.8485 52.3833 45.8485C49.8946 45.8485 47.8696 48.15 47.8696 50.9795C47.8696 53.8089 49.8946 56.1104 52.3833 56.1104C54.872 56.1104 56.897 53.8085 56.897 50.9795ZM51.9293 52.6391L50.3763 50.874L49.823 51.503L52.0424 54.026L55.0058 49.1041L54.3601 48.6015L51.9293 52.6391Z" fill="#3A643C"/>
<rect x="46" y="35" width="1" height="1" fill="#FDF8E5"/>
<rect x="46" y="35" width="1" height="1" fill="#FDF8E5"/>
<rect x="46" y="35" width="1" height="1" fill="#FDF8E5"/>
<rect x="46" y="35" width="1" height="1" fill="#FDF8E5"/>
<rect x="46" y="35" width="1" height="1" fill="#FDF8E5"/>
<path d="M46 38H47V39H46V38Z" fill="#FDF8E5"/>
<path d="M46 38H47V39H46V38Z" fill="#FDF8E5"/>
<path d="M46 38H47V39H46V38Z" fill="#FDF8E5"/>
<path d="M46 38H47V39H46V38Z" fill="#FDF8E5"/>
<path d="M46 38H47V39H46V38Z" fill="#FDF8E5"/>
<rect x="46" y="37" width="1" height="1" fill="#FDF8E5"/>
<rect x="46" y="37" width="1" height="1" fill="#FDF8E5"/>
<rect x="46" y="37" width="1" height="1" fill="#FDF8E5"/>
<rect x="46" y="37" width="1" height="1" fill="#FDF8E5"/>
<rect x="46" y="37" width="1" height="1" fill="#FDF8E5"/>
<rect x="46" y="36" width="1" height="1" fill="#FDF8E5"/>
<rect x="46" y="36" width="1" height="1" fill="#FDF8E5"/>
<rect x="46" y="36" width="1" height="1" fill="#FDF8E5"/>
<rect x="46" y="36" width="1" height="1" fill="#FDF8E5"/>
<rect x="46" y="36" width="1" height="1" fill="#FDF8E5"/>
<path d="M46.9917 38.644C45.9917 40.144 46.544 41.144 45.9917 41.144C42.9917 42.644 45.4917 40.0247 45.4917 38.644C45.9917 37.144 45.4917 33.144 45.9917 33.644C49 35.9998 46.9917 37.2633 46.9917 38.644Z" fill="#FDF8E5"/>
<path d="M55.6705 41.582C54.7836 43.6054 53.7394 45.105 53.4999 45C52.4999 45 53.9165 43.2253 54.8035 41.2019C55.6904 39.1786 56.7605 35.8951 56.9999 36C57.2393 36.105 56.5575 39.5587 55.6705 41.582Z" fill="#FDF8E5"/>
</svg>
