<svg width="15" height="9" viewBox="0 0 15 9" fill="none" xmlns="http://www.w3.org/2000/svg">
<path id="Vector" d="M7.49464 8.08897C7.56517 8.08938 7.63509 8.07578 7.70039 8.04895C7.76569 8.02212 7.82508 7.98259 7.87516 7.93263L14.8424 0.924097C14.8924 0.87383 14.932 0.814156 14.959 0.748479C14.9861 0.682803 15 0.612411 15 0.541323C15 0.470236 14.9861 0.399844 14.959 0.334168C14.932 0.268492 14.8924 0.208816 14.8424 0.15855C14.7924 0.108283 14.7331 0.06841 14.6678 0.041206C14.6025 0.0140019 14.5325 0 14.4619 0C14.3912 0 14.3212 0.0140019 14.2559 0.041206C14.1906 0.06841 14.1313 0.108283 14.0813 0.15855L7.49464 6.7897L0.918651 0.169332C0.817731 0.0678145 0.680855 0.0107821 0.538133 0.0107821C0.395411 0.0107821 0.258535 0.0678145 0.157616 0.169332C0.0566961 0.27085 0 0.408538 0 0.552106C0 0.695674 0.0566961 0.833362 0.157616 0.93488L7.12484 7.94341C7.22503 8.03777 7.35739 8.08987 7.49464 8.08897Z" fill="black"/>
</svg>
