<svg width="84" height="78" viewBox="0 0 84 78" fill="none" xmlns="http://www.w3.org/2000/svg">
<path d="M45 0H39C17.4609 0 0 17.4609 0 39C0 60.5391 17.4609 78 39 78H45C66.5391 78 84 60.5391 84 39C84 17.4609 66.5391 0 45 0Z" fill="white"/>
<path d="M42.5 71C60.4493 71 75 56.6731 75 39C75 21.3269 60.4493 7 42.5 7C24.5507 7 10 21.3269 10 39C10 56.6731 24.5507 71 42.5 71Z" fill="#E0E8E2"/>
<path fill-rule="evenodd" clip-rule="evenodd" d="M43 51C51.8365 51 59 45.1256 59 41.1176C59 37.1096 51.8365 31.2353 43 31.2353C34.1635 31.2353 27 37.1137 27 41.1176C27 45.1216 34.1635 51 43 51Z" fill="#FDF8E5"/>
<path d="M43 45.3529C45.9455 45.3529 48.3333 43.4567 48.3333 41.1176C48.3333 38.7786 45.9455 36.8824 43 36.8824C40.0545 36.8824 37.6667 38.7786 37.6667 41.1176C37.6667 43.4567 40.0545 45.3529 43 45.3529Z" fill="#FDF8E5"/>
<path d="M33.4566 30.0114L35.7628 32.5668Z" fill="#FDF8E5"/>
<path d="M53.3333 30.325L51.027 32.8805Z" fill="#FDF8E5"/>
<path d="M43.0078 27V31.2353Z" fill="#FDF8E5"/>
<path d="M33.4566 30.0114L35.7628 32.5668M53.3333 30.325L51.027 32.8805M43.0078 27V31.2353M43 51C51.8365 51 59 45.1256 59 41.1176C59 37.1096 51.8365 31.2353 43 31.2353C34.1635 31.2353 27 37.1137 27 41.1176C27 45.1216 34.1635 51 43 51ZM43 45.3529C45.9455 45.3529 48.3333 43.4567 48.3333 41.1176C48.3333 38.7786 45.9455 36.8824 43 36.8824C40.0545 36.8824 37.6667 38.7786 37.6667 41.1176C37.6667 43.4567 40.0545 45.3529 43 45.3529Z" stroke="#3A643C" stroke-linecap="round" stroke-linejoin="round"/>
</svg>
