<svg width="24" height="24" viewBox="0 0 24 24" fill="none" xmlns="http://www.w3.org/2000/svg">
<g id="Icons">
<path id="Vector" d="M12.003 3.75L12.2168 3.7515C15.8565 3.7995 19.503 5.0745 19.503 6.99975V7.0275C19.524 7.338 19.449 7.66125 19.2548 7.95225L19.1873 8.046L17.2013 10.296C17.5313 10.4702 17.7848 10.7609 17.9123 11.1116C18.0399 11.4624 18.0324 11.848 17.8913 12.1935L17.8448 12.2955L17.0948 13.7955C16.9794 14.0265 16.8065 14.2237 16.5926 14.3683C16.3787 14.5128 16.1311 14.5997 15.8738 14.6205L15.753 14.625H14.2523V18.375C14.2523 19.1655 13.8923 19.3853 13.113 19.8727C12.333 20.3603 12.081 20.625 11.253 20.625C10.8746 20.6251 10.5101 20.4822 10.2326 20.2249C9.95512 19.9676 9.78515 19.6149 9.75676 19.2375L9.75302 19.125V13.6395L4.81876 8.046C4.59167 7.75904 4.47939 7.39789 4.50376 7.03275L4.50301 6.99975C4.50301 5.03625 8.29351 3.75 12.003 3.75ZM15.441 10.0538C14.3573 10.3387 13.164 10.5 12.003 10.5C10.8413 10.5 9.64802 10.338 8.56426 10.0538L11.253 13.125V19.125L12.753 18.375V13.125L15.441 10.0538ZM16.503 11.625H16.0283L14.7053 13.1243L15.753 13.125L16.503 11.625ZM12.003 5.25C8.68876 5.25 6.00301 6.44775 6.00301 6.99975C6.00301 7.5525 8.68876 9 12.003 9C15.3165 9 18.003 7.5525 18.003 6.99975C18.003 6.44775 15.3165 5.25 12.003 5.25Z" fill="#3A643B"/>
</g>
</svg>
