<svg width="14" height="14" viewBox="0 0 14 14" fill="none" xmlns="http://www.w3.org/2000/svg">
<g id="vuesax/linear/game">
<g id="game">
<path id="Vector" d="M5.58251 7.26831L3.80334 9.04748" stroke="#828F9C" stroke-width="1.5" stroke-miterlimit="10" stroke-linecap="round" stroke-linejoin="round"/>
<path id="Vector_2" d="M3.8208 7.28589L5.59997 9.06505" stroke="#828F9C" stroke-width="1.5" stroke-miterlimit="10" stroke-linecap="round" stroke-linejoin="round"/>
<path id="Vector_3" d="M7.89246 8.16675H7.89829" stroke="#828F9C" stroke-width="1.5" stroke-miterlimit="10" stroke-linecap="round" stroke-linejoin="round"/>
<path id="Vector_4" d="M10.1908 8.16675H10.1966" stroke="#828F9C" stroke-width="1.5" stroke-miterlimit="10" stroke-linecap="round" stroke-linejoin="round"/>
<path id="Vector_5" d="M9.04163 9.32172V9.31006" stroke="#ABB0BC" stroke-width="1.5" stroke-miterlimit="10" stroke-linecap="round" stroke-linejoin="round"/>
<path id="Vector_6" d="M9.04163 7.02339V7.01172" stroke="#ABB0BC" stroke-width="1.5" stroke-miterlimit="10" stroke-linecap="round" stroke-linejoin="round"/>
<path id="Vector_7" d="M5.24996 12.8333H8.74996C11.6666 12.8333 12.8333 11.6667 12.8333 8.75V7.58333C12.8333 4.66667 11.6666 3.5 8.74996 3.5H5.24996C2.33329 3.5 1.16663 4.66667 1.16663 7.58333V8.75C1.16663 11.6667 2.33329 12.8333 5.24996 12.8333Z" stroke="#ABB0BC" stroke-width="1.5" stroke-linecap="round" stroke-linejoin="round"/>
<path id="Vector_8" d="M7.5892 1.16675L7.58336 1.75591C7.57753 2.07675 7.32086 2.33341 7.00003 2.33341H6.98253C6.6617 2.33341 6.40503 2.59591 6.40503 2.91675C6.40503 3.23758 6.66753 3.50008 6.98836 3.50008H7.5717" stroke="#ABB0BC" stroke-width="1.5" stroke-linecap="round" stroke-linejoin="round"/>
</g>
</g>
</svg>
