<svg width="84" height="84" viewBox="0 0 84 84" fill="none" xmlns="http://www.w3.org/2000/svg">
<rect width="84" height="84" rx="42" fill="white"/>
<path d="M42 74C59.6731 74 74 59.6731 74 42C74 24.3269 59.6731 10 42 10C24.3269 10 10 24.3269 10 42C10 59.6731 24.3269 74 42 74Z" fill="#E0E8E2"/>
<path d="M25 45H59V52C59 54.7614 56.7614 57 54 57H30C27.2386 57 25 54.7614 25 52V45Z" fill="#FDF8E5" stroke="#3A643C" stroke-linecap="round" stroke-linejoin="round"/>
<path d="M58 37H26C23.7909 37 22 38.7909 22 41C22 43.2091 23.7909 45 26 45H58C60.2091 45 62 43.2091 62 41C62 38.7909 60.2091 37 58 37Z" fill="#FDF8E5" stroke="#3A643C" stroke-linecap="round" stroke-linejoin="round"/>
<path d="M47 34H39V37H47V34Z" fill="#FDF8E5" stroke="#3A643C" stroke-linecap="round" stroke-linejoin="round"/>
<path fill-rule="evenodd" clip-rule="evenodd" d="M47 33.7995C47 33.7995 52.1562 27.7255 54.5625 29.3384C56.9688 30.9514 58 37 58 37H47V33.7995Z" fill="#E0E8E2" stroke="#3A643C" stroke-linecap="round" stroke-linejoin="round"/>
<path fill-rule="evenodd" clip-rule="evenodd" d="M39 37V33.7995L38.6856 33.4892C34.7835 29.6747 31.9091 28.2911 30.0625 29.3384C28.1667 30.4138 26.8125 32.9676 26 37H39Z" fill="#E0E8E2" stroke="#3A643C" stroke-linecap="round" stroke-linejoin="round"/>
<path d="M49 37H37V45H49V37Z" fill="#E0E8E2" stroke="#3A643C" stroke-linecap="round" stroke-linejoin="round"/>
<path d="M46 45H40V57H46V45Z" fill="#E0E8E2" stroke="#3A643C" stroke-linecap="round" stroke-linejoin="round"/>
<path fill-rule="evenodd" clip-rule="evenodd" d="M26 37C26 37 32.5 30.25 39 37H26Z" fill="#FDF8E5" stroke="#3A643C" stroke-linecap="round" stroke-linejoin="round"/>
<path fill-rule="evenodd" clip-rule="evenodd" d="M58 37C54.3333 33 50.6667 33 47 37H58Z" fill="#FDF8E5" stroke="#3A643C" stroke-linecap="round" stroke-linejoin="round"/>
</svg>
