<svg width="13" height="13" viewBox="0 0 13 13" fill="none" xmlns="http://www.w3.org/2000/svg">
<g id="Group">
<g id="Group_2">
<path id="Vector" fill-rule="evenodd" clip-rule="evenodd" d="M4.63595 -0.00390625C2.36498 -0.00390625 0.515626 1.8451 0.515626 4.11605V5.18432C0.515508 5.23487 0.525358 5.28494 0.544612 5.33167C0.563867 5.3784 0.592148 5.42087 0.627837 5.45666C0.663526 5.49245 0.705922 5.52085 0.752599 5.54024C0.799277 5.55962 0.849318 5.5696 0.899861 5.56963H5.70386C5.7544 5.5696 5.80445 5.55962 5.85112 5.54024C5.8978 5.52085 5.9402 5.49245 5.97588 5.45666C6.01157 5.42087 6.03986 5.3784 6.05911 5.33167C6.07836 5.28494 6.08821 5.23487 6.0881 5.18432V0.380319C6.08805 0.278429 6.04755 0.180729 5.9755 0.108682C5.90345 0.0366355 5.80575 -0.00385956 5.70386 -0.00390625H4.63595ZM7.61072 -0.00390625C7.50883 -0.00385938 7.41113 0.0366355 7.33908 0.108682C7.26703 0.180729 7.22653 0.278429 7.22649 0.380319V5.18432C7.22637 5.23487 7.23622 5.28494 7.25547 5.33167C7.27473 5.3784 7.30301 5.42087 7.3387 5.45666C7.37439 5.49245 7.41678 5.52085 7.46346 5.54024C7.51014 5.55962 7.56018 5.5696 7.61072 5.56963H12.4147C12.4653 5.5696 12.5153 5.55962 12.562 5.54024C12.6087 5.52085 12.6511 5.49245 12.6867 5.45666C12.7224 5.42087 12.7507 5.3784 12.77 5.33167C12.7892 5.28494 12.7991 5.23487 12.799 5.18432V4.11605C12.799 1.84509 10.9496 -0.00390625 8.67863 -0.00390625H7.61072ZM4.63595 0.765644H5.31999V4.80044H1.28374V4.11605C1.28374 2.26056 2.78045 0.765644 4.63595 0.765644ZM7.9946 0.765644H8.67863C10.5341 0.765637 12.0308 2.26055 12.0308 4.11605V4.80044H7.9946V0.765644ZM0.899861 6.7488C0.849318 6.74882 0.799277 6.75882 0.752599 6.77821C0.705922 6.79759 0.663526 6.826 0.627837 6.86179C0.592148 6.89758 0.563867 6.94005 0.544612 6.98678C0.525358 7.03351 0.515508 7.08358 0.515626 7.13412V8.2024C0.515626 10.4734 2.36498 12.3224 4.63595 12.3224H5.70386C5.80569 12.3223 5.90334 12.2819 5.97538 12.2099C6.04741 12.1379 6.08795 12.0403 6.0881 11.9385V7.13412C6.08821 7.08358 6.07836 7.03351 6.05911 6.98678C6.03986 6.94005 6.01157 6.89758 5.97588 6.86179C5.9402 6.826 5.8978 6.79759 5.85112 6.77821C5.80445 6.75882 5.7544 6.74882 5.70386 6.7488H0.899861ZM10.012 6.7488C8.47492 6.7488 7.22649 7.99867 7.22649 9.53576C7.22649 11.0728 8.47492 12.3224 10.012 12.3224C11.5491 12.3224 12.799 11.0728 12.799 9.53576C12.799 7.99867 11.5491 6.7488 10.012 6.7488ZM1.28374 7.51835H5.31999V11.5532H4.63595C2.78045 11.5532 1.28374 10.0579 1.28374 8.2024V7.51835ZM10.012 7.51835C11.1365 7.51835 12.0308 8.41125 12.0308 9.53576C12.0308 10.6602 11.1365 11.5532 10.012 11.5532C8.8875 11.5532 7.9946 10.6602 7.9946 9.53576C7.9946 8.41125 8.8875 7.51835 10.012 7.51835Z" fill="#A0A0A0"/>
</g>
</g>
</svg>
