<svg  viewBox="0 0 18 15" fill="none" xmlns="http://www.w3.org/2000/svg">
<g id="Group">
<g id="Group_2">
<g id="Group_3">
<path id="Vector" fill-rule="evenodd" clip-rule="evenodd" d="M8.4801 9.19979V0.533067C8.4801 0.238662 8.72432 0 9.00658 0C9.29734 0 9.53306 0.238113 9.53306 0.533067V9.18664L11.6023 7.11738C11.8032 6.91645 12.1403 6.9142 12.3467 7.12068C12.5472 7.32111 12.5547 7.66044 12.35 7.8651L9.41338 10.8017C9.40178 10.8162 9.38932 10.8301 9.37602 10.8434C9.27234 10.9471 9.13575 10.9982 9 10.9979C8.86425 10.9982 8.72766 10.9471 8.62398 10.8434C8.61068 10.8301 8.59822 10.8162 8.58662 10.8017L5.64996 7.8651C5.44531 7.66044 5.45282 7.32111 5.65326 7.12068C5.85974 6.9142 6.19675 6.91645 6.39768 7.11738L8.4801 9.19979ZM0 14.5C0 14.2239 0.227587 14 0.50021 14H17.4998C17.776 14 18 14.2319 18 14.5C18 14.7761 17.7724 15 17.4998 15H0.50021C0.223952 15 0 14.7681 0 14.5Z" fill="#101018"/>
</g>
</g>
</g>
</svg>
