<svg width="84" height="84" viewBox="0 0 84 84" fill="none" xmlns="http://www.w3.org/2000/svg">
<rect width="84" height="84" rx="42" fill="white"/>
<path d="M41.5 74C59.4493 74 74 59.6731 74 42C74 24.3269 59.4493 10 41.5 10C23.5507 10 9 24.3269 9 42C9 59.6731 23.5507 74 41.5 74Z" fill="#E0E8E2"/>
<g clip-path="url(#clip0_1005_3821)">
<path d="M29.8796 59.6801C29.8585 59.6801 29.8374 59.6801 29.8158 59.6795C28.9371 59.6642 28.2157 58.4946 28.1011 56.8987C28.035 55.9873 27.8647 55.1041 27.6845 54.1682C27.5236 53.3328 27.3575 52.4687 27.2733 51.5861C26.9041 47.7111 26.7069 43.1302 28.0467 38.5321C28.1221 38.2727 28.2029 38.0133 28.2883 37.755C28.8382 36.0886 29.4496 34.8234 30.213 33.7733C32.191 31.0514 35.6111 29.8591 40.6687 30.14C42.4431 30.2375 45.2717 30.6423 46.9735 31.0434C48.549 31.4139 50.183 31.5458 51.8305 31.4341C54.242 31.2704 56.9969 30.5448 58.5296 29.6696C59.4265 29.1581 60.4942 29.2973 61.2489 30.0266C61.9866 30.7392 62.203 31.8175 61.7994 32.7736C61.2623 34.0463 60.1203 35.5974 58.4039 37.3834C57.9259 37.8814 57.3011 38.5425 56.709 39.2362C55.1295 41.0885 49.3973 47.4406 41.9546 51.4125C40.4575 52.2111 38.9505 52.7612 37.4744 53.0464C35.9533 53.3402 33.8899 54.2442 32.6936 56.8778C32.6585 56.9545 32.6315 57.068 32.5947 57.1992C32.3876 57.9432 31.9038 59.6801 29.8796 59.6801ZM29.1658 38.8903C27.8864 43.2811 28.08 47.7105 28.438 51.464C28.5164 52.2859 30.058 53.3617 30.213 54.1682C30.392 55.0992 34 54.9087 29.2676 56.8067C29.3425 57.8438 29.7193 58.4001 29.8638 58.4578C30.9355 58.4553 31.2164 57.7721 31.472 56.8545C31.5258 56.6607 27.6196 51.9829 27.6845 51.8394C29.167 48.5747 35.7983 52.1227 37.2626 51.8394C38.6275 51.5751 40.0281 51.0635 41.4245 50.319C48.6865 46.444 54.2923 40.2304 55.8379 38.4187C56.4504 37.7011 57.0911 37.0233 57.5807 36.5137C59.1931 34.8356 60.2526 33.4103 60.7305 32.2781C60.9704 31.7101 60.7463 31.209 60.4573 30.9294C60.1543 30.6368 59.6365 30.4356 59.0901 30.7478C57.1349 31.8635 54.0735 32.5117 51.9065 32.6589C50.1473 32.7767 48.4016 32.6369 46.7179 32.2407C45.0687 31.8524 42.3278 31.4599 40.6078 31.3654C35.8995 31.1048 32.8936 32.1088 31.1444 34.5173C30.4587 35.4606 29.903 36.6173 29.3952 38.1568C29.3133 38.4003 29.2372 38.645 29.1658 38.8903Z" fill="#3A643C"/>
<path d="M53.5002 37.5002C54.0002 42.0002 44.5002 50.5002 33.0002 54.0002C27.7385 55.6016 27.0003 47.0002 29.0003 40.0389C29.0003 35.0684 34.0003 30.5002 40.5003 31.0389C46.8515 31.0389 63.5002 39.5002 53.5002 37.5002Z" fill="#FDF8E5"/>
<path d="M30.9958 53.5463C30.946 53.5463 30.8963 53.5395 30.8466 53.526C30.6301 53.4659 30.4645 53.2819 30.4218 53.0513C30.4119 52.998 30.3926 52.909 30.3668 52.7901C30.0995 51.5383 29.2857 47.7295 29.8368 44.8402C29.9 44.5084 30.2089 44.2925 30.5254 44.3593C30.8425 44.4256 31.0478 44.7488 30.9841 45.0812C30.6804 46.6715 30.7998 48.8875 31.3368 51.6756C33.3932 49.6615 35.738 49.0163 36.7314 48.8243C37.9009 48.598 39.1411 47.9871 40.0912 47.4811C40.379 47.3272 40.7312 47.4474 40.8781 47.7498C41.0243 48.0515 40.9097 48.4207 40.6218 48.5747C39.6015 49.1193 38.2618 49.7762 36.9437 50.0313C35.9433 50.2245 33.4043 50.9341 31.4398 53.3341C31.3269 53.4702 31.1637 53.5463 30.9958 53.5463Z" fill="#3A643C"/>
<path d="M30.9959 40.666C30.9327 40.666 30.8678 40.655 30.8046 40.6317C30.4992 40.5213 30.3372 40.1717 30.4431 39.8515C30.8777 38.5347 31.9595 36.4298 32.5398 35.6306C33.7075 34.0231 35.7575 33.3062 39.1863 33.3062C39.5093 33.3062 39.7714 33.5809 39.7714 33.9195C39.7714 34.258 39.5093 34.5328 39.1863 34.5328C36.1588 34.5328 34.3961 35.1007 33.4706 36.374C32.9523 37.0879 31.9431 39.0573 31.5488 40.2533C31.4651 40.5072 31.2381 40.666 30.9959 40.666Z" fill="#3A643C"/>
<path d="M45.6216 29.6263C45.2986 29.6263 45.0365 29.3515 45.0365 29.013C45.0365 27.3221 43.7243 25.9464 42.1114 25.9464C41.7885 25.9464 41.5264 25.6716 41.5264 25.333C41.5264 24.9945 41.7885 24.7197 42.1114 24.7197C44.3696 24.7197 46.2066 26.6456 46.2066 29.013C46.2066 29.3515 45.9445 29.6263 45.6216 29.6263Z" fill="#3A643C"/>
<path d="M47.9615 29.6263C47.6386 29.6263 47.3765 29.3515 47.3765 29.013C47.3765 28.6744 47.6386 28.3997 47.9615 28.3997C49.5744 28.3997 50.8866 27.024 50.8866 25.333C50.8866 24.9945 51.1487 24.7197 51.4717 24.7197C51.7946 24.7197 52.0567 24.9945 52.0567 25.333C52.0567 27.7005 50.2191 29.6263 47.9615 29.6263Z" fill="#3A643C"/>
<path d="M47.9618 32.4729C47.9314 32.4729 47.9015 32.4704 47.8711 32.4655C47.485 32.4017 47.0994 32.33 46.7168 32.2398C46.3629 32.1564 45.9522 32.0736 45.5193 31.9933C45.2402 31.9417 45.0366 31.6866 45.0366 31.3897V24.7199C45.0366 23.7054 45.8241 22.8799 46.7917 22.8799C47.7594 22.8799 48.5468 23.7054 48.5468 24.7199V31.8595C48.5468 32.0386 48.4719 32.2091 48.342 32.3257C48.235 32.4214 48.0998 32.4729 47.9618 32.4729ZM46.9737 31.0432C47.1076 31.0745 47.2422 31.1039 47.3767 31.1315V24.7199C47.3767 24.3819 47.1146 24.1065 46.7917 24.1065C46.4688 24.1065 46.2067 24.3819 46.2067 24.7199V30.8782C46.4799 30.9322 46.7385 30.9874 46.9737 31.0432Z" fill="#3A643C"/>
<path d="M47.9608 47.4127C47.8228 47.4127 47.6835 47.3618 47.5724 47.2581C47.3308 47.0331 47.3091 46.6454 47.5238 46.3921C51.815 41.331 48.7928 36.9249 48.6623 36.7396C48.4704 36.4679 48.5236 36.084 48.7822 35.8822C49.0408 35.6798 49.4059 35.735 49.5995 36.0055C49.6375 36.0582 53.3396 41.3807 48.3984 47.2078C48.2826 47.3434 48.1223 47.4127 47.9608 47.4127Z" fill="#3A643C"/>
<path d="M43.8664 59.6793C42.8988 59.6793 42.1113 58.8538 42.1113 57.8394V50.301C42.1113 50.0765 42.2277 49.8705 42.4155 49.7631C43.1743 49.3283 43.9507 48.8468 44.7229 48.3335C44.9031 48.2133 45.1313 48.2059 45.3185 48.3138C45.5057 48.4218 45.6215 48.6279 45.6215 48.8511V57.8394C45.6215 58.8538 44.8341 59.6793 43.8664 59.6793ZM43.2814 50.6629V57.8394C43.2814 58.1773 43.5435 58.4527 43.8664 58.4527C44.1894 58.4527 44.4514 58.1773 44.4514 57.8394V49.9508C44.0595 50.198 43.6687 50.4359 43.2814 50.6629Z" fill="#3A643C"/>
<path d="M35.0471 31.8389C34.8581 31.8389 34.6768 31.7426 34.5656 31.574C34.0157 30.7386 33.1188 30.24 32.1658 30.24H31.5808C30.6131 30.24 29.8257 29.4145 29.8257 28.4C29.8257 27.3856 30.6131 26.5601 31.5808 26.5601H32.1658C34.6861 26.5601 36.987 28.1204 38.0272 30.5356C38.1056 30.7172 38.0945 30.9269 37.9986 31.098C37.9026 31.2698 37.7329 31.382 37.544 31.3992C36.6963 31.4752 35.9082 31.6163 35.2015 31.8175C35.15 31.8322 35.0986 31.8389 35.0471 31.8389ZM31.5808 27.7867C31.2578 27.7867 30.9957 28.0621 30.9957 28.4C30.9957 28.738 31.2578 29.0134 31.5808 29.0134H32.1658C33.3657 29.0134 34.5007 29.5745 35.2764 30.5319C35.6853 30.4301 36.1153 30.3461 36.5623 30.2805C35.5988 28.7429 33.949 27.7867 32.1658 27.7867H31.5808Z" fill="#3A643C"/>
<path d="M54.3971 51.706H53.227C50.4815 51.706 48.0366 49.8746 47.1445 47.1484C47.0614 46.8945 47.1456 46.613 47.3521 46.4547C48.0191 45.9426 48.6965 45.3955 49.3658 44.8282C49.5331 44.6865 49.7625 44.6522 49.9608 44.7399C50.1597 44.8276 50.296 45.0226 50.3159 45.2483C50.4569 46.8325 51.7083 48.0267 53.227 48.0267H54.3971C55.3647 48.0267 56.1522 48.8522 56.1522 49.8666C56.1522 50.8811 55.3647 51.706 54.3971 51.706ZM48.404 47.1643C49.2348 49.1638 51.1227 50.4793 53.227 50.4793H54.3971C54.72 50.4793 54.9821 50.204 54.9821 49.866C54.9821 49.5281 54.72 49.2527 54.3971 49.2527H53.227C51.4462 49.2527 49.9274 48.0794 49.3652 46.3952C49.0446 46.6577 48.7234 46.9147 48.404 47.1643Z" fill="#3A643C"/>
<path d="M52.0001 42.5001C48.5635 45.1254 53.8544 41.6184 53.0001 40.5001C52.1458 39.3818 49.5635 37.1255 53.0001 34.5001C56.4367 31.8748 60.1458 29.882 61.0001 31.0002C62.0001 32.3093 55.4367 39.8747 52.0001 42.5001Z" fill="#FDF8E5"/>
<path d="M57.5 32.0001C57.5 32.5525 54.9853 34.9999 52.5 34.9999C50.0147 34.9999 45.5 33.0526 45.5 32.5002C45.5 31.9478 50.0147 32.5002 52.5 32.5002C52.5 32.5002 57.5 31.4478 57.5 32.0001Z" fill="#FDF8E5"/>
<path d="M52.9804 40.5959C52.8637 40.4861 52.7485 40.3676 52.6088 40.289C52.5936 40.2804 52.5447 40.2669 52.5888 40.2639C52.6081 40.2625 52.6304 40.2612 52.6499 40.2633C52.6931 40.2682 52.6962 40.335 52.6966 40.3655C52.6981 40.4924 52.6308 40.5769 52.5667 40.6791C52.4849 40.8096 52.379 40.9435 52.2475 41.028C52.1637 41.0819 52.3253 41.0763 52.3532 41.0763C52.3718 41.0763 52.4565 41.0889 52.4651 41.065C52.4858 41.0076 52.5619 40.9654 52.6201 40.9654" stroke="#FDF8E5" stroke-linecap="round"/>
<path d="M52.0002 41.5002C51.1515 42.7542 50.1673 43.7749 50.5002 44.0002C50.8332 44.2256 53.1514 41.2542 54.0002 40.0002C54.849 38.7463 53.7291 39.6335 53.3962 39.4081C53.0632 39.1827 52.849 40.2463 52.0002 41.5002Z" fill="#FDF8E5"/>
</g>
<defs>
<clipPath id="clip0_1005_3821">
<rect width="35" height="46" fill="white" transform="translate(27 10)"/>
</clipPath>
</defs>
</svg>
