<svg width="84" height="78" viewBox="0 0 84 78" fill="none" xmlns="http://www.w3.org/2000/svg">
<path d="M45 0H39C17.4609 0 0 17.4609 0 39C0 60.5391 17.4609 78 39 78H45C66.5391 78 84 60.5391 84 39C84 17.4609 66.5391 0 45 0Z" fill="white"/>
<path d="M42.5 71C60.4493 71 75 56.6731 75 39C75 21.3269 60.4493 7 42.5 7C24.5507 7 10 21.3269 10 39C10 56.6731 24.5507 71 42.5 71Z" fill="#E0E8E2"/>
<path d="M39.4901 39.0798C39.4901 39.079 39.4901 39.0786 39.4901 39.0778C39.4901 39.059 39.4815 39.041 39.4793 39.0226C39.3379 39.1186 39.199 39.2013 39.0635 39.2817C38.793 39.4181 38.5376 39.5671 38.2977 39.7242C38.0866 39.8626 35.4838 44.8065 35.2468 47.1766C35.5693 47.4843 36.3279 48.0899 36.8181 48.38C37.3353 48.6861 36.9888 49.5478 36.229 49.1056C36.0802 49.019 35.6411 48.683 35.203 48.3431C35.1776 48.6783 35.1694 48.9774 35.1535 49.2204C35.1118 49.8535 34.1357 49.8645 34.1465 49.193C34.1512 48.9033 34.2118 47.7646 34.3731 46.3679C33.5518 47.0339 32.4987 47.9021 32.4837 47.9159C32.3878 47.9939 32.2669 48.0307 32.1461 48.0307C32.0102 48.0307 31.8739 47.9802 31.7733 47.8837C31.5867 47.6956 31.6022 47.4059 31.8086 47.2314C31.8993 47.1577 33.9401 45.4674 34.5597 45.008C34.8779 43.9551 35.4399 42.8802 35.7422 41.9845C34.7949 42.4945 32.9928 42.9547 31.8739 43.2346C31.8688 43.2346 31.8688 43.2393 31.8688 43.2393C31.526 43.5564 31.1631 44.4427 31.0019 45.017C30.9464 45.2236 30.74 45.3616 30.513 45.3616C30.4725 45.3616 30.4326 45.3569 30.387 45.3479C30.1199 45.2836 29.9587 45.0355 30.0241 44.7873C30.0692 44.6219 30.2305 44.0892 30.4979 43.5517C29.9991 43.6529 29.6663 43.7078 29.616 43.7172C29.5859 43.7219 29.5554 43.7262 29.5253 43.7262C29.2883 43.7262 29.0768 43.5702 29.0316 43.3495C28.9813 43.0966 29.1628 42.8579 29.435 42.812C29.4603 42.812 32.9498 42.2523 35.2146 40.9606C35.6669 40.7027 37.5525 38.9073 37.6888 38.6639C37.2485 38.5153 35.4769 38.9626 35.3354 38.981L33.219 40.2076C33.0753 40.2954 32.7288 40.3601 32.5236 40.0653C32.3753 39.8524 32.4428 39.569 32.6797 39.4314L34.005 38.6643L31.9793 38.0167C31.7174 37.934 31.5811 37.6721 31.6718 37.4287C31.7625 37.19 32.0498 37.0657 32.3117 37.1484L35.1841 38.0673C36.6026 37.8411 38.1025 37.3703 39.1259 36.7737C39.125 36.7686 39.1241 36.7631 39.1233 36.758C38.9014 35.0849 39.1422 34.112 39.2531 33.1151C39.368 32.0638 39.3662 32.0771 39.2531 33.1151C39.4466 31.3441 39.6569 29.6824 39.3675 28.6169C39.2054 27.9576 38.618 27.3276 37.8969 27.3276C35.2903 27.3276 28.0762 31.4668 25.1264 41.2875C24.6611 42.8324 24.3975 44.5631 24.2887 46.3106C24.0982 49.2318 24.3459 52.2032 24.8103 54.4493C24.8305 54.532 24.8778 54.6257 25.1096 54.7406C25.4699 54.9225 26.0397 54.9942 26.7475 55.0048C26.0405 54.9942 25.4712 54.9029 25.1113 54.7214C24.8795 54.6065 24.834 54.4807 24.8142 54.398C24.4457 52.6148 24.2139 50.387 24.2302 48.0903C24.2178 50.3945 24.4487 52.6281 24.8142 54.398C24.8344 54.4807 24.8795 54.6003 25.1113 54.7151C25.4712 54.897 26.0405 54.9817 26.7475 54.9923C29.8108 55.0385 35.4614 53.6955 37.8853 52.841C38.6662 52.4674 39.1951 51.6603 39.5344 50.5623C40.3815 47.8273 40.0551 43.2805 39.4905 39.0786C39.4896 39.0786 39.4901 39.0794 39.4901 39.0798Z" fill="#FDF8E5"/>
<path d="M60.3408 41.2881C57.2169 30.897 49.3427 26.8774 47.1712 27.369C45.5789 27.732 45.8902 30.3458 46.1925 33.1157C46.2983 34.1126 46.5236 35.1808 46.2858 36.8777C47.2985 37.4246 48.518 37.755 49.3092 37.9299C49.808 38.0447 50.1408 38.0906 50.1507 38.0906C50.3218 38.1106 50.6452 38.2623 50.5691 38.6143C50.4723 39.0619 49.9705 38.993 49.894 38.9863C49.7529 38.9632 48.1722 38.5974 47.5358 38.6649C47.7375 39.0231 48.4681 39.804 50.0152 40.9616C50.8215 41.5633 52.3733 42.0411 53.6685 42.3673C53.6986 42.372 53.7291 42.3763 53.7592 42.3857C54.8729 42.6566 55.7699 42.813 55.7901 42.813C56.0623 42.8589 56.2438 43.098 56.1935 43.3504C56.153 43.5707 55.9415 43.7271 55.6998 43.7271C55.6697 43.7271 55.6392 43.7224 55.6091 43.7181C55.5635 43.7091 55.226 43.6538 54.7323 43.5527C54.9942 44.0901 55.1554 44.6229 55.201 44.7883C55.2715 45.0364 55.1081 45.2959 54.8381 45.3488C54.5663 45.4022 54.2838 45.225 54.2232 45.018C54.062 44.4437 53.6943 43.548 53.3516 43.2356C52.228 42.9506 50.9126 42.5511 49.9653 42.0364C50.2728 42.9322 50.4994 43.9843 50.6607 45.0039C51.2652 45.4496 53.3262 47.1583 53.4221 47.232C54.0104 47.6601 53.4118 48.4382 52.7419 47.9164C52.7268 47.9027 51.6785 47.0344 50.8524 46.3637C51.0137 47.76 51.0593 48.9043 51.079 49.1889C51.1233 49.8137 50.1545 49.8996 50.0711 49.2257C50.0406 48.9792 50.0458 48.6836 50.0208 48.3437C49.5874 48.6836 49.1342 49.0097 48.9978 49.1062C48.9071 49.1705 48.7962 49.2026 48.6852 49.2026C48.539 49.2026 48.3881 49.1383 48.2871 49.0235C48.1159 48.8212 48.1559 48.5366 48.3778 48.3802C48.8413 48.0493 49.5973 47.4845 49.9198 47.1767C49.688 44.8522 49.1741 41.7656 48.2114 40.7456C48.2062 40.7456 48.2015 40.7409 48.1963 40.7366C47.6322 40.2587 47.2439 39.8683 46.9768 39.5469C46.9416 39.5378 46.3318 39.2987 45.959 39.1611C45.173 45.0274 44.8604 51.5456 47.5715 52.8411C50.5596 53.8933 58.4303 55.6847 60.3451 54.7153C60.5769 54.6004 60.6272 54.4809 60.6422 54.3982C61.3771 50.838 61.5805 45.4037 60.3408 41.2881Z" fill="#FDF8E5"/>
<path d="M44.2744 32.5756C44.1953 29.2507 44.0375 23.2339 44.0409 19.9583C44.0409 19.8274 43.9248 19.7251 43.7816 19.7251H41.4446C41.2992 19.7251 41.1827 19.8302 41.1853 19.9626C41.2408 22.7835 41.089 27.3793 41.0047 30.4581C40.9845 31.2299 40.9643 31.9798 40.9492 32.6043C40.8937 34.7908 40.4753 35.6274 40.0724 36.0546C40.0673 36.0731 40.1782 36.8234 40.2337 37.1769C40.2337 37.1769 40.4121 38.3917 40.4513 38.6901C41.2438 38.4411 42.0616 38.3286 42.7986 38.3286C43.3176 38.3286 44.169 38.5536 44.9856 38.8202C45.0308 38.5125 45.2023 37.3318 45.2023 37.3318C45.2578 36.9782 45.3081 36.6199 45.3688 36.2659C44.9194 35.8947 44.3402 35.1526 44.2744 32.5756Z" fill="#3A643C"/>
</svg>
