<svg width="22" height="21" viewBox="0 0 22 21" fill="none" xmlns="http://www.w3.org/2000/svg">
<g id="menu-icon-09.svg">
<path id="Vector" opacity="0.4" d="M17.3004 11.2943H18.9837V10.0943C18.9837 8.36928 17.5754 6.96094 15.8504 6.96094H6.28372C4.55872 6.96094 3.15039 8.36928 3.15039 10.0943V13.1359C3.80873 12.5359 4.69206 12.1693 5.65039 12.1693C7.72539 12.1693 9.40039 13.8526 9.40039 15.9193C9.40039 16.3609 9.3254 16.7776 9.18373 17.1693C8.95873 17.8276 8.54206 18.3943 8.01706 18.8359H15.8504C17.5754 18.8359 18.9837 17.4276 18.9837 15.7026V14.7109H17.4004C16.5004 14.7109 15.6754 14.0526 15.6004 13.1526C15.5504 12.6276 15.7504 12.1359 16.1004 11.7943C16.4087 11.4776 16.8337 11.2943 17.3004 11.2943Z" fill="#797979"/>
<path id="Vector_2" d="M5.65039 12.1641C4.69206 12.1641 3.80873 12.5307 3.15039 13.1307C3.00039 13.264 2.85873 13.4057 2.73373 13.5641C2.20873 14.2057 1.90039 15.0224 1.90039 15.9141C1.90039 17.9891 3.58373 19.6641 5.65039 19.6641C6.55039 19.6641 7.36706 19.3474 8.01706 18.8307C8.54206 18.3891 8.95873 17.8224 9.18373 17.1641C9.3254 16.7724 9.40039 16.3557 9.40039 15.9141C9.40039 13.8474 7.72539 12.1641 5.65039 12.1641ZM7.90039 15.1891C7.90039 15.4474 7.69205 15.6474 7.44205 15.6474C7.19205 15.6474 6.98373 15.4474 6.98373 15.1891V15.0974C6.98373 14.9974 6.90873 14.9141 6.80873 14.9141H4.9254C5.01706 15.0891 5.00039 15.3057 4.85039 15.4557C4.76705 15.5391 4.65039 15.5891 4.52539 15.5891C4.40872 15.5891 4.29206 15.5391 4.20873 15.4557L3.53373 14.7807C3.49206 14.7391 3.45872 14.6891 3.43372 14.6307C3.39206 14.5224 3.39206 14.3974 3.43372 14.2807C3.45872 14.2307 3.49206 14.1724 3.53373 14.1307L4.20873 13.4641C4.38373 13.2807 4.67539 13.2807 4.85039 13.4641C5.00039 13.6057 5.01706 13.8307 4.9254 13.9974H6.80873C7.40873 13.9974 7.90039 14.4891 7.90039 15.0974V15.1891ZM6.7754 18.4974C6.6504 18.4974 6.53373 18.4557 6.4504 18.3641C6.3004 18.2224 6.28372 17.9974 6.37539 17.8307H4.49206C3.89206 17.8307 3.40039 17.339 3.40039 16.7307V16.6391C3.40039 16.3807 3.60873 16.1807 3.85873 16.1807C4.10873 16.1807 4.31705 16.3807 4.31705 16.6391V16.7307C4.31705 16.8307 4.39206 16.9141 4.49206 16.9141H6.37539C6.28372 16.7391 6.3004 16.5224 6.4504 16.3724C6.6254 16.1974 6.91706 16.1974 7.09206 16.3724L7.76705 17.0474C7.80872 17.0891 7.84206 17.139 7.86706 17.1974C7.90873 17.3057 7.90873 17.4307 7.86706 17.5474C7.84206 17.5974 7.80872 17.6557 7.76705 17.6974L7.09206 18.3641C7.00872 18.4557 6.89206 18.4974 6.7754 18.4974Z" fill="#797979"/>
<path id="Vector_3" d="M13.4421 3.79494V6.9616H6.28372C4.55872 6.9616 3.15039 8.36994 3.15039 10.0949V7.03662C3.15039 6.04496 3.75872 5.16159 4.68372 4.81159L11.3004 2.31159C12.3337 1.92825 13.4421 2.68661 13.4421 3.79494Z" fill="#797979"/>
<path id="Vector_4" d="M19.8661 12.139V13.8557C19.8661 14.3141 19.4994 14.689 19.0327 14.7057H17.3994C16.4994 14.7057 15.6744 14.0474 15.5994 13.1474C15.5494 12.6224 15.7494 12.1307 16.0994 11.789C16.4077 11.4724 16.8327 11.2891 17.2994 11.2891H19.0327C19.4994 11.3057 19.8661 11.6807 19.8661 12.139Z" fill="#797979"/>
<path id="Vector_5" d="M12.7337 11.125H6.90039C6.55872 11.125 6.27539 10.8417 6.27539 10.5C6.27539 10.1583 6.55872 9.875 6.90039 9.875H12.7337C13.0754 9.875 13.3587 10.1583 13.3587 10.5C13.3587 10.8417 13.0754 11.125 12.7337 11.125Z" fill="#797979"/>
</g>
</svg>
