<svg width="18" height="17" viewBox="0 0 18 17" fill="none" xmlns="http://www.w3.org/2000/svg">
<path d="M6.90038 5.07838C7.57765 4.3045 7.49925 3.12612 6.72539 2.44882L4.57312 0.566988C4.19811 0.238581 3.71744 0.0749443 3.22313 0.110173C2.72541 0.141993 2.272 0.365856 1.94586 0.741999L0.875407 1.96358C0.20041 2.73403 -0.101874 3.75221 0.0435806 4.75905C0.311761 6.60335 1.28335 9.40457 4.41071 12.2852L5.70502 13.4192C8.98909 16.1772 11.9185 16.7795 13.8004 16.8022H13.8413C14.8482 16.8022 15.8016 16.3693 16.4686 15.6068L17.5391 14.3852C18.2163 13.6113 18.1379 12.4329 17.3641 11.7556L15.2175 9.87608C14.8425 9.54767 14.3595 9.38404 13.8618 9.41926C13.3641 9.45449 12.9073 9.68063 12.5822 10.059L11.9686 10.7659C11.7129 11.0624 11.3175 11.1908 10.9595 11.0886C8.42542 10.3761 6.87775 8.18517 6.17986 6.94313C5.96736 6.56472 6.01395 6.09086 6.29918 5.76812L6.90038 5.07838ZM6.02425 4.31134L5.41631 5.00678C4.80837 5.70223 4.70382 6.71134 5.15722 7.51701C5.94244 8.91588 7.69927 11.3864 10.6379 12.2126C11.4266 12.4342 12.2936 12.166 12.8425 11.5285L13.4539 10.8216C13.5766 10.6796 13.7482 10.5944 13.9334 10.5807C14.1198 10.5694 14.3004 10.6307 14.4425 10.7523L16.5891 12.6319C16.88 12.8853 16.9095 13.3296 16.6561 13.6182L15.5857 14.8398C15.1345 15.3546 14.4857 15.6455 13.8084 15.6364C12.1186 15.616 9.46744 15.0603 6.45711 12.5318L5.18325 11.4148C2.31733 8.77389 1.4311 6.24534 1.19226 4.58744C1.09681 3.91812 1.29681 3.23745 1.74796 2.72266L2.81842 1.50107C2.94115 1.3613 3.11273 1.27721 3.29795 1.26244C3.31272 1.26244 3.32977 1.25903 3.34454 1.25903C3.51272 1.25903 3.67635 1.32039 3.80363 1.43403L5.95589 3.31586C6.24793 3.57723 6.27767 4.02043 6.02425 4.31134Z" fill="#3A643B"/>
</svg>
