<svg width="84" height="78" viewBox="0 0 84 78" fill="none" xmlns="http://www.w3.org/2000/svg">
<path d="M45 0H39C17.4609 0 0 17.4609 0 39C0 60.5391 17.4609 78 39 78H45C66.5391 78 84 60.5391 84 39C84 17.4609 66.5391 0 45 0Z" fill="white"/>
<path d="M42.5 71C60.4493 71 75 56.6731 75 39C75 21.3269 60.4493 7 42.5 7C24.5507 7 10 21.3269 10 39C10 56.6731 24.5507 71 42.5 71Z" fill="#E0E8E2"/>
<path d="M47.1877 52.3848L47.1876 52.3848L47.1876 52.3849L47.0262 52.4039L46.9782 52.5593L45.472 57.4301H26.25V42.77C26.25 42.6172 26.342 42.4492 26.5514 42.3083C26.7592 42.1683 27.0603 42.0737 27.4048 42.0737H33.443C33.788 42.0737 34.0891 42.1684 34.2967 42.3082C34.5058 42.4491 34.5977 42.6171 34.5977 42.77H34.8477L34.5977 42.7701V42.7702V42.7704V42.7707V42.7711V42.7716V42.7722V42.7729V42.7736V42.7745V42.7754V42.7764V42.7775V42.7787V42.7799V42.7813V42.7827V42.7843V42.7859V42.7876V42.7893V42.7912V42.7931V42.7952V42.7973V42.7994V42.8017V42.8041V42.8065V42.809V42.8116V42.8143V42.817V42.8198V42.8228V42.8257V42.8288V42.8319V42.8352V42.8385V42.8418V42.8453V42.8488V42.8524V42.8561V42.8598V42.8637V42.8676V42.8716V42.8756V42.8797V42.8839V42.8882V42.8925V42.897V42.9015V42.906V42.9106V42.9153V42.9201V42.925V42.9299V42.9349V42.9399V42.945V42.9502V42.9555V42.9608V42.9662V42.9717V42.9772V42.9828V42.9885V42.9942V43V43.0059V43.0118V43.0178V43.0238V43.0299V43.0361V43.0424V43.0487V43.0551V43.0615V43.068V43.0746V43.0812V43.0879V43.0946V43.1014V43.1083V43.1152V43.1222V43.1292V43.1363V43.1435V43.1507V43.158V43.1653V43.1727V43.1802V43.1877V43.1953V43.2029V43.2105V43.2183V43.2261V43.2339V43.2418V43.2498V43.2578V43.2658V43.2739V43.2821V43.2903V43.2986V43.3069V43.3153V43.3237V43.3322V43.3407V43.3493V43.3579V43.3666V43.3753V43.3841V43.3929V43.4018V43.4107V43.4196V43.4287V43.4377V43.4468V43.456V43.4652V43.4744V43.4837V43.493V43.5024V43.5119V43.5213V43.5308V43.5404V43.55V43.5596V43.5693V43.579V43.5888V43.5986V43.6085V43.6184V43.6283V43.6383V43.6483V43.6583V43.6684V43.6786V43.6887V43.6989V43.7092V43.7195V43.7298V43.7401V43.7505V43.761V43.7714V43.7819V43.7925V43.803V43.8137V43.8243V43.835V43.8457V43.8564V43.8672V43.878V43.8889V43.8997V43.9106V43.9216V43.9325V43.9435V43.9546V43.9656V43.9767V43.9878V43.999V44.0102V44.0214V44.0326V44.0439V44.0551V44.0665V44.0778V44.0892V44.1006V44.112V44.1234V44.1349V44.1464V44.1579V44.1695V44.181V44.1926V44.2043V44.2159V44.2276V44.2392V44.251V44.2627V44.2744V44.2862V44.298V44.3098V44.3216V44.3335V44.3454V44.3573V44.3692V44.3811V44.393V44.405V44.417V44.429V44.441V44.453V44.4651V44.4772V44.4892V44.5013V44.5134V44.5256V44.5377V44.5499V44.562V44.5742V44.5864V44.5986V44.6108V44.6231V44.6353V44.6475V44.6598V44.6721V44.6844V44.6967V44.709V44.7213V44.7336V44.7459V44.7583V44.7706V44.783V44.7953V44.8077V44.8201V44.8325V44.8449V44.8573V44.8697V44.8821V44.8945V44.9069V44.9193V44.9317V44.9442V44.9566V44.969V44.9815V44.9939V45.0064V45.0188V45.0312V45.0437V45.0561V45.0686V45.081V45.0935V45.1059V45.1184V45.1308V45.1432V45.1557V45.1681V45.1805V45.193V45.2054V45.2178V45.2302V45.2427V45.2551V45.2675V45.2799V45.2923V45.3047V45.3171V45.3294V45.3418V45.3542V45.3665V45.3789V45.3912V45.4035V45.4159V45.4282V45.4405V45.4528V45.465V45.4773V45.4896V45.5018V45.5141V45.5263V45.5385V45.5507V45.5629V45.5751V45.5873V45.5994V45.6115V45.6237V45.6358V45.6479V45.66V45.672V45.6841V45.6961V45.7081V45.7201V45.7321V45.744V45.756V45.7679V45.7798V45.7917V45.8036V45.8154V45.8273V45.8391V45.8509V45.8626V45.8744V45.8861V45.8978V45.9095V45.9211V45.9328V45.9444V45.956V45.9676V45.9791V45.9906V46.0021V46.0136V46.025V46.0364V46.0478V46.0592V46.0705V46.0819V46.0931V46.1044V46.1156V46.1268V46.138V46.1491V46.1603V46.1713V46.1824V46.1934V46.2044V46.2154V46.2263V46.2372V46.2481V46.2589V46.2697V46.2805V46.2912V46.3019V46.3126V46.3232V46.3338V46.3444V46.3549V46.3654V46.3759V46.3863V46.3967V46.4071V46.4174V46.4277V46.4379V46.4481V46.4583V46.4684V46.4785V46.4885V46.4985V46.5085V46.5184V46.5283V46.5382V46.548V46.5577V46.5674V46.5771V46.5868V46.5964V46.6059V46.6154V46.6249V46.6343V46.6437V46.653V46.6623V46.6715V46.6807V46.6899V46.699V46.708V46.717V46.726V46.7349V46.7437V46.7526V46.7613V46.77V46.7787V46.7873V46.7959V46.8044V46.8129V46.8213V46.8297V46.838V46.8462V46.8544V46.8626V46.8707V46.8788V46.8868V46.8947V46.9026V46.9104V46.9182V46.9259V46.9336V46.9412V46.9488V46.9563V46.9637V46.9711V46.9784V46.9857V46.9929V47.0001V47.0071V47.0142V47.0212V47.0281V47.0349V47.0417V47.0485V47.0551V47.0618V47.0683V47.0748V47.0812V47.0876V47.0939V47.1001V47.1063V47.1124V47.1185V47.1244V47.1304V47.1362V47.142V47.1477V47.1534V47.159V47.1645V47.1699V47.1753V47.1806V47.1859V47.1911V47.1962V47.2012V47.2062V47.2111V47.2159V47.2207V47.2254V47.23V47.2346V47.239V47.2434V47.2478V47.252V47.2562V47.2603V47.2644V47.2683V47.2722V47.2761V47.2798V47.2835V47.2871V47.2906C34.5977 47.5721 34.7359 47.7927 34.9084 47.9544C35.078 48.1134 35.2937 48.2289 35.4923 48.3122C35.6934 48.3964 35.8921 48.4536 36.0388 48.4898C36.1126 48.5079 36.1744 48.521 36.2182 48.5296C36.2402 48.5339 36.2576 48.5371 36.27 48.5393L36.2845 48.5418L36.2887 48.5425L36.29 48.5427L36.2904 48.5428L36.2906 48.5428C36.2907 48.5428 36.2908 48.5429 36.3302 48.296L36.2908 48.5429L36.3103 48.546H36.3302H51.1451L50.0219 51.6206C49.38 51.9046 48.6898 52.094 48.1471 52.2136C47.8634 52.2761 47.6223 52.3191 47.4525 52.3464C47.3676 52.36 47.3007 52.3697 47.2553 52.376C47.2326 52.3791 47.2154 52.3814 47.2039 52.3828L47.1912 52.3844L47.1883 52.3848L47.1877 52.3848L47.1877 52.3848Z" fill="#FDF8E5" stroke="#3A643C" stroke-width="0.5"/>
<path d="M47.5485 28.2047C47.5485 29.1765 46.9638 30.0858 45.958 30.7633C44.9537 31.4399 43.5521 31.8664 41.9915 31.8664C40.431 31.8664 39.0294 31.4399 38.0251 30.7633C37.0192 30.0858 36.4346 29.1765 36.4346 28.2047C36.4346 27.2329 37.0192 26.3236 38.0251 25.646C39.0294 24.9695 40.431 24.543 41.9915 24.543C43.5521 24.543 44.9537 24.9695 45.958 25.646C46.9638 26.3236 47.5485 27.2329 47.5485 28.2047Z" fill="#FDF8E5" stroke="#3A643C" stroke-width="0.5"/>
<path d="M48.1464 35.8338L48.1469 35.8328C48.2701 35.5622 48.2256 35.2832 48.0287 35.0326C47.8265 34.7752 47.4598 34.5489 46.959 34.4447M48.1464 35.8338L44.655 35.2225C44.786 34.937 45.0923 34.6867 45.5205 34.5345C45.9444 34.3838 46.4592 34.3408 46.959 34.4447M48.1464 35.8338C48.0911 35.9566 47.5535 37.192 47.545 38.7009C47.5375 40.0378 47.9477 41.5991 49.4686 42.7758H45.2364M48.1464 35.8338L45.2364 42.7758M46.959 34.4447L47.0099 34.2M46.959 34.4447L47.0099 34.2M47.0099 34.2C48.098 34.4263 48.7081 35.2033 48.3744 35.9364L44.4277 35.1183C44.7645 34.3844 45.9208 33.9734 47.0099 34.2ZM45.2364 42.7758C43.3466 40.2187 43.8093 37.0663 44.655 35.2225L45.2364 42.7758Z" fill="#FDF8E5" stroke="#3A643C" stroke-width="0.5"/>
<path d="M33.1046 22.5821L29.2565 22.4388C29.0898 22.4327 28.9349 22.4993 28.8745 22.6045C28.8139 22.7097 28.8601 22.8291 28.9894 22.9007L32.0242 24.579L29.3884 25.4658C29.2439 25.5143 29.1595 25.6179 29.1762 25.726C29.1928 25.8342 29.3073 25.9239 29.4632 25.9514L31.8908 26.3797L29.6325 28.0597C29.5198 28.1437 29.5001 28.2671 29.5843 28.3652C29.6545 28.447 29.7833 28.4955 29.9195 28.4955C29.9466 28.4955 29.9742 28.4936 30.0013 28.4896L33.5149 27.9771C33.724 27.9467 33.8566 27.8078 33.8112 27.6671C33.7658 27.5265 33.5598 27.4363 33.351 27.4675L31.0151 27.8081L32.8924 26.4114C32.9833 26.3438 33.015 26.2492 32.9763 26.1619C32.9378 26.0746 32.8341 26.0072 32.7032 25.984L30.6546 25.6224L32.9038 24.8656C33.0212 24.8262 33.101 24.7493 33.1154 24.6615C33.1304 24.5737 33.0777 24.4868 32.9766 24.4308L30.3952 23.0035L33.6169 23.1235C33.7477 23.1292 33.8657 23.0909 33.9436 23.0237C34.0216 22.9564 34.0458 22.8677 34.0081 22.7862L33.1394 20.8927L35.8491 22.0723C35.96 22.1205 36.0986 22.1276 36.2192 22.0909C36.3389 22.0544 36.423 21.9791 36.4421 21.8915L36.8455 20.0537L38.5977 22.1549C38.6563 22.225 38.7592 22.273 38.8769 22.2851C38.9949 22.2975 39.1144 22.2721 39.2013 22.2168L40.6838 21.2721L40.6046 22.6198C40.5963 22.7637 40.7625 22.8849 40.9759 22.8907C41.1943 22.8919 41.3695 22.7841 41.3783 22.6403L41.4947 20.653C41.5006 20.5471 41.4113 20.4491 41.2678 20.4052C41.1249 20.3616 40.9563 20.3802 40.8417 20.4532L39.0297 21.608L36.9663 19.133C36.8855 19.0358 36.724 18.9845 36.5585 19.0041C36.3957 19.0243 36.2703 19.1121 36.246 19.2225L35.7649 21.4145L32.6656 20.0654C32.529 20.0059 32.3515 20.0102 32.2214 20.0765C32.0916 20.1427 32.0374 20.2566 32.0856 20.3613L33.1046 22.5821Z" fill="#3A643C"/>
<path d="M59.1956 38.7287L57.222 37.6626L61.4549 36.016L60.8422 35.4053L55.9117 37.6351L57.7841 38.5094L52.9956 40.3036L53.1265 40.4474L59.1956 38.7287Z" fill="#3A643C"/>
<path d="M62.3082 40.2329L57.2967 40.474L58.1262 41.6463L53.4917 41.6077L53.4981 41.75L59.0261 42.207L58.2413 40.865L62.3766 40.8548L62.3082 40.2329Z" fill="#3A643C"/>
<path d="M54.7687 36.7942L52.7175 36.4696L55.0219 34.209L54.2355 33.8975L51.7181 36.7657L53.5916 36.9709L50.9478 39.4768L51.1212 39.5531L54.7687 36.7942Z" fill="#3A643C"/>
<path d="M38.8613 34.9516C38.9963 34.9211 39.0693 34.8226 39.0242 34.7316C38.979 34.6407 38.834 34.5912 38.6974 34.6219C38.117 34.7527 37.7157 34.9712 37.5056 35.2713C37.1807 35.7349 37.4481 36.2163 37.4597 36.2365C37.4989 36.3055 37.5965 36.3478 37.7002 36.3478C37.7307 36.3478 37.7616 36.3441 37.7918 36.3365C37.9247 36.3026 37.9916 36.2024 37.942 36.1126C37.94 36.1089 37.7423 35.7445 37.9743 35.417C38.1227 35.2071 38.4213 35.0507 38.8613 34.9516Z" fill="#3A643C"/>
<path d="M38.3693 34.2499C38.5061 34.223 38.5846 34.1265 38.5448 34.0344C38.5048 33.9422 38.3618 33.8894 38.2248 33.9161C37.3491 34.0884 36.7328 34.3949 36.3929 34.8273C35.8757 35.4853 36.203 36.1868 36.2172 36.2164C36.2525 36.2899 36.3537 36.3369 36.4626 36.3369C36.4889 36.3369 36.5155 36.3341 36.5421 36.3284C36.6776 36.2988 36.7519 36.2008 36.7083 36.1095C36.7055 36.1036 36.4329 35.5196 36.8492 34.99C37.1212 34.6437 37.6328 34.3948 38.3693 34.2499Z" fill="#3A643C"/>
<path d="M61.4404 44.7298C61.4574 44.7322 61.4744 44.7333 61.4909 44.7333C61.6117 44.7333 61.7196 44.6761 61.7436 44.5933C61.8631 44.1886 61.7803 43.8456 61.4977 43.5738C61.061 43.154 60.3081 43.0716 60.2764 43.0684C60.1357 43.054 60.0046 43.1185 59.9827 43.2132C59.9605 43.3078 60.0565 43.3967 60.1966 43.412C60.2023 43.4127 60.7701 43.4777 61.0772 43.7758C61.2741 43.9667 61.3281 44.219 61.2375 44.5257C61.2096 44.6196 61.3007 44.711 61.4404 44.7298Z" fill="#3A643C"/>
<path d="M62.577 44.7949C62.5971 44.7983 62.6173 44.7996 62.6371 44.7996C62.7538 44.7996 62.8596 44.7459 62.888 44.6661C63.1001 44.0684 63.0106 43.5559 62.6217 43.1426C62.0299 42.5138 60.9629 42.3573 60.9178 42.3511C60.7784 42.3307 60.6416 42.3918 60.6125 42.4856C60.5833 42.5795 60.6726 42.6717 60.8122 42.6913C60.821 42.6927 61.7093 42.8227 62.1855 43.3288C62.4967 43.6595 62.5641 44.0823 62.3855 44.5853C62.353 44.6788 62.4384 44.7725 62.577 44.7949Z" fill="#3A643C"/>
<path d="M51.929 57.6902L51.929 57.6902C51.1069 57.5539 50.4663 57.2092 50.0848 56.7845C49.7077 56.3647 49.5856 55.874 49.7612 55.3931C49.7612 55.393 49.7612 55.393 49.7612 55.393L52.5199 47.8408L52.6425 47.505H52.285H44.5515H43.6332L43.6295 47.5049C43.6261 47.5047 43.6211 47.5045 43.6151 47.5045V47.5044L43.6058 47.5047C43.1445 47.5219 42.5906 47.4639 41.9097 47.3737L41.9097 47.3737C40.7518 47.2207 39.5409 46.9797 38.6305 46.444C38.1793 46.1785 37.8092 45.8446 37.5545 45.4192C37.3024 44.998 37.155 44.473 37.1672 43.8082C37.4261 41.8959 37.8171 40.413 38.4809 39.0182C39.1468 37.6188 40.0933 36.2953 41.4786 34.7093C43.4461 32.4874 46.7057 32.1461 48.6753 32.7885L48.6754 32.7885C49.6172 33.0956 50.1404 33.7352 50.299 34.4661C50.4594 35.2053 50.2527 36.0687 49.6661 36.8146L49.6579 36.825L49.6509 36.8363C49.4844 37.1017 49.3043 37.3832 49.1163 37.6771C48.9544 37.9301 48.7867 38.1924 48.6167 38.4615C48.6759 37.233 49.1039 36.2438 49.1451 36.1518C49.401 35.5893 49.2867 35.0095 48.9222 34.5456C48.5627 34.0881 47.9638 33.7431 47.2284 33.5901C46.9582 33.5339 46.6797 33.5056 46.4001 33.5056C45.188 33.5056 44.0583 34.0292 43.6581 34.9016L43.6581 34.9016C42.7033 36.9835 42.1728 40.6504 44.5742 43.5676L44.6492 43.6587H44.7672H56.401C57.3468 43.6587 58.2208 43.9527 58.7771 44.4309L58.94 44.2413L58.7771 44.4309C59.3269 44.9035 59.4928 45.4843 59.2988 46.0154L59.2988 46.0154L55.5566 56.2601L55.5566 56.2601C55.4032 56.6801 55.0379 57.0526 54.519 57.323C54.0019 57.5924 53.3501 57.7503 52.6613 57.7503C52.4194 57.7503 52.174 57.7308 51.929 57.6902Z" fill="#FDF8E5" stroke="#3A643C" stroke-width="0.5"/>
</svg>
