<svg width="24" height="27" viewBox="0 0 24 27" fill="none" xmlns="http://www.w3.org/2000/svg">
<path d="M12.3594 22.9468C11.2586 24.0411 9.78783 24.647 8.22703 24.6517H8.21754C6.65661 24.6517 5.19055 24.0505 4.08977 22.9609C2.97957 21.8666 2.36751 20.4106 2.37228 18.8562C2.37705 17.3017 2.98431 15.8503 4.09453 14.7559L15.6662 3.35236C17.0279 2.00911 19.2435 2.01383 20.6053 3.35706C21.967 4.70499 21.967 6.90304 20.6053 8.25085L9.03821 19.6965C8.81996 19.9125 8.53054 20.0299 8.22689 20.0299C7.91851 20.0299 7.62907 19.9078 7.41084 19.6918C6.96485 19.2456 6.96961 18.527 7.41084 18.0855L16.4966 9.09627L14.8218 7.43369L5.73605 16.4229C4.36964 17.7756 4.3649 19.9782 5.72181 21.3402C6.38604 22.0071 7.27327 22.3734 8.21743 22.3781H8.22692C9.16634 22.3781 10.0535 22.0165 10.7178 21.359L22.2849 9.91335C24.5717 7.6496 24.5717 3.96751 22.2849 1.69901C20.0028 -0.560057 16.283 -0.569465 13.9962 1.68961L2.4197 13.0931C0.858774 14.6289 0 16.6767 0 18.8559C0 21.0352 0.858743 23.0827 2.41493 24.6235C3.96639 26.1546 6.0256 27 8.21732 27H8.23155C10.4283 27 12.492 26.1452 14.0388 24.6047L23.0817 15.62L21.4022 13.9621L12.3594 22.9468Z" fill="#28643B"/>
</svg>
