<svg width="16" height="16" viewBox="0 0 16 16" fill="none" xmlns="http://www.w3.org/2000/svg">
<g id="re-fresh.svg" clip-path="url(#clip0_1_1679)">
<path id="Vector" d="M14.6567 7.1875C14.1904 7.1875 13.824 7.5539 13.824 8.02022C13.8129 9.57463 13.2133 11.0291 12.1252 12.1172C11.026 13.2164 9.56047 13.827 8.00606 13.827C6.45165 13.827 4.98604 13.2164 3.88685 12.1172C3.85354 12.0839 3.83135 12.0506 3.79804 12.0173H4.71957C5.17479 12.0173 5.55229 11.6398 5.55229 11.1846C5.55229 10.7293 5.17479 10.3518 4.71957 10.3518H1.7773C1.32208 10.3518 0.94458 10.7293 0.94458 11.1846V14.1268C0.94458 14.582 1.32208 14.9595 1.7773 14.9595C2.23252 14.9595 2.61002 14.582 2.61002 14.1268V13.1831C2.64333 13.2164 2.67663 13.2608 2.70994 13.3052C4.12001 14.7153 6.00753 15.5036 8.00606 15.5036C10.0046 15.5036 11.8921 14.7264 13.3021 13.3052C14.7011 11.9062 15.4783 10.0299 15.4894 8.03132C15.4894 7.565 15.1119 7.1986 14.6567 7.1875Z" fill="#28643B"/>
<path id="Vector_2" d="M1.33297 8.71616C1.78819 8.71616 2.15458 8.34977 2.16568 7.89455C2.18789 6.37345 2.79855 4.94117 3.86443 3.86419C4.96362 2.765 6.4292 2.15434 7.98361 2.15434C9.53802 2.15434 11.0036 2.765 12.1028 3.86419C12.1361 3.89749 12.1583 3.9308 12.1916 3.96411H11.2701C10.8149 3.96411 10.4374 4.34161 10.4374 4.79683C10.4374 5.25205 10.8149 5.62955 11.2701 5.62955H14.2124C14.6676 5.62955 15.0451 5.25205 15.0451 4.79683V1.86566C15.0451 1.41044 14.6676 1.03294 14.2124 1.03294C13.7571 1.03294 13.3796 1.41044 13.3796 1.86566V2.82051C13.3463 2.7872 13.313 2.74279 13.2797 2.69838C11.8697 1.28831 9.98213 0.5 7.98361 0.5C5.98508 0.5 4.09759 1.2772 2.68752 2.69838C1.29966 4.07514 0.522452 5.91823 0.500246 7.87234C0.489143 8.32756 0.855529 8.70506 1.32185 8.71616C1.33295 8.71616 1.33297 8.71616 1.33297 8.71616Z" fill="#28643B"/>
</g>
<defs>
<clipPath id="clip0_1_1679">
<rect width="15" height="15" fill="white" transform="translate(0.5 0.5)"/>
</clipPath>
</defs>
</svg>
