<svg width="27" height="22" viewBox="0 0 27 22" fill="none" xmlns="http://www.w3.org/2000/svg">
<g id="ph:dots-three-vertical-bold">
<path id="Vector" d="M11.3618 6.08772C11.1575 6.08739 10.9595 6.14539 10.8022 6.25164C10.7136 6.31147 10.6404 6.38495 10.5868 6.46787C10.5331 6.55079 10.5001 6.64152 10.4895 6.73487C10.479 6.82822 10.4911 6.92235 10.5253 7.01187C10.5594 7.10139 10.6149 7.18454 10.6885 7.25656L14.606 11.0767L10.8284 14.9039C10.7558 14.9768 10.7015 15.0607 10.6688 15.1507C10.6361 15.2407 10.6255 15.3352 10.6377 15.4286C10.6499 15.5219 10.6846 15.6124 10.7398 15.6949C10.7951 15.7773 10.8697 15.85 10.9596 15.9088C11.05 15.9737 11.156 16.0226 11.2708 16.0525C11.3856 16.0825 11.5067 16.0927 11.6266 16.0827C11.7464 16.0727 11.8625 16.0425 11.9674 15.9942C12.0723 15.9459 12.1638 15.8804 12.2362 15.8019L16.4598 11.5257C16.5884 11.3981 16.6587 11.2382 16.6587 11.0731C16.6587 10.908 16.5884 10.748 16.4598 10.6205L12.0876 6.34429C11.9999 6.25804 11.8884 6.18986 11.7623 6.14528C11.6362 6.1007 11.499 6.08098 11.3618 6.08772Z" fill="#666776"/>
</g>
</svg>
