<svg width="17" height="18" viewBox="0 0 17 18" fill="none" xmlns="http://www.w3.org/2000/svg">
<path id="Vector" d="M8.33333 15.5C10.1014 15.5 11.7971 14.7976 13.0474 13.5474C14.2976 12.2971 15 10.6014 15 8.83333C15 7.06522 14.2976 5.36953 13.0474 4.11929C11.7971 2.86905 10.1014 2.16667 8.33333 2.16667C6.56522 2.16667 4.86953 2.86905 3.61929 4.11929C2.36905 5.36953 1.66667 7.06522 1.66667 8.83333C1.66667 10.6014 2.36905 12.2971 3.61929 13.5474C4.86953 14.7976 6.56522 15.5 8.33333 15.5ZM8.33333 0.5C9.42768 0.5 10.5113 0.715548 11.5224 1.13434C12.5334 1.55313 13.4521 2.16696 14.2259 2.94078C14.9997 3.7146 15.6135 4.63326 16.0323 5.6443C16.4511 6.65535 16.6667 7.73898 16.6667 8.83333C16.6667 11.0435 15.7887 13.1631 14.2259 14.7259C12.6631 16.2887 10.5435 17.1667 8.33333 17.1667C3.725 17.1667 0 13.4167 0 8.83333C0 6.6232 0.877974 4.50358 2.44078 2.94078C4.00358 1.37797 6.1232 0.5 8.33333 0.5ZM8.75 4.66667V9.04167L12.5 11.2667L11.875 12.2917L7.5 9.66667V4.66667H8.75Z" fill="#797979"/>
</svg>
