<svg width="21" height="21" viewBox="0 0 21 21" fill="none" xmlns="http://www.w3.org/2000/svg">
<g id="menu-icon-05.svg" clip-path="url(#clip0_1_1353)">
<path id="Vector" d="M14.4746 3.45487V2.1347C14.4746 1.78774 14.1901 1.5 13.847 1.5C13.5038 1.5 13.2193 1.78774 13.2193 2.1347V3.40409H7.77958V2.1347C7.77958 1.78774 7.49503 1.5 7.15192 1.5C6.80879 1.5 6.52426 1.78774 6.52426 2.1347V3.45487C4.26467 3.66643 3.16836 5.02892 3.00098 7.05149C2.98424 7.2969 3.1851 7.5 3.41942 7.5H17.5795C17.8221 7.5 18.023 7.28844 17.9979 7.05149C17.8306 5.02892 16.7342 3.66643 14.4746 3.45487Z" fill="#797979"/>
<path id="Vector_2" opacity="0.4" d="M18 9.33061V10.7615C18 11.2632 17.55 11.6497 17.05 11.5675C16.8166 11.5345 16.575 11.5099 16.3333 11.5099C13.8083 11.5099 11.75 13.5411 11.75 16.0329C11.75 16.4112 11.9 16.9375 12.0583 17.4146C12.2416 17.949 11.8416 18.5 11.2666 18.5H7.16666C4.25 18.5 3 16.8553 3 14.3882V9.32238C3 8.87007 3.375 8.5 3.83333 8.5H17.1666C17.625 8.50823 18 8.8783 18 9.33061Z" fill="#797979"/>
<path id="Vector_3" d="M16.5 13.5C14.5662 13.5 13 15.0663 13 16.9999C13 17.6562 13.1838 18.2775 13.5075 18.8025C14.1112 19.8175 15.2225 20.5 16.5 20.5C17.7775 20.5 18.8888 19.8175 19.4925 18.8025C19.8162 18.2775 20 17.6562 20 16.9999C20 15.0663 18.4338 13.5 16.5 13.5ZM18.3113 16.6237L16.4475 18.3475C16.325 18.4612 16.1587 18.5224 16.0012 18.5224C15.835 18.5224 15.6687 18.4612 15.5375 18.33L14.6712 17.4637C14.4175 17.2099 14.4175 16.7899 14.6712 16.5363C14.925 16.2825 15.345 16.2825 15.5988 16.5363L16.0187 16.9563L17.4188 15.6612C17.6813 15.4162 18.1013 15.4338 18.3462 15.6963C18.5913 15.9588 18.5738 16.37 18.3113 16.6237Z" fill="#797979"/>
<path id="Vector_4" d="M7.99999 13.5C7.74 13.5 7.48 13.3901 7.29 13.2102C7.11 13.0202 7 12.7604 7 12.5005C7 12.2405 7.11 11.9807 7.29 11.7909C7.52 11.5609 7.87 11.4509 8.2 11.5208C8.26 11.5309 8.32 11.5508 8.38 11.5808C8.44 11.6009 8.5 11.6308 8.56 11.6709C8.60999 11.7108 8.65999 11.7508 8.71 11.7909C8.89 11.9807 9 12.2405 9 12.5005C9 12.7604 8.89 13.0202 8.71 13.2102C8.65999 13.2501 8.60999 13.2901 8.56 13.3302C8.5 13.3701 8.44 13.4001 8.38 13.4201C8.32 13.4501 8.26 13.4701 8.2 13.4801C8.12999 13.49 8.05999 13.5 7.99999 13.5Z" fill="#797979"/>
<path id="Vector_5" d="M10.9999 13.5C10.74 13.5 10.48 13.3893 10.29 13.2081C10.11 13.017 10 12.7553 10 12.4937C10 12.2321 10.11 11.9704 10.29 11.7792C10.6699 11.4069 11.34 11.4069 11.71 11.7792C11.89 11.9704 12 12.2321 12 12.4937C12 12.7553 11.89 13.017 11.71 13.2081C11.52 13.3893 11.26 13.5 10.9999 13.5Z" fill="#797979"/>
<path id="Vector_6" d="M7.99999 16.5C7.74 16.5 7.48 16.39 7.29 16.2099C7.11 16.0197 7 15.7597 7 15.4995C7 15.2393 7.11 14.9792 7.29 14.7891C7.39 14.6991 7.49001 14.629 7.62 14.5789C7.99 14.4189 8.43 14.5089 8.71 14.7891C8.89 14.9792 9 15.2393 9 15.4995C9 15.7597 8.89 16.0197 8.71 16.2099C8.52 16.39 8.26 16.5 7.99999 16.5Z" fill="#797979"/>
</g>
<defs>
<clipPath id="clip0_1_1353">
<rect width="21" height="20" fill="white" transform="translate(0 0.5)"/>
</clipPath>
</defs>
</svg>
