<svg width="20" height="21" viewBox="0 0 20 21" fill="none" xmlns="http://www.w3.org/2000/svg">
<g id="search-normal.svg">
<path id="Vector" opacity="0.4" d="M9.17508 17.1807C13.3218 17.1807 16.6834 13.8191 16.6834 9.6724C16.6834 5.52566 13.3218 2.16406 9.17508 2.16406C5.02834 2.16406 1.66675 5.52566 1.66675 9.6724C1.66675 13.8191 5.02834 17.1807 9.17508 17.1807Z" fill="#3A643B"/>
<path id="Vector_2" d="M18.325 16.2917C18.05 15.7833 17.4666 15.5 16.6833 15.5C16.0916 15.5 15.5833 15.7417 15.2833 16.1583C14.9833 16.575 14.9166 17.1333 15.1 17.6917C15.4583 18.775 16.0833 19.0167 16.425 19.0583C16.475 19.0667 16.525 19.0667 16.5833 19.0667C16.95 19.0667 17.5166 18.9083 18.0666 18.0833C18.5083 17.4417 18.5916 16.8 18.325 16.2917Z" fill="#3A643B"/>
</g>
</svg>
