<svg width="19" height="18" viewBox="0 0 19 18" fill="none" xmlns="http://www.w3.org/2000/svg">
<path fill-rule="evenodd" clip-rule="evenodd" d="M2.5 8C2.5 4.68629 5.18629 2 8.5 2C11.8137 2 14.5 4.68629 14.5 8C14.5 11.3137 11.8137 14 8.5 14C5.18629 14 2.5 11.3137 2.5 8ZM8.5 0C4.08172 0 0.5 3.58172 0.5 8C0.5 12.4183 4.08172 16 8.5 16C10.3487 16 12.051 15.3729 13.4056 14.3199L16.7929 17.7071C17.1834 18.0976 17.8166 18.0976 18.2071 17.7071C18.5976 17.3166 18.5976 16.6834 18.2071 16.2929L14.8199 12.9056C15.8729 11.551 16.5 9.84871 16.5 8C16.5 3.58172 12.9183 0 8.5 0Z" fill="#2E2F2E"/>
</svg>
