<svg width="84" height="79" viewBox="0 0 84 79" fill="none" xmlns="http://www.w3.org/2000/svg">
<path d="M45 0H39C17.4609 0 0 17.4609 0 39C0 60.5391 17.4609 78 39 78H45C66.5391 78 84 60.5391 84 39C84 17.4609 66.5391 0 45 0Z" fill="white"/>
<path d="M42.5 71C60.4493 71 75 56.6731 75 39C75 21.3269 60.4493 7 42.5 7C24.5507 7 10 21.3269 10 39C10 56.6731 24.5507 71 42.5 71Z" fill="#E0E8E2"/>
<g clip-path="url(#clip0_972_4440)">
<path d="M38.1562 50.3999V53.0999H35.2188C35.024 53.0999 34.8372 53.171 34.6995 53.2976C34.5617 53.4242 34.4844 53.5959 34.4844 53.7749C34.4844 53.9539 34.5617 54.1256 34.6995 54.2522C34.8372 54.3788 35.024 54.4499 35.2188 54.4499H38.1562V57.8249C38.1562 58.0039 38.2336 58.1756 38.3713 58.3022C38.5091 58.4288 38.6959 58.4999 38.8906 58.4999C39.0854 58.4999 39.2722 58.4288 39.4099 58.3022C39.5476 58.1756 39.625 58.0039 39.625 57.8249V54.4499H42.5625C42.7573 54.4499 42.9441 54.3788 43.0818 54.2522C43.2195 54.1256 43.2969 53.9539 43.2969 53.7749C43.2969 53.5959 43.2195 53.4242 43.0818 53.2976C42.9441 53.171 42.7573 53.0999 42.5625 53.0999H39.625V50.3999H38.1562Z" fill="#3A643C"/>
<path d="M38.8909 49.0499C41.3283 49.0523 43.6743 48.1972 45.4475 46.6601C47.2207 45.1229 48.2866 43.0203 48.4265 40.7836C48.5664 38.547 47.7696 36.3459 46.1998 34.6321C44.6299 32.9183 42.406 31.8217 39.9843 31.5674C39.8233 31.9942 39.7154 32.4365 39.6627 32.8857C41.5987 33.0564 43.4027 33.8633 44.7434 35.1584C46.0841 36.4534 46.8715 38.1495 46.9609 39.9353C47.0503 41.721 46.4358 43.4765 45.2302 44.8793C44.0247 46.2821 42.3089 47.2379 40.3982 47.5714C38.4874 47.9049 36.5099 47.5935 34.8289 46.6945C33.1478 45.7955 31.876 44.3692 31.2472 42.6776C30.6183 40.986 30.6745 39.1426 31.4055 37.4861C32.1364 35.8295 33.4931 34.4709 35.2263 33.6599C35.2263 33.6147 35.219 33.5701 35.219 33.5249C35.2229 33.0588 35.2615 32.5936 35.3343 32.1324C33.2768 32.8921 31.5712 34.2864 30.5102 36.0759C29.4492 37.8655 29.0989 39.9387 29.5196 41.9397C29.9403 43.9407 31.1056 45.7448 32.8156 47.0422C34.5256 48.3396 36.6736 49.0494 38.8909 49.0499Z" fill="#3A643C"/>
<path d="M43.3897 36.168C44.3098 37.0137 44.9204 38.0938 45.1475 39.2595C43.8548 39.0525 42.6626 38.4842 41.7351 37.6317C40.8149 36.7859 40.2043 35.7058 39.9773 34.5401C41.2699 34.7471 42.4622 35.3154 43.3897 36.168Z" fill="#FDF8E5" stroke="#3A643C" stroke-width="0.5"/>
<path d="M46.2343 26.1C48.0483 26.1009 49.8091 26.6629 51.2333 27.6956C52.6574 28.7283 53.662 30.1715 54.0851 31.7928C54.5083 33.4141 54.3255 35.1192 53.5661 36.6333C52.8067 38.1475 51.5149 39.3827 49.8988 40.14C49.8988 40.1852 49.9062 40.2297 49.9062 40.275C49.9023 40.7372 49.864 41.1986 49.7916 41.656C51.9526 40.8573 53.7217 39.3605 54.7664 37.4471C55.8111 35.5336 56.0593 33.3353 55.4644 31.2655C54.8695 29.1956 53.4725 27.3968 51.5361 26.2072C49.5996 25.0176 47.257 24.5191 44.9488 24.8055C42.6405 25.092 40.5257 26.1436 39.0017 27.7626C37.4778 29.3816 36.6498 31.4565 36.6733 33.5973C36.6969 35.738 37.5705 37.7971 39.1298 39.3874C40.6891 40.9777 42.8267 41.9897 45.1408 42.2331C45.3018 41.8061 45.4097 41.3636 45.4625 40.9142C43.4003 40.7275 41.4951 39.8196 40.1407 38.3782C38.7863 36.9368 38.0863 35.0722 38.1854 33.1698C38.2845 31.2674 39.1752 29.4727 40.6732 28.1569C42.1713 26.8411 44.1622 26.1047 46.2343 26.1Z" fill="#3A643C"/>
<path d="M33.4924 37.186C33.9345 36.5397 34.5109 35.9792 35.1886 35.5364C35.6181 37.5552 36.6912 39.4112 38.2717 40.8664C39.8475 42.3174 41.8523 43.3009 44.0285 43.6991C43.5527 44.2997 42.9546 44.8133 42.2648 45.2104C41.4548 45.6767 40.5397 45.97 39.5875 46.0674C38.6353 46.1649 37.6717 46.064 36.7685 45.7725C35.8653 45.481 35.0467 45.0068 34.373 44.3864C33.6994 43.7661 33.188 43.0159 32.8751 42.1922C32.5622 41.3686 32.4554 40.4916 32.562 39.6258C32.6686 38.7601 32.9861 37.9261 33.4924 37.186Z" fill="#FDF8E5" stroke="#3A643C" stroke-width="0.5"/>
<path d="M52.8438 21.3752C52.8438 21.5542 52.9211 21.7259 53.0588 21.8525C53.1966 21.9791 53.3834 22.0502 53.5781 22.0502H55.9076C56.0528 22.0502 56.1947 22.0898 56.3155 22.164C56.4362 22.2382 56.5303 22.3436 56.5859 22.4669C56.6415 22.5902 56.656 22.7259 56.6277 22.8568C56.5994 22.9878 56.5294 23.108 56.4268 23.2024L53.5407 25.8545L54.5798 26.8089L57.4652 24.1575C57.5679 24.0632 57.6987 23.9989 57.8411 23.9729C57.9836 23.9468 58.1312 23.9602 58.2654 24.0113C58.3996 24.0624 58.5142 24.1489 58.5949 24.2598C58.6756 24.3708 58.7187 24.5013 58.7188 24.6348V26.7752C58.7188 26.9542 58.7961 27.1259 58.9338 27.2525C59.0716 27.3791 59.2584 27.4502 59.4531 27.4502C59.6479 27.4502 59.8347 27.3791 59.9724 27.2525C60.1101 27.1259 60.1875 26.9542 60.1875 26.7752V21.3752C60.1875 21.1962 60.1101 21.0245 59.9724 20.8979C59.8347 20.7713 59.6479 20.7002 59.4531 20.7002H53.5781C53.3834 20.7002 53.1966 20.7713 53.0588 20.8979C52.9211 21.0245 52.8438 21.1962 52.8438 21.3752Z" fill="#3A643C"/>
<path d="M51.6262 36.605C51.1837 37.2515 50.6066 37.8119 49.9281 38.2544C49.4883 36.2423 48.4123 34.3941 46.8347 32.943C45.2617 31.4962 43.2642 30.5119 41.0948 30.1065C41.5695 29.5047 42.167 28.9898 42.8567 28.5916C43.6657 28.1245 44.58 27.8304 45.5317 27.732C46.4833 27.6336 47.4467 27.7337 48.3498 28.0244C49.2529 28.3151 50.0714 28.7887 50.7452 29.4084C51.4189 30.0281 51.9304 30.7779 52.2434 31.6012C52.5563 32.4243 52.6632 33.301 52.5566 34.1663C52.45 35.0317 52.1325 35.8653 51.6262 36.605Z" fill="#FDF8E5" stroke="#3A643C" stroke-width="0.5"/>
</g>
<defs>
<clipPath id="clip0_972_4440">
<rect width="47" height="54" fill="white" transform="translate(22 18)"/>
</clipPath>
</defs>
</svg>
