<svg width="84" height="78" viewBox="0 0 84 78" fill="none" xmlns="http://www.w3.org/2000/svg">
<g clip-path="url(#clip0_765_3463)">
<path d="M45 0H39C17.4609 0 0 17.4609 0 39C0 60.5391 17.4609 78 39 78H45C66.5391 78 84 60.5391 84 39C84 17.4609 66.5391 0 45 0Z" fill="white"/>
<path d="M41.5 71C59.4493 71 74 56.6731 74 39C74 21.3269 59.4493 7 41.5 7C23.5507 7 9 21.3269 9 39C9 56.6731 23.5507 71 41.5 71Z" fill="#E0E8E2"/>
<path d="M40 16H44C56.7025 16 67 26.2975 67 39C67 51.7025 56.7025 62 44 62H40C27.2975 62 17 51.7025 17 39C17 26.2975 27.2975 16 40 16Z" fill="#FDF8E5"/>
<path d="M52.5839 56.8875C60.3956 53.4194 65.7858 46.2701 65.7858 38.284C65.7858 27.0778 55.2505 17.9307 42 17.9307C41.0605 17.9307 40.1186 17.9957 39.1631 18.0747C39.2417 18.2582 39.319 18.4399 39.3957 18.6201C39.9079 19.8234 40.3906 20.9575 41.0108 22.0986L41.0168 22.1098L41.0223 22.1212C41.84 23.8264 42.895 25.5389 43.9548 27.056C45.1385 28.682 46.3149 30.1962 47.723 31.7076L47.7285 31.7135L47.7338 31.7196C49.1876 33.384 50.396 35.1491 51.4798 37.0102L51.4874 37.0233L51.4942 37.0369C53.4236 40.8679 54.6444 45.0371 54.5239 49.2291C54.5225 51.8054 53.8272 54.5223 52.5839 56.8875Z" fill="#E0E8E2" stroke="#3A643C"/>
<path d="M50.5513 49.4863L50.55 49.4748C50.2011 45.8794 48.9195 42.3645 47.1506 38.9216L47.1445 38.9093C46.3343 37.2198 45.2886 35.72 43.9907 34.099C42.6662 32.4447 41.4557 30.6792 40.4846 28.803C39.5224 26.9441 38.6703 24.9629 38.1811 22.9678L38.1789 22.9586L38.177 22.9494C37.8538 21.3769 37.6268 19.8039 37.4961 18.3037C35.4074 18.6112 33.4795 19.2037 31.6284 19.893C32.6858 24.623 34.3523 28.4584 38.9167 33.6534C40.5535 35.3729 43.5983 39.1541 45.4275 43.8661C47.1703 48.3557 47.8262 53.7423 45.0401 58.979C46.6256 58.7736 48.2062 58.431 49.7101 58.0113C50.6791 55.2044 50.8906 52.3031 50.5513 49.4863Z" fill="#E0E8E2" stroke="#3A643C"/>
<path d="M30.9286 34.0933C30.6905 35.1155 30.6905 35.2177 30.0952 35.4222C31.4047 35.5244 34.3809 35.5244 35.5714 34.0933C34.5 34.2977 32.119 34.7066 30.9286 34.0933Z" fill="white"/>
<path d="M29.7383 31.64C30.2145 31.1289 33.0716 31.1289 34.5002 31.2311C33.4288 30.72 30.9288 30.9245 29.7383 31.0267C29.5002 31.4356 29.1431 32.1511 29.7383 31.64Z" fill="white"/>
<path d="M26.3944 45.6195L26.404 45.614L26.4138 45.6089C26.454 45.5882 26.4567 45.5747 26.4589 45.5687C26.466 45.5499 26.4752 45.5026 26.4615 45.4163C26.4401 45.2815 26.3761 45.1344 26.3126 45.0261C25.6434 44.7275 25.2597 44.2811 25.1679 43.749C25.1162 43.4495 25.1656 43.1669 25.2629 42.9264C25.1822 42.8372 25.1171 42.7359 25.0685 42.6246C24.9505 42.3545 24.9491 42.0701 24.9888 41.8314C25.029 41.5897 25.1168 41.3593 25.2195 41.1669C25.3114 40.9948 25.4301 40.8253 25.5659 40.6982C25.6089 40.6403 25.6306 40.5599 25.5814 40.4332C25.5187 40.2716 25.3257 40.0149 24.8468 39.7407L24.8402 39.7369L24.8337 39.733C24.3441 39.4327 24.0463 39.0546 24.016 38.6126C23.9874 38.196 24.2088 37.8798 24.402 37.7097C25.5495 36.6256 26.251 35.9246 28.6125 33.3206C28.3566 31.5018 28.5751 29.4391 28.9504 27.5922C29.3288 25.7301 29.8751 24.0471 30.2971 22.9873C30.2382 22.5585 30.1353 22.1405 30.0149 21.7041C29.9788 21.5731 29.9406 21.4388 29.9016 21.3017C29.8556 21.1401 29.8085 20.9747 29.7625 20.8066C22.8185 24.2905 18.0952 30.8368 18.0952 38.2845C18.0952 49.5037 28.7644 59.149 41.8809 59.149H42.4533C42.4944 59.0836 42.535 59.0142 42.5797 58.9374L42.5849 58.9285C42.6448 58.8256 42.7129 58.7087 42.7954 58.5869C42.6218 56.9415 41.5207 54.5783 40.0366 52.5879C39.2745 51.5658 38.4324 50.671 37.6008 50.043C36.7601 49.4081 35.9892 49.0899 35.3535 49.1086C31.3058 49.313 29.9635 49.3149 28.018 49.1061C26.8769 48.9836 26.1803 48.3217 25.9061 47.5816C25.7727 47.2217 25.7384 46.8403 25.8064 46.4988C25.8733 46.1629 26.0529 45.815 26.3944 45.6195Z" fill="#E0E8E2" stroke="#147A36"/>
<path d="M30.0952 35.4222C31.4047 35.5244 34.3809 35.5244 35.5714 34.0933C34.5 34.2977 32.119 34.7066 30.9286 34.0933C30.6905 35.1155 30.6905 35.2177 30.0952 35.4222Z" fill="#925040"/>
<path d="M29.7383 31.64C30.2145 31.1289 33.0716 31.1289 34.5002 31.2311C33.4288 30.72 30.9288 30.9245 29.7383 31.0267C29.5002 31.4356 29.1431 32.1511 29.7383 31.64Z" fill="#925040"/>
<path d="M30.0952 35.4222C31.4047 35.5244 34.3809 35.5244 35.5714 34.0933C34.5 34.2977 32.119 34.7066 30.9286 34.0933C30.6905 35.1155 30.6905 35.2177 30.0952 35.4222Z" fill="#6B8E70"/>
<path d="M29.7383 31.64C30.2145 31.1289 33.0716 31.1289 34.5002 31.2311C33.4288 30.72 30.9288 30.9245 29.7383 31.0267C29.5002 31.4356 29.1431 32.1511 29.7383 31.64Z" fill="#3A643C"/>
</g>
<defs>
<clipPath id="clip0_765_3463">
<rect width="84" height="78" fill="white"/>
</clipPath>
</defs>
</svg>
