<svg width="21" height="20" viewBox="0 0 21 20" fill="none" xmlns="http://www.w3.org/2000/svg">
<path d="M14.5256 2.96406V1.66406C14.5256 1.3224 14.2423 1.03906 13.9006 1.03906C13.5589 1.03906 13.2756 1.3224 13.2756 1.66406V2.91406H7.85892V1.66406C7.85892 1.3224 7.57558 1.03906 7.23392 1.03906C6.89225 1.03906 6.60892 1.3224 6.60892 1.66406V2.96406C4.35892 3.17239 3.26725 4.51406 3.10058 6.50573C3.08392 6.74739 3.28392 6.94739 3.51725 6.94739H17.6173C17.8589 6.94739 18.0589 6.73906 18.0339 6.50573C17.8673 4.51406 16.7756 3.17239 14.5256 2.96406Z" fill="#3A643B"/>
<path opacity="0.4" d="M17.2331 8.20312C17.6915 8.20312 18.0665 8.57812 18.0665 9.03646V14.1698C18.0665 16.6698 16.8165 18.3365 13.8998 18.3365H7.23308C4.31641 18.3365 3.06641 16.6698 3.06641 14.1698V9.03646C3.06641 8.57812 3.44141 8.20312 3.89974 8.20312H17.2331Z" fill="#B9E5C7"/>
<path d="M7.64974 12.5017C7.43308 12.5017 7.21641 12.41 7.05808 12.26C6.90808 12.1017 6.81641 11.885 6.81641 11.6684C6.81641 11.4517 6.90808 11.235 7.05808 11.0767C7.29141 10.8434 7.65808 10.7683 7.96641 10.9017C8.07474 10.9433 8.16641 11.0017 8.24141 11.0767C8.39141 11.235 8.48308 11.4517 8.48308 11.6684C8.48308 11.885 8.39141 12.1017 8.24141 12.26C8.08308 12.41 7.86641 12.5017 7.64974 12.5017Z" fill="#3A643B"/>
<path d="M10.5657 12.5017C10.3491 12.5017 10.1324 12.41 9.97409 12.26C9.82409 12.1017 9.73242 11.885 9.73242 11.6684C9.73242 11.4517 9.82409 11.235 9.97409 11.0767C10.0491 11.0017 10.1407 10.9433 10.2491 10.9017C10.5574 10.7683 10.9241 10.8434 11.1574 11.0767C11.3074 11.235 11.3991 11.4517 11.3991 11.6684C11.3991 11.885 11.3074 12.1017 11.1574 12.26C11.1157 12.2933 11.0741 12.3267 11.0324 12.36C10.9824 12.3933 10.9324 12.4184 10.8824 12.435C10.8324 12.46 10.7824 12.4767 10.7324 12.485C10.6741 12.4934 10.6241 12.5017 10.5657 12.5017Z" fill="#3A643B"/>
<path d="M13.4837 12.5026C13.2671 12.5026 13.0504 12.4109 12.8921 12.2609C12.7421 12.1026 12.6504 11.8859 12.6504 11.6693C12.6504 11.4526 12.7421 11.236 12.8921 11.0776C12.9754 11.0026 13.0587 10.9443 13.1671 10.9026C13.3171 10.8359 13.4837 10.8193 13.6504 10.8526C13.7004 10.8609 13.7504 10.8776 13.8004 10.9026C13.8504 10.9193 13.9004 10.9443 13.9504 10.9776C13.9921 11.011 14.0337 11.0443 14.0754 11.0776C14.2254 11.236 14.3171 11.4526 14.3171 11.6693C14.3171 11.8859 14.2254 12.1026 14.0754 12.2609C14.0337 12.2943 13.9921 12.3276 13.9504 12.3609C13.9004 12.3943 13.8504 12.4193 13.8004 12.436C13.7504 12.461 13.7004 12.4776 13.6504 12.486C13.5921 12.4943 13.5337 12.5026 13.4837 12.5026Z" fill="#3A643B"/>
<path d="M7.64974 15.4167C7.54141 15.4167 7.43308 15.3917 7.33308 15.35C7.22474 15.3084 7.14141 15.25 7.05808 15.175C6.90808 15.0167 6.81641 14.8 6.81641 14.5833C6.81641 14.3667 6.90808 14.15 7.05808 13.9917C7.14141 13.9167 7.22474 13.8583 7.33308 13.8167C7.48308 13.75 7.64974 13.7333 7.81641 13.7667C7.86641 13.775 7.91641 13.7917 7.96641 13.8167C8.01641 13.8333 8.06641 13.8584 8.11641 13.8917C8.15808 13.925 8.19974 13.9584 8.24141 13.9917C8.39141 14.15 8.48308 14.3667 8.48308 14.5833C8.48308 14.8 8.39141 15.0167 8.24141 15.175C8.19974 15.2083 8.15808 15.25 8.11641 15.275C8.06641 15.3083 8.01641 15.3334 7.96641 15.35C7.91641 15.375 7.86641 15.3917 7.81641 15.4C7.75808 15.4084 7.70808 15.4167 7.64974 15.4167Z" fill="#3A643B"/>
<path d="M10.5657 15.4141C10.3491 15.4141 10.1324 15.3224 9.97409 15.1724C9.82409 15.014 9.73242 14.7974 9.73242 14.5807C9.73242 14.3641 9.82409 14.1474 9.97409 13.9891C10.2824 13.6807 10.8491 13.6807 11.1574 13.9891C11.3074 14.1474 11.3991 14.3641 11.3991 14.5807C11.3991 14.7974 11.3074 15.014 11.1574 15.1724C10.9991 15.3224 10.7824 15.4141 10.5657 15.4141Z" fill="#3A643B"/>
<path d="M13.4837 15.4141C13.2671 15.4141 13.0504 15.3224 12.8921 15.1724C12.7421 15.014 12.6504 14.7974 12.6504 14.5807C12.6504 14.3641 12.7421 14.1474 12.8921 13.9891C13.2004 13.6807 13.7671 13.6807 14.0754 13.9891C14.2254 14.1474 14.3171 14.3641 14.3171 14.5807C14.3171 14.7974 14.2254 15.014 14.0754 15.1724C13.9171 15.3224 13.7004 15.4141 13.4837 15.4141Z" fill="#3A643B"/>
</svg>
