<svg width="29" fill="#B4D3B4" height="29" viewBox="0 0 29 29" fill="none" xmlns="http://www.w3.org/2000/svg">
<g id="bi:question">
<path id="Vector" d="M9.5248 10.4871C9.52232 10.5457 9.53184 10.6041 9.55277 10.6588C9.5737 10.7135 9.6056 10.7634 9.64652 10.8053C9.68743 10.8472 9.73649 10.8804 9.79068 10.9026C9.84487 10.9249 9.90304 10.9359 9.96161 10.9348H11.4569C11.707 10.9348 11.9064 10.73 11.939 10.4817C12.1022 9.29269 12.9178 8.42631 14.3714 8.42631C15.6148 8.42631 16.753 9.048 16.753 10.5433C16.753 11.6942 16.0752 12.2235 15.004 13.0282C13.7842 13.9146 12.8181 14.9495 12.887 16.6297L12.8924 17.023C12.8943 17.1419 12.9429 17.2553 13.0277 17.3387C13.1124 17.4221 13.2266 17.4689 13.3455 17.4689H14.8155C14.9357 17.4689 15.0509 17.4211 15.1359 17.3362C15.2209 17.2512 15.2686 17.1359 15.2686 17.0157V16.8254C15.2686 15.5241 15.7634 15.1452 17.0992 14.1321C18.203 13.2929 19.354 12.3612 19.354 10.4056C19.354 7.66688 17.0412 6.34375 14.5092 6.34375C12.2127 6.34375 9.69699 7.41312 9.5248 10.4871ZM12.3469 20.9326C12.3469 21.8986 13.1172 22.6127 14.1775 22.6127C15.2813 22.6127 16.0407 21.8986 16.0407 20.9326C16.0407 19.9321 15.2795 19.2288 14.1757 19.2288C13.1172 19.2288 12.3469 19.9321 12.3469 20.9326Z" />
</g>
</svg>
