<svg width="22" height="22" fill="#9DB29D" viewBox="0 0 22 22"  xmlns="http://www.w3.org/2000/svg">
<g id="Group">
<path id="Vector" fill-rule="evenodd" clip-rule="evenodd" d="M20.2617 7.23999L14.7703 1.74862C14.5179 1.49617 14.1844 1.36879 13.8486 1.36879C13.515 1.36879 13.1792 1.49617 12.9268 1.74862C12.6743 2.00107 12.5469 2.33458 12.5469 2.67041C12.5469 2.99929 12.6697 3.32817 12.9152 3.58062L12.9268 3.5922L18.1564 8.82186L18.4181 9.08357C18.6706 9.33602 19.0041 9.4634 19.3399 9.4634C19.6734 9.4634 20.0093 9.33602 20.2617 9.08357C20.5142 8.83112 20.6416 8.49761 20.6416 8.16178C20.6392 7.82827 20.5142 7.49244 20.2617 7.23999ZM7.98662 14.9918L0.975924 22.0025L0.0078125 21.0344L7.01851 14.0237L2.6319 9.63711L2.14785 9.15305L2.6319 8.669C3.28271 8.01818 4.16513 7.69625 5.16798 7.67541C5.99713 7.65688 6.91197 7.84911 7.8384 8.23358L11.7479 4.32408C11.3681 3.84234 11.1758 3.25637 11.1758 2.67041C11.1758 1.98486 11.4352 1.30162 11.9563 0.780511C12.4775 0.259398 13.163 0 13.8462 0C14.5318 0 15.215 0.259398 15.7361 0.780511L21.2275 6.27188C21.7486 6.79299 22.008 7.47623 22.008 8.16178C22.008 8.84733 21.7486 9.53057 21.2275 10.0517C20.7064 10.5728 20.0232 10.8322 19.3376 10.8322C18.7516 10.8322 18.1657 10.6423 17.6839 10.2624L13.7768 14.1696C14.1612 15.0984 14.3535 16.0132 14.3349 16.84C14.3141 17.8429 13.9922 18.7276 13.3413 19.3761L12.8573 19.8602L12.3732 19.3761L7.98662 14.9918ZM12.7044 5.30608L16.7043 9.30591L12.4775 13.5327L12.137 13.8732L12.3454 14.3109C12.7693 15.198 12.9847 16.0642 12.9685 16.8146C12.9615 17.1898 12.892 17.5325 12.7623 17.8313L8.47068 13.5397L4.17671 9.24569C4.47548 9.11368 4.81826 9.04651 5.19346 9.03956C5.94386 9.02335 6.81007 9.23875 7.69712 9.66258L8.13485 9.87103L8.47531 9.53057L12.7044 5.30608Z" />
</g>
</svg>
