<svg width="15" height="14" viewBox="0 0 15 14" fill="none" xmlns="http://www.w3.org/2000/svg">
<g clip-path="url(#clip0_2_19331)">
<path d="M13.625 1.31138L10.2219 1.31139C10.1667 1.31139 10.1219 1.26662 10.1219 1.21139V0.439453C10.1219 0.197734 9.92616 0.00195312 9.68444 0.00195312C9.44272 0.00195312 9.24694 0.197734 9.24694 0.439453V1.21117C9.24694 1.2664 9.20217 1.31117 9.14694 1.31117H5.84694C5.79171 1.31117 5.74694 1.2664 5.74694 1.21117V0.439453C5.74694 0.197734 5.55116 0.00195312 5.30944 0.00195312C5.06772 0.00195312 4.87194 0.197734 4.87194 0.439453V1.21117C4.87194 1.2664 4.82717 1.31117 4.77194 1.31117H1.375C0.891781 1.31117 0.5 1.70295 0.5 2.18617V13.1237C0.5 13.6069 0.891781 13.9987 1.375 13.9987H13.625C14.1082 13.9987 14.5 13.6069 14.5 13.1237V2.18617C14.5 1.70316 14.1082 1.31138 13.625 1.31138ZM13.625 13.0237C13.625 13.0789 13.5802 13.1237 13.525 13.1237H1.475C1.41977 13.1237 1.375 13.0789 1.375 13.0237V2.28617C1.375 2.23094 1.41977 2.18617 1.475 2.18617H4.77194C4.82717 2.18617 4.87194 2.23094 4.87194 2.28617V2.62695C4.87194 2.86866 5.06772 3.06445 5.30944 3.06445C5.55116 3.06445 5.74694 2.86866 5.74694 2.62695V2.28639C5.74694 2.23116 5.79171 2.18639 5.84694 2.18639H9.14694C9.20217 2.18639 9.24694 2.23116 9.24694 2.28639V2.62717C9.24694 2.86889 9.44272 3.06467 9.68444 3.06467C9.92616 3.06467 10.1219 2.86889 10.1219 2.62717V2.28639C10.1219 2.23116 10.1667 2.18639 10.2219 2.18639H13.525C13.5802 2.18639 13.625 2.23116 13.625 2.28639V13.0237ZM10.5625 6.99888H11.4375C11.679 6.99888 11.875 6.80288 11.875 6.56138V5.68638C11.875 5.44488 11.679 5.24888 11.4375 5.24888H10.5625C10.321 5.24888 10.125 5.44488 10.125 5.68638V6.56138C10.125 6.80288 10.321 6.99888 10.5625 6.99888ZM10.5625 10.4987H11.4375C11.679 10.4987 11.875 10.3029 11.875 10.0612V9.18616C11.875 8.94466 11.679 8.74866 11.4375 8.74866H10.5625C10.321 8.74866 10.125 8.94466 10.125 9.18616V10.0612C10.125 10.3031 10.321 10.4987 10.5625 10.4987ZM7.9375 8.74866H7.0625C6.821 8.74866 6.625 8.94466 6.625 9.18616V10.0612C6.625 10.3029 6.821 10.4987 7.0625 10.4987H7.9375C8.179 10.4987 8.375 10.3029 8.375 10.0612V9.18616C8.375 8.94488 8.179 8.74866 7.9375 8.74866ZM7.9375 5.24888H7.0625C6.821 5.24888 6.625 5.44488 6.625 5.68638V6.56138C6.625 6.80288 6.821 6.99888 7.0625 6.99888H7.9375C8.179 6.99888 8.375 6.80288 8.375 6.56138V5.68638C8.375 5.44466 8.179 5.24888 7.9375 5.24888ZM4.4375 5.24888H3.5625C3.321 5.24888 3.125 5.44488 3.125 5.68638V6.56138C3.125 6.80288 3.321 6.99888 3.5625 6.99888H4.4375C4.679 6.99888 4.875 6.80288 4.875 6.56138V5.68638C4.875 5.44466 4.679 5.24888 4.4375 5.24888ZM4.4375 8.74866H3.5625C3.321 8.74866 3.125 8.94466 3.125 9.18616V10.0612C3.125 10.3029 3.321 10.4987 3.5625 10.4987H4.4375C4.679 10.4987 4.875 10.3029 4.875 10.0612V9.18616C4.875 8.94488 4.679 8.74866 4.4375 8.74866Z" fill="#3A643B"/>
</g>
<defs>
<clipPath id="clip0_2_19331">
<rect width="14" height="14" fill="white" transform="translate(0.5)"/>
</clipPath>
</defs>
</svg>
