<svg width="22" height="21" viewBox="0 0 22 21" fill="none" xmlns="http://www.w3.org/2000/svg">
<g id="menu-icon-03.svg">
<path id="Vector" opacity="0.4" d="M15.9053 6.79875C15.8441 6.79 15.7828 6.79 15.7216 6.79875C14.3653 6.755 13.2891 5.64375 13.2891 4.27875C13.2891 2.8875 14.4178 1.75 15.8178 1.75C17.2091 1.75 18.3466 2.87875 18.3466 4.27875C18.3378 5.64375 17.2616 6.755 15.9053 6.79875Z" fill="#74B785"/>
<path id="Vector_2" opacity="0.4" d="M18.7561 12.8638C17.7761 13.5201 16.4023 13.7651 15.1336 13.5988C15.4661 12.8813 15.6411 12.0851 15.6498 11.2451C15.6498 10.3701 15.4573 9.53883 15.0898 8.81258C16.3848 8.63758 17.7586 8.88257 18.7473 9.53882C20.1298 10.4488 20.1298 11.9451 18.7561 12.8638Z" fill="#74B785"/>
<path id="Vector_3" opacity="0.4" d="M6.20297 6.79875C6.26422 6.79 6.32547 6.79 6.38672 6.79875C7.74297 6.755 8.81922 5.64375 8.81922 4.27875C8.81922 2.8875 7.69047 1.75 6.29047 1.75C4.89922 1.75 3.76172 2.87875 3.76172 4.27875C3.77047 5.64375 4.84672 6.755 6.20297 6.79875Z" fill="#74B785"/>
<path id="Vector_4" opacity="0.4" d="M6.29813 11.2452C6.29813 12.094 6.48188 12.899 6.81438 13.6252C5.58063 13.7565 4.29437 13.494 3.34938 12.8727C1.96687 11.954 1.96687 10.4577 3.34938 9.53899C4.28562 8.90899 5.60688 8.65525 6.84938 8.79525C6.49063 9.53025 6.29813 10.3615 6.29813 11.2452Z" fill="#74B785"/>
<path id="Vector_5" d="M11.1706 13.8862C11.1006 13.8775 11.0219 13.8775 10.9431 13.8862C9.33313 13.8337 8.04688 12.5125 8.04688 10.885C8.04688 9.2225 9.38563 7.875 11.0569 7.875C12.7194 7.875 14.0669 9.2225 14.0669 10.885C14.0669 12.5125 12.7894 13.8337 11.1706 13.8862Z" fill="#3A643B"/>
<path id="Vector_6" d="M8.32687 15.7C7.00563 16.5837 7.00563 18.0362 8.32687 18.9112C9.83187 19.9175 12.2993 19.9175 13.8043 18.9112C15.1256 18.0275 15.1256 16.575 13.8043 15.7C12.3081 14.6937 9.84062 14.6937 8.32687 15.7Z" fill="#3A643B"/>
</g>
</svg>
