<svg width="21" height="20" viewBox="0 0 21 20" fill="none" xmlns="http://www.w3.org/2000/svg">
<g clip-path="url(#clip0_2_18577)">
<g clip-path="url(#clip1_2_18577)">
<path opacity="0.4" d="M2 11.3245V6.2415C2 3.8955 3.904 2 6.24999 2H14.75C17.096 2 19 3.8955 19 6.2415V12.1745C19 14.512 17.096 16.4075 14.75 16.4075H13.475C13.2115 16.4075 12.9565 16.535 12.7949 16.7475L11.5199 18.4389C10.9589 19.187 10.0409 19.187 9.47998 18.4389L8.20498 16.7475C8.06899 16.5605 7.76299 16.4075 7.52498 16.4075H6.24999C3.904 16.4075 2 14.512 2 12.1745V11.3245Z" fill="#BCCAC1"/>
<path d="M10.9999 10C10.44 10 10 9.55 10 9C10 8.45 10.45 8 10.9999 8C11.55 8 12 8.45 12 9C12 9.55 11.56 10 10.9999 10Z" fill="#3A643B"/>
<path d="M14 10C13.4399 10 13 9.55 13 9C13 8.45 13.45 8 14 8C14.55 8 15 8.45 15 9C15 9.55 14.5601 10 14 10Z" fill="#3A643B"/>
<path d="M7.00001 10C6.44 10 6 9.55 6 9C6 8.45 6.45 8 7.00001 8C7.55 8 8 8.45 8 9C8 9.55 7.56 10 7.00001 10Z" fill="#3A643B"/>
</g>
</g>
<defs>
<clipPath id="clip0_2_18577">
<rect width="21" height="20" fill="white"/>
</clipPath>
<clipPath id="clip1_2_18577">
<rect width="21" height="20" fill="white"/>
</clipPath>
</defs>
</svg>
