<svg width="20" height="20" viewBox="0 0 20 20" fill="none" xmlns="http://www.w3.org/2000/svg">
<g id="ci:paperclip-attechment-tilt">
<path id="Vector" d="M3.78125 9.55452L9.52625 3.80869C9.93169 3.39865 10.4142 3.0728 10.946 2.84989C11.4778 2.62698 12.0484 2.51139 12.6251 2.50978C13.2017 2.50817 13.773 2.62057 14.306 2.84052C14.839 3.06046 15.3233 3.38361 15.7311 3.79138C16.1388 4.19915 16.4619 4.6835 16.6817 5.21657C16.9016 5.74965 17.0139 6.32092 17.0122 6.89756C17.0106 7.47419 16.8949 8.04481 16.6719 8.57658C16.4489 9.10836 16.123 9.59081 15.7129 9.99619L9.08458 16.6254C8.53757 17.1724 7.79567 17.4797 7.02208 17.4797C6.2485 17.4797 5.50659 17.1724 4.95958 16.6254C4.41257 16.0783 4.10527 15.3364 4.10527 14.5629C4.10527 13.7893 4.41257 13.0474 4.95958 12.5004L11.5896 5.87202C11.8654 5.61051 12.2324 5.467 12.6124 5.47205C12.9924 5.4771 13.3555 5.63031 13.6242 5.89906C13.893 6.1678 14.0462 6.53085 14.0512 6.91088C14.0563 7.29091 13.9128 7.6579 13.6512 7.93369L7.90542 13.6787" stroke="#3A643B" stroke-width="2" stroke-linecap="round" stroke-linejoin="round"/>
</g>
</svg>
