<svg width="23" stroke="#9DB29D" height="23" viewBox="0 0 23 23" fill="none" xmlns="http://www.w3.org/2000/svg">
<g id="Layer_1" clip-path="url(#clip0_613_7075)">
<path id="Vector" d="M7.25 12.5427C7.54782 15.1782 8.87311 16.5183 11.5237 17.8286C14.1147 16.7268 15.5443 15.4611 15.7974 12.5427"  stroke-width="1.48904" stroke-linecap="round" stroke-linejoin="round"/>
<path id="Vector_2" d="M20.3966 16.0898C20.8284 15.2857 21.1858 14.4519 21.424 13.6032C22.0048 11.5633 21.6772 9.6127 20.7688 7.97482C19.7265 6.1136 18.1331 4.87775 15.8102 4.86286H13.9041L12.6682 7.31967L10.7174 1.3042L9.04966 4.86286H7.24786C4.64194 5.02665 3.33154 6.1136 2.28918 7.97482C1.38083 9.6127 1.05323 11.5633 1.63397 13.6032C2.17005 15.4942 3.27198 17.2958 4.44836 18.7699C5.01422 19.4846 5.65453 20.1249 6.32462 20.7205C6.47353 20.8545 6.93515 21.197 7.38188 21.5096C8.02219 21.9712 8.76673 22.2095 9.52617 22.2095H9.79421C10.7472 22.2095 11.5216 21.3607 11.5216 20.3036V18.2488"  stroke-width="1.48904" stroke-linecap="round" stroke-linejoin="round"/>
<path id="Vector_3" d="M7.24911 12.5261C8.04684 12.5261 8.69353 11.8794 8.69353 11.0818C8.69353 10.2841 8.04684 9.63745 7.24911 9.63745C6.45138 9.63745 5.80469 10.2841 5.80469 11.0818C5.80469 11.8794 6.45138 12.5261 7.24911 12.5261Z"  stroke-width="1.48904" stroke-linecap="round" stroke-linejoin="round"/>
<path id="Vector_4" d="M15.796 12.5261C16.5937 12.5261 17.2404 11.8794 17.2404 11.0818C17.2404 10.2841 16.5937 9.63745 15.796 9.63745C14.9983 9.63745 14.3516 10.2841 14.3516 11.0818C14.3516 11.8794 14.9983 12.5261 15.796 12.5261Z"  stroke-width="1.48904" stroke-linecap="round" stroke-linejoin="round"/>
<path id="Vector_5" d="M19.1799 19.7771C20.3149 19.7771 21.2349 18.8571 21.2349 17.7223C21.2349 16.5874 20.3149 15.6675 19.1799 15.6675C18.045 15.6675 17.125 16.5874 17.125 17.7223C17.125 18.8571 18.045 19.7771 19.1799 19.7771Z"  stroke-width="1.48904" stroke-linecap="round" stroke-linejoin="round"/>
</g>
<defs>
<clipPath id="clip0_613_7075">
<rect width="21.8748" height="22.3793" fill="white" transform="translate(0.59375 0.55542)"/>
</clipPath>
</defs>
</svg>
