<svg width="16" height="22" viewBox="0 0 16 22" fill="none" xmlns="http://www.w3.org/2000/svg">
<path id="Vector" d="M4.87297 1.00006C4.24584 1.00006 3.73386 1.51204 3.73386 2.13917V4.64521H2.13911C1.51198 4.64521 1 5.15719 1 5.78432V19.4536C1 20.0807 1.51198 20.5927 2.13911 20.5927H11.252C11.8791 20.5927 12.3911 20.0807 12.3911 19.4536V16.9476H13.9858C14.613 16.9476 15.1249 16.4356 15.1249 15.8085V5.32867C15.1256 5.29849 15.1203 5.26848 15.1093 5.24037C15.0983 5.21226 15.0819 5.18661 15.0609 5.16493L10.9601 1.06414C10.9384 1.04314 10.9127 1.02667 10.8846 1.01567C10.8565 1.00467 10.8265 0.999362 10.7963 1.00006H4.87297ZM4.87297 1.4557H10.5685V5.32867C10.5685 5.38909 10.5925 5.44704 10.6352 5.48976C10.678 5.53248 10.7359 5.55649 10.7963 5.55649H14.6693V15.8085C14.6693 16.191 14.3684 16.4919 13.9858 16.4919H4.87297C4.49039 16.4919 4.1895 16.191 4.1895 15.8085V2.13917C4.1895 1.75659 4.49039 1.4557 4.87297 1.4557ZM11.0242 1.7832L14.3418 5.10085H11.0242V1.7832ZM2.13911 5.10085H3.73386V15.8085C3.73386 16.4356 4.24584 16.9476 4.87297 16.9476H11.9354V19.4536C11.9354 19.8362 11.6346 20.1371 11.252 20.1371H2.13911C1.75653 20.1371 1.45564 19.8362 1.45564 19.4536V5.78432C1.45564 5.40173 1.75653 5.10085 2.13911 5.10085Z" fill="black" stroke="#3A643B" stroke-width="0.941667"/>
</svg>
