<svg width="143" height="141" viewBox="0 0 143 141" fill="none" xmlns="http://www.w3.org/2000/svg">
<mask id="path-1-inside-1_2_24491" fill="white">
<path d="M143 70.5C143 109.436 110.988 141 71.5 141C32.0116 141 0 109.436 0 70.5C0 31.5639 32.0116 0 71.5 0C110.988 0 143 31.5639 143 70.5ZM17.2859 70.5C17.2859 100.023 41.5584 123.956 71.5 123.956C101.442 123.956 125.714 100.023 125.714 70.5C125.714 40.9772 101.442 17.0442 71.5 17.0442C41.5584 17.0442 17.2859 40.9772 17.2859 70.5Z"/>
</mask>
<path d="M143 70.5C143 109.436 110.988 141 71.5 141C32.0116 141 0 109.436 0 70.5C0 31.5639 32.0116 0 71.5 0C110.988 0 143 31.5639 143 70.5ZM17.2859 70.5C17.2859 100.023 41.5584 123.956 71.5 123.956C101.442 123.956 125.714 100.023 125.714 70.5C125.714 40.9772 101.442 17.0442 71.5 17.0442C41.5584 17.0442 17.2859 40.9772 17.2859 70.5Z" fill="#C8E5E1" fill-opacity="0.55" stroke="#C7DCDA" stroke-width="2" mask="url(#path-1-inside-1_2_24491)"/>
<path d="M141.735 140.788C141.735 140.833 111.861 140.872 75.0173 140.872C38.174 140.872 8.29297 140.843 8.29297 140.788C8.29297 140.732 38.1616 140.703 75.0173 140.703C111.873 140.703 141.735 140.742 141.735 140.788Z" fill="#263238"/>
<path d="M99.0138 140.538L48.0314 140.33C48.015 140.221 47.9925 140.071 47.9649 139.884C47.9023 139.462 47.8131 138.853 47.7066 138.108C47.4935 136.617 47.2111 134.581 46.9337 132.396C46.3777 128.017 45.8462 123.073 45.9259 120.724L99.0138 140.538ZM99.0138 140.538L89.488 100.482L73.4861 96.764L55.0703 100.733C55.0562 100.743 55.0384 100.756 55.0171 100.772C54.9549 100.818 54.8625 100.888 54.7441 100.983C54.5074 101.172 54.1667 101.46 53.7555 101.849C52.933 102.629 51.8288 103.816 50.7088 105.442C48.4699 108.692 46.1657 113.701 45.9259 120.724L99.0138 140.538Z" fill="white" stroke="#D4D4D4" stroke-width="0.5"/>
<path d="M74.6431 111.004L67.625 140.668L85.1671 140.788L74.6431 111.004Z" fill="#263238"/>
<path d="M74.3796 104.58C74.435 104.9 74.4661 105.225 74.4726 105.55C74.5128 106.202 74.5624 107.006 74.6181 107.897C74.6739 108.788 74.7049 109.645 74.7172 110.244C74.7382 110.57 74.7309 110.896 74.6956 111.22C74.6402 110.9 74.6092 110.576 74.6026 110.251C74.5624 109.601 74.5128 108.795 74.4571 107.906C74.4013 107.018 74.3704 106.159 74.3611 105.556C74.3383 105.231 74.3445 104.904 74.3796 104.58Z" fill="#263238"/>
<path d="M77.5593 107.85C77.5593 107.866 77.4447 107.891 77.2496 108.001C76.9939 108.156 76.79 108.386 76.6642 108.66C76.5669 108.856 76.5214 109.076 76.5323 109.295C76.5431 109.515 76.6099 109.729 76.7262 109.915C76.8592 110.148 77.0589 110.335 77.2989 110.45C77.5389 110.566 77.8079 110.605 78.0703 110.563C78.3327 110.52 78.5763 110.398 78.7687 110.212C78.9612 110.027 79.0935 109.786 79.1481 109.523C79.2029 109.312 79.2031 109.09 79.1489 108.879C79.0947 108.668 78.9877 108.475 78.8384 108.318C78.6351 108.096 78.3707 107.942 78.0796 107.875C77.8752 107.828 77.7699 107.841 77.7513 107.825C77.7327 107.809 77.7823 107.825 77.838 107.806C77.9223 107.794 78.0078 107.794 78.092 107.806C78.4058 107.852 78.6961 108.001 78.9189 108.23C79.0762 108.387 79.1968 108.578 79.272 108.788C79.3551 109.035 79.367 109.301 79.3061 109.554C79.2458 109.848 79.0988 110.116 78.8845 110.323C78.6702 110.53 78.3988 110.666 78.1064 110.713C77.814 110.76 77.5143 110.716 77.2473 110.586C76.9803 110.456 76.7586 110.247 76.6116 109.987C76.4766 109.766 76.4068 109.51 76.4103 109.25C76.4193 109.031 76.4753 108.817 76.5744 108.622C76.7163 108.334 76.9467 108.1 77.231 107.957C77.3061 107.917 77.3864 107.888 77.4695 107.872C77.5283 107.847 77.5562 107.844 77.5593 107.85Z" fill="#263238"/>
<path d="M83.1706 124.048C83.1706 124.048 83.056 124.092 82.8609 124.199C82.6062 124.354 82.4034 124.584 82.2786 124.858C82.1813 125.054 82.1358 125.274 82.1467 125.493C82.1575 125.713 82.2243 125.927 82.3406 126.113C82.4736 126.346 82.6733 126.533 82.9133 126.648C83.1533 126.764 83.4223 126.803 83.6847 126.761C83.9471 126.718 84.1907 126.596 84.3831 126.41C84.5755 126.225 84.7078 125.984 84.7625 125.721C84.817 125.51 84.8171 125.288 84.7629 125.077C84.7086 124.866 84.6019 124.673 84.4528 124.516C84.2505 124.294 83.9872 124.14 83.6971 124.073C83.4896 124.026 83.3688 124.039 83.3688 124.023C83.3961 124.011 83.4257 124.004 83.4555 124.004C83.5388 123.993 83.6231 123.993 83.7064 124.004C84.0215 124.051 84.3129 124.201 84.5364 124.431C84.6934 124.586 84.8131 124.776 84.8864 124.986C84.9726 125.232 84.9844 125.499 84.9205 125.752C84.8625 126.047 84.7168 126.317 84.5028 126.526C84.2888 126.734 84.0169 126.871 83.7236 126.918C83.4304 126.966 83.13 126.921 82.8627 126.789C82.5955 126.658 82.3744 126.447 82.2291 126.185C82.0913 125.965 82.0212 125.708 82.0278 125.448C82.0354 125.229 82.0915 125.014 82.1919 124.82C82.3338 124.532 82.5642 124.298 82.8485 124.155C82.924 124.116 83.0042 124.087 83.087 124.07C83.1137 124.059 83.1418 124.051 83.1706 124.048Z" fill="#263238"/>
<path d="M64.9554 112.285C64.9231 112.335 64.8857 112.381 64.8439 112.423C64.7696 112.511 64.6581 112.64 64.5063 112.8C64.0719 113.249 63.6084 113.668 63.1188 114.055C61.4885 115.321 59.6083 116.217 57.6059 116.682C56.5066 116.949 55.373 117.042 54.2456 116.958C53.3157 116.89 52.4222 116.564 51.6626 116.016C51.1552 115.641 50.7477 115.144 50.4764 114.57C50.4082 114.413 50.3523 114.252 50.3091 114.086C50.2916 114.029 50.2823 113.97 50.2812 113.911C50.2967 113.911 50.3432 114.149 50.5352 114.538C50.8197 115.087 51.2295 115.56 51.7307 115.916C52.4792 116.437 53.3518 116.746 54.2579 116.81C55.3706 116.882 56.4876 116.785 57.5719 116.522C59.5534 116.061 61.419 115.189 63.0507 113.961C63.5422 113.587 64.0127 113.186 64.4599 112.759L64.8222 112.404C64.9058 112.32 64.9492 112.285 64.9554 112.285Z" fill="#263238"/>
<path d="M64.9554 115.223C64.9231 115.273 64.8857 115.319 64.8439 115.361C64.7696 115.449 64.6581 115.58 64.5063 115.74C62.6226 117.679 60.2265 119.025 57.6059 119.616C56.5067 119.884 55.3732 119.978 54.2456 119.895C53.316 119.826 52.4229 119.5 51.6626 118.954C51.1548 118.58 50.7471 118.084 50.4764 117.51C50.4077 117.353 50.3517 117.19 50.3091 117.024C50.2913 116.967 50.2819 116.908 50.2812 116.848C50.2967 116.848 50.3432 117.087 50.5352 117.476C50.8195 118.026 51.2293 118.499 51.7307 118.857C52.4795 119.377 53.3521 119.685 54.2579 119.748C55.3706 119.821 56.4878 119.724 57.5719 119.459C59.5527 118.998 61.418 118.128 63.0507 116.902C63.5424 116.527 64.0128 116.125 64.4599 115.697L64.8222 115.342C64.8618 115.297 64.9066 115.257 64.9554 115.223Z" fill="#263238"/>
<path d="M65.4104 114.334C65.4215 114.375 65.4288 114.417 65.4321 114.46C65.4321 114.551 65.4538 114.676 65.4723 114.833C65.5095 115.172 65.5622 115.655 65.6272 116.273C65.7573 117.529 66.0051 119.327 66.1166 121.577C66.1802 122.804 66.1543 124.034 66.0391 125.258C65.9123 126.667 65.5998 128.053 65.11 129.378C64.57 130.852 63.7143 132.186 62.6044 133.285C62.0153 133.863 61.3529 134.359 60.6347 134.76C59.8916 135.17 59.0886 135.457 58.2561 135.61C56.5959 135.884 54.8935 135.564 53.44 134.707C52.0846 133.928 50.9423 132.819 50.1168 131.481C49.389 130.271 48.8656 128.946 48.5683 127.561C48.3036 126.357 48.1604 125.129 48.1409 123.896C48.1343 122.118 48.2585 120.342 48.5125 118.583C48.6023 117.955 48.6705 117.485 48.7169 117.149C48.7417 116.992 48.7634 116.87 48.7758 116.775C48.7815 116.733 48.7908 116.691 48.8037 116.65C48.8078 116.693 48.8078 116.736 48.8037 116.779C48.8037 116.873 48.7789 116.995 48.7603 117.152C48.72 117.491 48.6612 117.974 48.5838 118.589C48.3574 120.347 48.2539 122.12 48.2741 123.893C48.3002 125.115 48.4475 126.331 48.7138 127.523C49.0159 128.89 49.5392 130.196 50.2624 131.39C51.0715 132.707 52.1925 133.799 53.5237 134.565C54.9454 135.404 56.6107 135.716 58.2344 135.447C59.0501 135.3 59.8367 135.019 60.5634 134.616C61.2701 134.223 61.9221 133.736 62.5022 133.169C63.5979 132.088 64.444 130.776 64.9799 129.325C65.467 128.013 65.7794 126.641 65.909 125.245C66.0299 124.029 66.062 122.804 66.0051 121.583C65.909 119.339 65.6953 117.532 65.5684 116.28C65.5064 115.652 65.4662 115.166 65.4414 114.836C65.4414 114.679 65.4228 114.554 65.4166 114.46C65.4104 114.365 65.4104 114.334 65.4104 114.334Z" fill="#263238"/>
<g opacity="0.2">
<path d="M49.2944 129.877C49.8519 131.791 50.0904 132.287 51.1341 133.815C52.098 135.264 53.5085 136.347 55.1449 136.897C56.3148 137.306 57.5685 137.406 58.787 137.186C60.0055 136.966 61.1484 136.435 62.1072 135.642C63.9996 134.038 64.6685 131.562 64.9968 129.883C64.173 131.007 63.2965 132.604 62.259 133.53C61.2215 134.455 59.8494 135.265 58.4805 135.507C56.6222 135.821 54.4078 135.256 52.819 134.233C51.2301 133.21 50.27 131.377 49.2852 129.88" fill="black"/>
</g>
<g opacity="0.2">
<path d="M50.6211 117.703C50.9743 118.501 51.5139 119.2 52.1932 119.74C52.8725 120.279 53.6712 120.643 54.5204 120.8C56.1959 121.114 58.367 120.578 59.4138 118.983C55.7282 120.295 52.0644 120.327 50.6211 117.703Z" fill="black"/>
</g>
<path d="M80.9063 113.076C80.8274 113.089 80.7467 113.089 80.6678 113.076C80.458 113.046 80.2509 113 80.0484 112.938C78.6681 112.523 77.4845 111.612 76.719 110.377C76.6022 110.192 76.4987 109.999 76.4093 109.799C76.3504 109.655 76.3225 109.577 76.3349 109.57C76.3473 109.564 76.5022 109.865 76.8057 110.314C77.2053 110.893 77.6899 111.406 78.2428 111.836C78.7996 112.261 79.4181 112.595 80.0762 112.828C80.5811 112.988 80.9094 113.047 80.9063 113.076Z" fill="#263238"/>
<g opacity="0.2">
<path d="M76.6211 109.775C77.002 111.087 78.4391 112.311 79.7182 112.741C79.9684 112.835 80.2354 112.875 80.5018 112.857C80.6349 112.848 80.7644 112.809 80.8811 112.743C80.9977 112.678 81.0987 112.587 81.177 112.477C81.4464 112.06 81.2141 111.467 80.8177 111.172C80.3959 110.911 79.9257 110.741 79.4364 110.673C78.4484 110.441 77.5564 110.946 76.7388 110.105" fill="black"/>
</g>
<g opacity="0.2">
<path d="M49.2305 107.346C51.5409 109.393 54.8053 109.48 57.7444 108.602C60.6836 107.723 63.2449 106.069 65.7412 104.262C63.0188 104.811 60.696 106.069 57.9489 106.48C55.3256 106.873 52.597 106.913 50.0171 106.025" fill="black"/>
</g>
<path d="M93.5359 138.777C93.5187 138.792 93.4987 138.804 93.4771 138.812C93.418 138.844 93.357 138.872 93.2944 138.896C93.0536 138.995 92.8002 139.058 92.5418 139.085C91.5837 139.165 90.6279 138.906 89.838 138.35C88.8097 137.688 87.8744 136.574 86.874 135.338C85.8008 133.981 84.8366 132.539 83.9906 131.026C82.4553 128.274 81.2799 125.33 80.494 122.271C80.1843 121.097 80.0046 120.137 79.89 119.468C79.8405 119.155 79.8002 118.888 79.7692 118.7C79.7539 118.61 79.7436 118.52 79.7383 118.43C79.7682 118.515 79.7899 118.604 79.8033 118.693L79.952 119.456C80.0851 120.118 80.2927 121.075 80.6024 122.239C81.4184 125.278 82.6033 128.202 84.13 130.944C84.9732 132.45 85.93 133.887 86.9917 135.244C87.9797 136.48 88.9027 137.594 89.8999 138.253C90.6705 138.807 91.6046 139.079 92.548 139.022C92.8867 138.986 93.2191 138.904 93.5359 138.777Z" fill="#263238"/>
<g opacity="0.2">
<path d="M82.4023 127.197C82.4023 127.197 86.9737 133.022 90.3093 134.449C91.4397 134.936 92.6848 135.331 93.456 136.298C93.6487 136.519 93.7914 136.78 93.8743 137.063C93.9573 137.346 93.9783 137.644 93.936 137.936C93.9232 138.005 93.9024 138.072 93.8741 138.137C93.394 139.376 91.0867 139.204 90.0305 138.419C89.5691 138.077 89.8416 138.297 89.47 138.014C88.4015 137.198 82.6811 130.486 82.4023 127.197Z" fill="black"/>
</g>
<path d="M62.222 48.5868L65.1394 48L79.5689 48.1726L86.8998 49.8044L89.6965 91.2839L57.2852 92.8185L62.222 48.5868Z" fill="#4FBCB6"/>
<mask id="path-19-inside-2_2_24491" fill="white">
<path d="M83.2084 89.3768L83.899 70.5105L82.75 48.6348C87.309 49.8241 93.5435 51.1453 96.9967 55.1338C99.236 57.7227 101.432 61.0334 102.262 66.3651C103.216 72.6413 104.473 84.6446 105.26 91.3601"/>
</mask>
<path d="M83.2084 89.3768L83.899 70.5105L82.75 48.6348C87.309 49.8241 93.5435 51.1453 96.9967 55.1338C99.236 57.7227 101.432 61.0334 102.262 66.3651C103.216 72.6413 104.473 84.6446 105.26 91.3601" fill="white"/>
<path d="M83.899 70.5105L84.3987 70.5288L84.3995 70.5065L84.3983 70.4843L83.899 70.5105ZM82.75 48.6348L82.8762 48.151L82.2148 47.9784L82.2507 48.661L82.75 48.6348ZM96.9967 55.1338L97.3749 54.8067L97.3748 54.8065L96.9967 55.1338ZM102.262 66.3651L102.756 66.2899L102.756 66.2882L102.262 66.3651ZM83.708 89.3951L84.3987 70.5288L83.3994 70.4922L82.7087 89.3585L83.708 89.3951ZM84.3983 70.4843L83.2493 48.6085L82.2507 48.661L83.3997 70.5367L84.3983 70.4843ZM82.6238 49.1186C84.9214 49.718 87.5825 50.3368 90.1096 51.3017C92.6348 52.2658 94.9694 53.5561 96.6187 55.4611L97.3748 54.8065C95.5708 52.723 93.0615 51.3584 90.4664 50.3675C87.8732 49.3774 85.1376 48.7409 82.8762 48.151L82.6238 49.1186ZM96.6186 55.4609C98.816 58.0015 100.956 61.2286 101.768 66.442L102.756 66.2882C101.907 60.8383 99.6559 57.4439 97.3749 54.8067L96.6186 55.4609ZM101.768 66.4402C102.72 72.7052 103.975 84.6885 104.763 91.4183L105.756 91.3019C104.971 84.6006 103.712 72.5774 102.756 66.2899L101.768 66.4402Z" fill="#D4D4D4" mask="url(#path-19-inside-2_2_24491)"/>
<path d="M65.1353 89.9846L65.151 90.2623L65.4255 90.2171L87.6335 86.5627L91.5601 96.5932L57.7153 106.243C53.209 107.186 48.2148 106.022 45.0348 102.698L45.0348 102.698C43.6477 101.249 42.5965 99.5048 41.9578 97.592C41.3191 95.6792 41.1089 93.6462 41.3425 91.6408C42.1291 84.9229 43.4453 74.1693 44.2227 67.8932L44.2227 67.8929C44.6236 64.6219 45.908 61.231 47.4478 58.3041L47.448 58.3036C48.5317 56.2331 50.9003 53.84 53.8206 51.9284C56.6631 50.0677 59.9939 48.686 63.1147 48.4931L64.3423 75.9605L64.3423 75.9605L64.3425 75.9635L65.1353 89.9846Z" fill="white" stroke="#D4D4D4" stroke-width="0.5"/>
<path d="M85.4277 86.0304C85.4295 86.0037 85.4347 85.9773 85.4431 85.9519C85.4617 85.8955 85.4834 85.8201 85.5082 85.726C85.5732 85.5157 85.6599 85.2239 85.7745 84.8505C86.0161 84.0785 86.3599 82.9676 86.7873 81.5931L90.3025 70.4716L90.349 70.5689L86.7161 69.0469L86.5736 68.9873L86.7006 68.9026L87.5399 68.344L90.2808 66.5302L90.2499 66.6181C88.8562 61.7163 87.6297 57.392 86.747 54.2821C86.3165 52.7382 85.9696 51.4955 85.725 50.6294C85.6135 50.2057 85.5237 49.8762 85.4586 49.6409C85.4318 49.5384 85.4101 49.4536 85.3936 49.3867C85.3835 49.3584 85.3772 49.3288 85.375 49.2988C85.375 49.2988 85.375 49.3239 85.406 49.3804L85.4865 49.6346C85.5577 49.8668 85.6568 50.1932 85.7807 50.6137L86.8492 54.2508L90.4016 66.5741L90.4171 66.6306L90.3676 66.6651L87.6297 68.4821L86.7904 69.0375V68.8932L90.4202 70.4214L90.4883 70.4497L90.4667 70.5187C89.0358 74.9717 87.7877 78.8473 86.8957 81.6245C86.4466 82.999 86.0904 84.1005 85.8396 84.8662C85.7157 85.2365 85.6166 85.5283 85.5484 85.7354C85.5175 85.8264 85.4896 85.8986 85.471 85.9582C85.4594 85.9839 85.4448 86.0081 85.4277 86.0304Z" fill="#263238"/>
<g opacity="0.2">
<path d="M90.3798 66.6445C90.1969 67.3251 89.8014 67.9274 89.2524 68.3611C88.825 68.609 89.0697 68.9385 89.4227 69.2837C89.847 69.6979 90.5284 69.8109 90.8412 70.313C91.154 70.8151 90.9775 71.3894 90.8164 71.9166C89.2649 76.9183 87.3817 81.8081 85.1797 86.5527L90.3798 70.495L86.753 68.9793L90.3798 66.6445Z" fill="black"/>
</g>
<path d="M63.5207 86.4193C63.5054 86.3991 63.4929 86.377 63.4835 86.3534C63.4618 86.3032 63.4309 86.2404 63.3968 86.1588L63.0623 85.3931C62.7712 84.7153 62.3562 83.7393 61.8235 82.5217L57.6455 72.599L57.6207 72.5425L57.6733 72.5049L60.5382 70.4275V70.5467L58.6396 69.0216L57.7972 68.35L57.3791 68.0362L57.2769 67.9515C57.2554 67.936 57.2357 67.9181 57.2181 67.8981C57.1981 67.872 57.1834 67.8421 57.1747 67.8103C57.1519 67.7169 57.1404 67.621 57.1406 67.5247C57.1597 66.8225 57.2239 66.1223 57.3326 65.4285C57.5216 64.0697 57.7446 62.7642 57.9521 61.5215C58.3919 59.0393 58.8286 56.8143 59.1909 54.9315C59.5533 53.0486 59.8785 51.5517 60.0984 50.5099C60.2099 49.9952 60.2997 49.5936 60.3616 49.308L60.4329 48.9942C60.4382 48.9583 60.4486 48.9235 60.4638 48.8906C60.4621 48.9277 60.457 48.9644 60.4484 49.0005C60.4484 49.0789 60.4143 49.1825 60.3926 49.3143C60.3369 49.6009 60.2594 50.0026 60.1603 50.5193C59.9559 51.5737 59.6648 53.0863 59.3055 54.9503C58.9462 56.8143 58.525 59.0518 58.0914 61.5403C57.8777 62.7799 57.6578 64.0853 57.472 65.441C57.3653 66.1266 57.3022 66.8184 57.2831 67.5122C57.2823 67.5925 57.2917 67.6727 57.311 67.7507C57.311 67.7883 57.4008 67.8448 57.4658 67.9013L57.8808 68.2339L58.7202 68.9086L60.6156 70.4306L60.6992 70.4996L60.6125 70.5624L57.7446 72.6336L57.7693 72.5363L61.9226 82.4715C62.4274 83.6985 62.83 84.6682 63.1088 85.3617C63.242 85.6912 63.3473 85.9485 63.4185 86.1368L63.4928 86.3377C63.5044 86.364 63.5137 86.3913 63.5207 86.4193Z" fill="#263238"/>
<path d="M90.6118 72.8046L68.0346 69.2755C67.6271 69.2118 67.2459 69.4948 67.1831 69.9076L62.3136 101.889C62.2508 102.302 62.5301 102.688 62.9375 102.752L85.5148 106.281C85.9222 106.345 86.3034 106.062 86.3662 105.649L91.2357 73.6674C91.2985 73.2546 91.0192 72.8683 90.6118 72.8046Z" fill="#FF725E"/>
<g opacity="0.2">
<path d="M90.6157 72.8046L68.0385 69.2755C67.6311 69.2118 67.2498 69.4948 67.187 69.9076L62.3175 101.889C62.2547 102.302 62.534 102.688 62.9414 102.752L85.5187 106.281C85.9261 106.345 86.3073 106.062 86.3701 105.649L91.2396 73.6674C91.3024 73.2546 91.0231 72.8683 90.6157 72.8046Z" fill="black"/>
</g>
<path d="M89.8995 73.4222L68.5312 70.082L63.7865 101.245L85.1547 104.585L89.8995 73.4222Z" fill="#EBEBEB"/>
<path d="M83.4807 72.9105C83.3291 72.4363 83.0505 72.0141 82.6758 71.6911C82.3012 71.368 81.8454 71.1568 81.3591 71.081L81.5388 69.7473C81.6118 69.2642 81.4926 68.7716 81.2075 68.3774C80.9224 67.9832 80.4947 67.7198 80.0181 67.6448C79.5409 67.5699 79.0538 67.6902 78.6641 67.9792C78.2744 68.2681 78.0139 68.7021 77.9399 69.1856L77.7293 70.5663L77.271 70.5036C76.7901 70.4359 76.3001 70.5037 75.8548 70.6997C75.4096 70.8957 75.0262 71.2122 74.7468 71.6145L74.3906 72.1166L83.682 73.5727L83.4807 72.9105ZM79.6402 70.4753C79.4488 70.4457 79.2704 70.3592 79.1275 70.2268C78.9846 70.0943 78.8837 69.9219 78.8375 69.7313C78.7914 69.5408 78.8021 69.3406 78.8683 69.1562C78.9344 68.9718 79.0531 68.8114 79.2093 68.6954C79.3655 68.5794 79.5521 68.5129 79.7456 68.5044C79.939 68.4958 80.1306 68.5457 80.2962 68.6475C80.4617 68.7494 80.5936 68.8987 80.6753 69.0766C80.7571 69.2545 80.7849 69.453 80.7552 69.6469C80.7148 69.9061 80.5749 70.1385 80.3661 70.2937C80.1572 70.4489 79.8964 70.5142 79.6402 70.4753Z" fill="#263238"/>
<path d="M75.7713 75.7417C74.7948 75.6732 73.8229 75.5496 72.86 75.3714C71.8901 75.246 70.9276 75.0679 69.9766 74.8379C70.952 74.9064 71.9229 75.0301 72.8848 75.2082C73.8557 75.3334 74.8192 75.5114 75.7713 75.7417Z" fill="#263238"/>
<path d="M72.6178 76.263C72.1444 76.2735 71.6713 76.2271 71.2086 76.1249C70.7375 76.0788 70.2731 75.9788 69.8242 75.8268C70.2975 75.8201 70.7701 75.8664 71.2334 75.9649C71.7045 76.011 72.1689 76.111 72.6178 76.263Z" fill="#263238"/>
<path d="M85.8103 81.1506C85.8103 81.1945 82.1867 80.6642 77.7361 79.9707C73.2855 79.2771 69.6836 78.6715 69.6836 78.6276C69.6836 78.5836 73.3041 79.1108 77.7578 79.8075C82.2114 80.5042 85.8165 81.1035 85.8103 81.1506Z" fill="#263238"/>
<path d="M85.572 82.708C85.572 82.7519 81.9515 82.2247 77.4978 81.5281C73.0442 80.8314 69.4453 80.232 69.4453 80.1881C69.4453 80.1442 73.0658 80.6714 77.5195 81.368C81.9732 82.0647 85.5782 82.6641 85.572 82.708Z" fill="#263238"/>
<path d="M85.3376 84.2678C85.3376 84.3117 81.714 83.7814 77.2635 83.0879C72.8129 82.3943 69.2109 81.7887 69.2109 81.7447C69.2109 81.7008 72.8346 82.228 77.2882 82.9247C81.7419 83.6213 85.3438 84.2207 85.3376 84.2678Z" fill="#263238"/>
<path d="M85.0994 85.8248C85.0994 85.8687 81.4788 85.3415 77.0252 84.6448C72.5715 83.9482 68.9727 83.3488 68.9727 83.3017C68.9727 83.2546 72.5932 83.7881 77.0468 84.4848C81.5005 85.1814 85.1179 85.7808 85.0994 85.8248Z" fill="#263238"/>
<path d="M84.8611 87.3818C84.8611 87.4289 81.2405 86.8986 76.7869 86.2019C72.3332 85.5053 68.7344 84.9059 68.7344 84.8619C68.7344 84.818 72.3549 85.3452 76.8086 86.0419C81.2622 86.7385 84.8704 87.3379 84.8611 87.3818Z" fill="#263238"/>
<path d="M84.6228 88.94C84.6228 88.9839 80.9992 88.4567 76.5486 87.7601C72.098 87.0634 68.4961 86.464 68.4961 86.417C68.4961 86.3699 72.1166 86.9002 76.5703 87.5969C81.0239 88.2936 84.629 88.8961 84.6228 88.94Z" fill="#263238"/>
<path d="M76.3502 89.0847C76.2466 89.0901 76.1427 89.0837 76.0405 89.0659C75.833 89.0439 75.5388 89.0063 75.1733 88.9561C74.4393 88.8556 73.4296 88.7081 72.3177 88.5355C71.2059 88.363 70.1993 88.1935 69.4715 88.0648C69.106 88.0021 68.8149 87.9456 68.6105 87.9048C68.5041 87.892 68.3999 87.8646 68.3008 87.8232C68.4044 87.816 68.5085 87.8223 68.6105 87.842C68.818 87.864 69.1122 87.9016 69.4777 87.9519C70.2117 88.0491 71.2214 88.1998 72.3332 88.3724C73.4451 88.545 74.4517 88.7144 75.1795 88.8431C75.5449 88.9058 75.8361 88.9623 76.0405 89.0031C76.1469 89.0159 76.2511 89.0434 76.3502 89.0847Z" fill="#263238"/>
<path d="M87.1025 77.3697C86.6646 77.3831 86.2267 77.342 85.7986 77.2473C85.3624 77.2072 84.9327 77.1123 84.5195 76.9648C85.3936 76.9925 86.261 77.1285 87.1025 77.3697Z" fill="#263238"/>
<path d="M72.1639 91.9059C71.4567 91.8771 70.7527 91.7942 70.0578 91.658C69.3548 91.576 68.659 91.4396 67.9766 91.25C68.6837 91.2786 69.3878 91.3615 70.0826 91.4979C70.7855 91.5809 71.4812 91.7172 72.1639 91.9059Z" fill="#263238"/>
<path d="M72.0906 93.3442C71.3709 93.3132 70.6546 93.2283 69.9474 93.09C69.2327 93.0079 68.5254 92.8694 67.832 92.6758C68.5506 92.7067 69.266 92.7916 69.9721 92.93C70.6879 93.0118 71.3962 93.1503 72.0906 93.3442Z" fill="#263238"/>
<path d="M84.3427 93.5941C83.6566 93.5965 82.9743 93.4906 82.3203 93.2803C82.6638 93.2527 83.0095 93.2781 83.3455 93.3556C83.6884 93.3798 84.0253 93.4604 84.3427 93.5941Z" fill="#263238"/>
<path d="M84.2177 94.8783C83.5316 94.8807 82.8493 94.7748 82.1953 94.5645C82.8814 94.5621 83.5638 94.668 84.2177 94.8783Z" fill="#263238"/>
<path d="M69.9113 94.523C69.5793 94.5507 69.245 94.5264 68.9202 94.4508C68.5887 94.4257 68.2634 94.3462 67.957 94.2154C68.288 94.1856 68.6216 94.21 68.945 94.2876C69.2777 94.3117 69.6042 94.3913 69.9113 94.523Z" fill="#263238"/>
<path d="M84.0618 96.3755C83.8133 96.4167 83.5591 96.4049 83.3154 96.341C83.064 96.3283 82.8181 96.262 82.5938 96.1465C82.8418 96.1014 83.0966 96.1122 83.3402 96.1778C83.5919 96.1907 83.838 96.2581 84.0618 96.3755Z" fill="#263238"/>
<path d="M67.3164 97.5524C67.438 97.5414 67.5603 97.5414 67.6819 97.5524L68.7101 97.5837L72.3833 97.7312H72.4669L72.4483 97.8128C72.3563 98.2162 72.1285 98.5746 71.8041 98.8264C71.6323 98.9656 71.4315 99.0636 71.217 99.113C71.0025 99.1625 70.7797 99.1621 70.5653 99.112C70.3364 99.0582 70.124 98.9486 69.9464 98.7928C69.7688 98.6369 69.6315 98.4395 69.5463 98.2176C69.4682 97.9793 69.4625 97.7227 69.5299 97.481C69.5972 97.2394 69.7346 97.0237 69.9242 96.862C70.0633 96.7345 70.2314 96.644 70.4135 96.5984C70.4592 96.5865 70.5058 96.5791 70.5529 96.5764C70.6033 96.5701 70.6543 96.5701 70.7047 96.5764C70.7385 96.582 70.7705 96.5957 70.798 96.6165C70.8255 96.6372 70.8476 96.6644 70.8626 96.6957C70.8831 96.7496 70.8895 96.8079 70.8812 96.8651C70.8404 97.2164 70.7253 97.5547 70.5436 97.8567C70.3669 98.146 70.134 98.3958 69.8591 98.5911C69.5911 98.7948 69.2651 98.9049 68.93 98.9049C68.7685 98.8934 68.6134 98.8365 68.4821 98.7406C68.3508 98.6447 68.2485 98.5136 68.1867 98.362C68.0682 98.0858 68.0463 97.7769 68.1248 97.4865C68.3082 97.0025 68.6059 96.5715 68.9919 96.2312L69.0756 96.1465V96.2657C69.1251 96.6987 69.043 97.1366 68.8402 97.521C68.6894 97.8115 68.478 98.0653 68.2208 98.2647C68.0605 98.3905 67.8818 98.49 67.6912 98.5597C67.6257 98.5861 67.5569 98.603 67.4867 98.6099C67.7385 98.5169 67.9738 98.3833 68.1836 98.2145C68.4226 98.0124 68.6176 97.7624 68.7566 97.4802C68.9429 97.1085 69.0131 96.6882 68.9579 96.2751L69.057 96.3065C68.6907 96.6395 68.4091 97.0572 68.2363 97.5241C68.1687 97.7841 68.1905 98.0597 68.2982 98.3055C68.3497 98.4318 68.435 98.5409 68.5444 98.6208C68.6539 98.7006 68.7831 98.7479 68.9176 98.7574C69.2135 98.7542 69.5003 98.654 69.7353 98.4718C69.9971 98.2862 70.2172 98.0465 70.3811 97.7685C70.545 97.4905 70.6489 97.1805 70.6861 96.8588C70.693 96.831 70.693 96.8019 70.6861 96.7741C70.6861 96.7584 70.6861 96.7521 70.6427 96.7459C70.5677 96.7416 70.4925 96.749 70.4197 96.7678C70.2635 96.808 70.1191 96.8855 69.9985 96.9938C69.8347 97.1355 69.7158 97.3231 69.6569 97.533C69.5979 97.7429 69.6015 97.9658 69.6671 98.1737C69.7417 98.365 69.8596 98.5358 70.0113 98.6724C70.163 98.809 70.3443 98.9076 70.5405 98.9601C70.7368 99.0127 70.9425 99.0177 71.141 98.9749C71.3395 98.932 71.5253 98.8425 71.6833 98.7135C71.9829 98.4861 72.1944 98.1597 72.2811 97.7909L72.3461 97.8756L68.7039 97.6591L67.6757 97.59C67.5553 97.585 67.4353 97.5725 67.3164 97.5524Z" fill="#263238"/>
<path d="M82.6215 99.8897C82.5721 99.961 82.5126 100.024 82.4449 100.078C82.3655 100.147 82.2769 100.204 82.1817 100.247C82.0477 100.308 81.8966 100.315 81.7574 100.269C81.6695 100.242 81.5932 100.186 81.5406 100.109C81.4883 100.027 81.4584 99.9314 81.4538 99.8333C81.4564 99.6328 81.4709 99.4326 81.4972 99.2339C81.5375 98.8071 81.5839 98.3395 81.6335 97.8343L81.7666 97.8876L80.5835 99.51L80.2893 99.9117L80.0973 100.175L80.1438 99.8615C80.2707 99.0236 80.3853 98.2422 80.4875 97.555L80.6021 97.6178C80.119 98.0303 79.6911 98.5051 79.3292 99.0299C79.0691 99.4096 78.9452 99.6575 78.9297 99.6387C78.9449 99.5759 78.9688 99.5157 79.0009 99.4598C79.0804 99.2973 79.1683 99.1391 79.2642 98.986C79.6041 98.4358 80.0214 97.939 80.503 97.5111L80.6424 97.3887L80.6145 97.577C80.5216 98.2611 80.4101 99.0456 80.3048 99.8866L80.1592 99.8238L80.469 99.4222C80.8902 98.851 81.2897 98.305 81.6613 97.806L81.8255 97.5801L81.7945 97.8594C81.7357 98.3646 81.683 98.8322 81.6335 99.2559C81.6045 99.4482 81.5859 99.642 81.5777 99.8364C81.5727 99.9119 81.5916 99.987 81.6318 100.051C81.6719 100.115 81.7311 100.164 81.8007 100.191C81.9077 100.22 82.0202 100.222 82.1282 100.197C82.2363 100.172 82.3365 100.12 82.4201 100.047C82.4829 99.9889 82.5502 99.9364 82.6215 99.8897Z" fill="#263238"/>
<path d="M83.1672 99.0371C82.1563 99.1132 81.1421 99.1352 80.1289 99.103C79.1163 99.1256 78.1031 99.0942 77.0938 99.0089C78.1035 98.9307 79.1167 98.9077 80.1289 98.9398C81.1427 98.9171 82.1569 98.9496 83.1672 99.0371Z" fill="#263238"/>
<path d="M84.153 100.012C83.3519 100.181 82.5408 100.297 81.7249 100.36C80.9151 100.476 80.0989 100.538 79.2812 100.548C80.0817 100.375 80.893 100.257 81.7094 100.197C82.5189 100.079 83.3353 100.018 84.153 100.012Z" fill="#263238"/>
<g opacity="0.2">
<path d="M57.2228 67.7031C57.1856 68.6446 57.4365 69.6048 58.2108 70.1352C57.2414 70.6122 56.7242 71.7544 56.6932 72.8465C56.6622 73.9386 57.037 74.9992 57.4427 76.0128C58.697 79.129 61.3729 83.5161 63.4139 86.1709C63.4139 86.1709 62.3795 83.3466 62.0822 82.6845C60.738 79.7064 59.5518 76.722 58.2046 73.7346C58.0559 73.4208 57.7896 72.5044 57.7896 72.5044C57.9362 72.4312 58.0718 72.3372 58.1922 72.2251C58.9479 71.5975 60.5863 70.496 60.5863 70.496C60.5863 70.496 57.2228 67.7973 57.2228 67.7031Z" fill="black"/>
</g>
<path d="M57.1757 74.1035C57.219 74.1035 57.1416 77.728 56.9991 82.1936C56.8567 86.6591 56.708 90.2805 56.6647 90.2773C56.6213 90.2742 56.6956 86.656 56.8381 82.1873C56.9806 77.7186 57.1292 74.1004 57.1757 74.1035Z" fill="#263238"/>
<path d="M62.5089 64.5853H62.1992C62.1992 64.4661 62.6483 52.5946 62.9983 47.8686C63.0097 47.5369 63.0878 47.2111 63.2279 46.9111C63.368 46.6111 63.567 46.3432 63.8128 46.1238C64.7791 45.2859 66.2255 45.3958 66.2905 45.3989L66.2657 45.7127C66.2503 45.7127 64.8844 45.6123 64.0172 46.3623C63.8031 46.5558 63.6298 46.7913 63.5079 47.0545C63.386 47.3177 63.318 47.6032 63.308 47.8937C62.9673 52.5852 62.5244 64.4535 62.5089 64.5853Z" fill="#263238"/>
<path d="M65.4115 84.4435H64.8633V83.8158H65.4115C65.9865 83.8158 66.5379 83.5844 66.9445 83.1725C67.351 82.7605 67.5795 82.2018 67.5795 81.6192V74.9727H68.1989V81.6192C68.1989 82.3682 67.9052 83.0866 67.3825 83.6162C66.8597 84.1459 66.1507 84.4435 65.4115 84.4435Z" fill="#455A64"/>
<path d="M65.6333 84.2055C65.6204 84.3383 65.5689 84.4642 65.4854 84.5674C65.4019 84.6706 65.2901 84.7463 65.164 84.7851C65.038 84.8239 64.9035 84.8239 64.7775 84.7852C64.6514 84.7465 64.5396 84.6709 64.456 84.5677C64.3724 84.4646 64.3209 84.3387 64.3079 84.2059C64.295 84.0731 64.3211 83.9394 64.3832 83.8217C64.4452 83.704 64.5403 83.6076 64.6564 83.5447C64.7725 83.4817 64.9044 83.455 65.0355 83.4681C65.211 83.4863 65.3722 83.574 65.4842 83.7121C65.5961 83.8503 65.6497 84.0276 65.6333 84.2055Z" fill="#263238"/>
<path d="M60.0504 84.4279H59.5023C58.763 84.4279 58.054 84.1303 57.5313 83.6006C57.0085 83.071 56.7148 82.3526 56.7148 81.6036L56.7396 74.957H57.359L57.3343 81.6036C57.3343 82.1861 57.5627 82.7449 57.9693 83.1568C58.3758 83.5688 58.9273 83.8002 59.5023 83.8002H60.0504V84.4279Z" fill="#455A64"/>
<path d="M59.2844 84.1865C59.2972 84.3185 59.3484 84.4438 59.4314 84.5464C59.5144 84.649 59.6255 84.7245 59.7508 84.7632C59.8761 84.8018 60.0098 84.8021 60.1352 84.7638C60.2606 84.7255 60.372 84.6504 60.4553 84.5481C60.5387 84.4457 60.5902 84.3206 60.6034 84.1886C60.6167 84.0566 60.591 83.9236 60.5297 83.8063C60.4683 83.6891 60.3741 83.5929 60.2589 83.5298C60.1436 83.4668 60.0126 83.4398 59.8822 83.4522C59.7953 83.4604 59.7108 83.486 59.6337 83.5274C59.5566 83.5688 59.4883 83.6252 59.4327 83.6935C59.3772 83.7617 59.3355 83.8404 59.31 83.925C59.2846 84.0096 59.2759 84.0984 59.2844 84.1865Z" fill="#263238"/>
<path d="M56.5589 75.7224L56.4814 70.9839C56.4226 67.3719 59.0273 64.3938 62.2885 64.3342C63.0828 64.327 63.8697 64.4893 64.5981 64.8104C65.3264 65.1316 65.9799 65.6044 66.5161 66.1982C67.6556 67.4475 68.295 69.082 68.3093 70.783L68.3868 75.5247L67.4576 75.5404L67.3802 70.7987C67.3689 69.3302 66.8166 67.9189 65.8316 66.8416C65.3854 66.342 64.8398 65.9438 64.2307 65.6734C63.6216 65.4029 62.9628 65.2663 62.2978 65.2725C59.5476 65.3196 57.3424 67.8709 57.4044 70.965L57.4818 75.7036L56.5589 75.7224Z" fill="#263238"/>
<path d="M83.0129 64.7621C83.0129 64.6365 81.5913 52.3006 81.1825 48.3466L81.1546 48.0579C81.0277 46.7148 80.879 45.196 79.4141 44.7943L79.4946 44.4805C81.167 44.9386 81.3312 46.6458 81.4644 48.0171L81.4922 48.3027C81.8979 52.2567 83.3071 64.5926 83.3195 64.7181L83.0129 64.7621Z" fill="#263238"/>
<path d="M85.5183 65.0294C86.8161 63.7144 86.8161 61.5824 85.5183 60.2675C84.2205 58.9525 82.1164 58.9525 80.8186 60.2675C79.5208 61.5824 79.5208 63.7144 80.8186 65.0294C82.1164 66.3444 84.2205 66.3444 85.5183 65.0294Z" fill="#263238"/>
<path d="M84.7734 62.6463C84.7734 62.9685 84.679 63.2835 84.5023 63.5514C84.3255 63.8193 84.0743 64.0281 83.7804 64.1513C83.4865 64.2744 83.1632 64.3065 82.8513 64.2434C82.5394 64.1803 82.253 64.0249 82.0283 63.7968C81.8036 63.5687 81.6508 63.2782 81.5891 62.9621C81.5274 62.6459 81.5597 62.3184 81.6818 62.0208C81.804 61.7233 82.0105 61.4691 82.2752 61.2905C82.54 61.1119 82.851 61.017 83.1691 61.0176C83.38 61.0176 83.5889 61.0597 83.7838 61.1416C83.9786 61.2235 84.1556 61.3435 84.3046 61.4948C84.4536 61.6461 84.5717 61.8256 84.6522 62.0232C84.7326 62.2208 84.7738 62.4325 84.7734 62.6463Z" fill="#455A64"/>
<path d="M92.6669 106.023L92.6668 106.022L59.5491 96.7192L63.6185 86.578L104.805 89.0089L105.389 93.4653C105.811 97.7521 104.955 102.034 101.539 104.476C100.265 105.383 98.8088 105.992 97.2746 106.259C95.7403 106.527 94.1666 106.446 92.6669 106.023Z" fill="white" stroke="#CFCFCF" stroke-width="0.3"/>
<path d="M98.7757 97.7052C98.7417 97.7052 98.6704 96.996 98.3267 95.9008C98.2384 95.6017 98.135 95.3073 98.017 95.019C97.8993 94.7052 97.7351 94.3914 97.571 94.0399C97.189 93.3134 96.74 92.6251 96.2299 91.9844C95.7106 91.3518 95.1341 90.7698 94.5079 90.2459C94.1982 90.0168 93.9319 89.7878 93.65 89.6183C93.3953 89.4404 93.1317 89.276 92.8603 89.1256C91.8692 88.5702 91.1909 88.3568 91.2033 88.3223C91.3656 88.3559 91.5242 88.4053 91.6772 88.4697C91.8621 88.5305 92.0431 88.6028 92.2191 88.6863C92.4267 88.7836 92.6682 88.8808 92.916 89.0252C93.1942 89.1695 93.4641 89.3298 93.7243 89.5053C94.0124 89.6811 94.2973 89.9101 94.6008 90.133C95.2413 90.6571 95.8294 91.2436 96.3569 91.884C96.8724 92.5336 97.3227 93.2338 97.7011 93.974C97.8652 94.3223 98.0262 94.6487 98.1408 94.9719C98.261 95.2648 98.3644 95.5645 98.4505 95.8694C98.5284 96.1185 98.5915 96.3721 98.6395 96.6288C98.6886 96.8236 98.7228 97.0219 98.7417 97.2219C98.7675 97.3816 98.7789 97.5434 98.7757 97.7052Z" fill="#263238"/>
<g opacity="0.2">
<path d="M58.6057 90.8448C56.0661 91.0582 54.1056 91.2935 51.4823 91.6199C49.8439 91.8239 48.1436 91.7077 47.6078 90.1293C47.072 88.5508 47.4127 86.7433 48.2923 85.328C49.1719 83.9127 50.5532 80.6208 57.9491 83.1313L58.6057 90.8448Z" fill="#A8A8A8"/>
</g>
<path d="M62.0312 90.3907L62.0498 90.3216L62.1211 90.1145L62.3998 89.3237L63.4683 86.4021L63.4838 86.3613H63.5241L74.844 87.4L85.7954 88.4544L89.1125 88.7902L90.0137 88.8906L90.246 88.922C90.2735 88.9228 90.3007 88.9281 90.3265 88.9377H90.246H90.0106L89.1063 88.8687L85.7831 88.58L74.8285 87.5758L63.5148 86.4869L63.5705 86.4492L62.4556 89.3551L62.1458 90.1333L62.0622 90.3342C62.0467 90.3718 62.0343 90.3938 62.0312 90.3907Z" fill="#263238"/>
<g opacity="0.2">
<path d="M75.7227 101.112C80.4489 102.396 83.323 101.652 87.6156 99.2731C88.4949 98.7508 89.3392 98.17 90.1428 97.5346C90.7549 97.0275 91.2994 96.4421 91.7626 95.793C86.2343 97.9363 81.6412 99.5587 75.9425 101.172" fill="black"/>
</g>
<path d="M62.048 90.2759L63.1288 87.2163L60.6171 83.2372C60.3997 82.8923 60.115 82.5962 59.7805 82.3668C59.4461 82.1375 59.0689 81.9798 58.6721 81.9035L49.4303 80.1367C49.3154 80.4873 49.3313 80.8685 49.4752 81.208C49.619 81.5475 49.8807 81.8217 50.2108 81.9788C51.4217 82.6786 56.8696 83.9621 56.8696 83.9621L48.4795 83.8177C48.4795 83.8177 48.2193 85.0447 49.1701 85.4841C50.1209 85.9234 56.0984 86.1462 56.0984 86.1462L48.4454 87.2383C48.4454 87.2383 48.4021 88.4684 50.1519 88.4935C51.8752 88.4727 53.5964 88.3627 55.3086 88.164C55.3795 88.154 55.4514 88.1723 55.5092 88.215C55.567 88.2578 55.6062 88.3216 55.6183 88.3931C55.6288 88.4622 55.6133 88.5328 55.5749 88.5909C55.5365 88.649 55.4779 88.6904 55.4108 88.7069L50.3223 89.9245C50.1756 89.9579 50.0441 90.0396 49.948 90.1567C49.8519 90.2738 49.7968 90.4198 49.7911 90.572C49.7855 90.7242 49.8296 90.874 49.9167 90.9981C50.0038 91.1222 50.129 91.2136 50.2727 91.2582C50.3649 91.2807 50.4602 91.287 50.5545 91.277C51.4217 91.1891 56.6001 90.5239 56.6001 90.5239L56.8696 91.1358L62.048 90.2822" fill="#FFBE9D"/>
<path d="M58.247 89.332C58.1766 89.163 58.0804 89.0063 57.962 88.8676C57.8252 88.7259 57.6576 88.6185 57.4727 88.5538C57.2442 88.483 57.0047 88.4564 56.7665 88.4753C56.2524 88.513 55.7878 88.6636 55.441 88.7075C55.2537 88.7536 55.0583 88.7536 54.8711 88.7075C55.0513 88.6559 55.2343 88.615 55.4193 88.5851C55.8569 88.4541 56.3044 88.3596 56.7572 88.3027C57.0174 88.2821 57.2789 88.3163 57.5253 88.4031C57.7259 88.4819 57.9045 88.609 58.0456 88.7734C58.1199 88.8442 58.1767 88.9315 58.2117 89.0285C58.2466 89.1255 58.2587 89.2294 58.247 89.332Z" fill="#AA6550"/>
<path d="M59.0819 87.0005C59.0664 87.0005 59.0572 86.9158 58.989 86.7808C58.8884 86.5936 58.7354 86.4407 58.5492 86.3415C58.0816 86.0653 57.2918 86.1564 56.4618 86.2128C55.6317 86.2693 54.8698 86.3949 54.3217 86.467C54.0275 86.5235 53.7291 86.554 53.4297 86.558C53.7134 86.4608 54.006 86.3925 54.3031 86.3541C55.0118 86.213 55.7271 86.1083 56.4463 86.0402C56.8437 86.0036 57.2427 85.9879 57.6418 85.9932C57.978 85.985 58.3104 86.0673 58.605 86.2317C58.8043 86.3485 58.9592 86.5297 59.0448 86.7463C59.0834 86.8249 59.0964 86.9139 59.0819 87.0005Z" fill="#AA6550"/>
<path d="M59.7204 85.6456C59.7133 85.3966 59.6463 85.1532 59.5253 84.9363C59.3872 84.7093 59.1957 84.5206 58.9678 84.3872C58.6791 84.2341 58.3633 84.1403 58.0387 84.111C57.3449 84.0451 56.6945 84.111 56.2207 84.0734C55.9632 84.0731 55.7095 84.0107 55.4805 83.8913C55.4805 83.8662 55.7654 83.951 56.2269 83.9604C56.6883 83.9698 57.3295 83.8819 58.0573 83.9604C58.4035 83.9895 58.739 84.0967 59.0391 84.2742C59.2855 84.4263 59.4867 84.6432 59.6213 84.9018C59.7148 85.0726 59.7628 85.2651 59.7607 85.4604C59.7545 85.5765 59.7204 85.6456 59.7204 85.6456Z" fill="#AA6550"/>
<path d="M89.7227 85.6369C89.7233 85.4663 89.7389 85.2962 89.7691 85.1285C89.8094 84.8147 89.8868 84.3314 89.9952 83.754C90.2089 82.5992 90.5868 81.0207 90.9863 79.279C91.3396 77.7957 91.6095 76.2933 91.7946 74.779C91.8318 74.4872 91.8473 74.2236 91.869 73.9913C91.8906 73.7591 91.903 73.5614 91.9092 73.3951C91.9077 73.2246 91.9222 73.0544 91.9526 72.8867C91.9726 73.0564 91.9788 73.2275 91.9712 73.3982C91.9712 73.5614 91.9712 73.7654 91.9712 73.9976C91.9712 74.2298 91.9526 74.4966 91.9185 74.7884C91.7679 76.3138 91.5134 77.8269 91.1566 79.3167C90.754 81.0615 90.3607 82.6305 90.1191 83.7791C89.9983 84.3502 89.9023 84.8178 89.8434 85.1379C89.8166 85.3073 89.7762 85.4741 89.7227 85.6369Z" fill="#263238"/>
<path d="M92.9338 106.221C92.8717 106.22 92.8101 106.21 92.7511 106.19L92.237 106.074L90.3539 105.603C88.7651 105.198 86.5754 104.611 84.1597 103.934C81.7439 103.256 79.579 102.606 78.015 102.12L76.1567 101.536L75.655 101.367C75.6063 101.35 75.5596 101.328 75.5156 101.301C75.5769 101.305 75.6374 101.318 75.6953 101.338L76.2063 101.477L78.0646 102.013L84.2216 103.78L90.3818 105.493L92.2401 106.011L92.748 106.159C92.812 106.173 92.8742 106.194 92.9338 106.221Z" fill="#263238"/>
<path d="M61.0508 15.2015C61.7321 13.0708 65.2226 11.1471 67.1366 10.0299C70.0015 8.36361 72.6557 8.69625 74.291 10.1806C77.2456 7.67008 81.1387 5.25374 84.8707 6.24224C88.6027 7.23075 91.6348 11.1032 90.9535 14.9536C90.5539 17.2225 89.0023 19.256 89.0952 21.5437C89.1571 23.1127 89.9779 24.5311 90.6437 25.9558C91.3096 27.3805 91.799 29.0375 91.2167 30.4935C90.6747 31.8461 89.3213 32.6902 88.5935 33.9455C87.9988 34.9748 87.8625 36.1986 87.4816 37.3252C86.0755 41.4989 81.213 43.8399 76.9204 43.1056C72.6278 42.3713 69.0506 39.0982 67.0096 35.1944C64.9686 31.2906 64.312 26.8094 64.0767 22.4066" fill="#263238"/>
<path d="M64.2148 18.1419L65.0727 52.9436C65.3825 56.9321 69.0092 59.8474 73.2213 59.4771C77.4736 59.1068 80.7225 55.5388 80.4778 51.5032C80.2208 47.2699 80.0287 42.8043 80.0287 42.8043C80.0287 42.8043 85.3527 41.5491 86.0155 34.3565C86.353 30.6724 85.7646 24.6284 85.1483 19.8397C85.0274 18.8849 84.7172 17.9648 84.2363 17.1347C83.7554 16.3047 83.1137 15.5817 82.3498 15.0095C81.586 14.4372 80.7157 14.0274 79.7915 13.8048C78.8673 13.5822 77.9082 13.5513 76.9719 13.7141" fill="#FFBE9D"/>
<path d="M83.566 24.9825C83.5842 25.22 83.5097 25.4553 83.3585 25.6377C83.2074 25.8202 82.9917 25.9354 82.7577 25.9585C82.6438 25.9757 82.5276 25.9695 82.4161 25.9404C82.3046 25.9113 82.1999 25.8598 82.1084 25.789C82.0168 25.7182 81.9402 25.6295 81.8831 25.5282C81.826 25.4268 81.7896 25.3149 81.7759 25.1991C81.7585 24.9614 81.8332 24.7262 81.9841 24.5434C82.1351 24.3606 82.3503 24.2446 82.5843 24.22C82.6983 24.2032 82.8146 24.2098 82.9261 24.2393C83.0377 24.2688 83.1423 24.3205 83.2338 24.3916C83.3252 24.4627 83.4018 24.5516 83.4588 24.653C83.5159 24.7545 83.5524 24.8666 83.566 24.9825Z" fill="#263238"/>
<path d="M84.4626 24.0537C84.3573 24.1792 83.6418 23.7116 82.6724 23.7775C81.703 23.8434 81.0248 24.3801 80.9133 24.2671C80.8575 24.2169 80.9566 23.9972 81.2508 23.7462C81.6522 23.4236 82.1424 23.235 82.6538 23.2064C83.1571 23.1728 83.6579 23.3013 84.0847 23.5736C84.3975 23.7901 84.5121 23.9941 84.4626 24.0537Z" fill="#263238"/>
<path d="M74.277 25.9669C74.296 26.2049 74.2219 26.441 74.0706 26.6241C73.9194 26.8073 73.7032 26.9229 73.4686 26.946C73.3545 26.9627 73.2383 26.9562 73.1268 26.9267C73.0152 26.8972 72.9106 26.8454 72.8191 26.7744C72.7276 26.7033 72.6511 26.6144 72.594 26.5129C72.537 26.4114 72.5005 26.2994 72.4868 26.1834C72.4695 25.9458 72.5442 25.7106 72.6951 25.5278C72.846 25.345 73.0613 25.229 73.2952 25.2043C73.4093 25.1876 73.5255 25.1942 73.6371 25.2237C73.7486 25.2531 73.8532 25.3049 73.9447 25.376C74.0362 25.447 74.1127 25.5359 74.1698 25.6374C74.2268 25.7389 74.2633 25.8509 74.277 25.9669Z" fill="#263238"/>
<path d="M74.9469 24.8603C74.8416 24.9859 74.1262 24.5183 73.1568 24.5842C72.1874 24.6501 71.5091 25.1867 71.3976 25.0737C71.3419 25.0235 71.441 24.8039 71.7383 24.5528C72.1388 24.2309 72.6278 24.0423 73.1382 24.0131C73.6414 23.9795 74.1423 24.108 74.5691 24.3802C74.8974 24.5936 74.9965 24.8007 74.9469 24.8603Z" fill="#263238"/>
<path d="M78.9225 31.9114C78.9225 31.858 79.5078 31.7137 80.471 31.5223C80.7157 31.4815 80.948 31.4156 80.9789 31.2398C80.9833 30.9797 80.9087 30.7245 80.7652 30.5087C80.4958 29.9156 80.2109 29.2973 79.9135 28.6478C78.7242 25.9929 77.8447 23.8057 77.95 23.7586C78.0553 23.7115 79.1052 25.8235 80.2976 28.4657C80.5825 29.1185 80.8582 29.743 81.1183 30.3486C81.2952 30.6403 81.3633 30.9865 81.3103 31.3246C81.2801 31.4153 81.2298 31.4978 81.1632 31.5658C81.0966 31.6338 81.0156 31.6855 80.9263 31.7168C80.7924 31.7642 80.6528 31.7927 80.5113 31.8016C79.5419 31.9239 78.9225 31.9679 78.9225 31.9114Z" fill="#263238"/>
<path d="M80.031 42.7901C76.7265 43.0577 73.4135 42.3907 70.4609 40.8633C70.4609 40.8633 73.1214 45.6552 80.1085 44.5286L80.031 42.7901Z" fill="#AA6550"/>
<path d="M74.9529 20.9938C74.8724 21.2668 73.8968 21.2041 72.7695 21.4175C71.6421 21.6309 70.7408 22.0043 70.5736 21.7752C70.4993 21.6654 70.6448 21.4018 70.9979 21.1194C71.4696 20.7657 72.0172 20.5301 72.596 20.4321C73.1742 20.3242 73.7694 20.3553 74.3335 20.5231C74.7609 20.6675 74.9839 20.8652 74.9529 20.9938Z" fill="#263238"/>
<path d="M83.9233 21.2319C83.7685 21.4672 83.084 21.2789 82.2819 21.3197C81.4797 21.3605 80.8076 21.5676 80.6373 21.3448C80.5599 21.235 80.6373 21.0059 80.947 20.7737C81.33 20.4946 81.7863 20.3373 82.2578 20.3216C82.7294 20.306 83.1948 20.4327 83.595 20.6858C83.8769 20.8961 83.9915 21.1189 83.9233 21.2319Z" fill="#263238"/>
<path d="M77.4227 33.7602C78.1815 33.7602 78.5594 33.9861 79.2036 34.3878C79.3976 34.4914 79.5571 34.6508 79.6619 34.846C79.7115 34.9862 79.7286 35.1361 79.712 35.2841C79.6953 35.4321 79.6454 35.5742 79.5659 35.6995C79.4076 35.9845 79.1722 36.2178 78.8874 36.3718C78.6026 36.5258 78.2804 36.5941 77.9585 36.5688C77.6378 36.5346 77.3355 36.3999 77.094 36.1833C76.8525 35.9667 76.6837 35.6791 76.6113 35.3606C76.5513 35.0395 76.5985 34.7074 76.7454 34.4164C76.8923 34.1255 77.1306 33.8924 77.4227 33.7539" fill="#AA6550"/>
<path d="M79.9983 35.4007C79.9983 35.476 79.7567 35.589 79.3324 35.5639C78.7959 35.5135 78.2774 35.3419 77.8148 35.0618C77.3483 34.7987 76.9353 34.4484 76.5977 34.0294C76.3468 33.7156 76.2694 33.4394 76.3344 33.4018C76.4614 33.317 77.0994 33.9949 78.1029 34.5534C78.5179 34.7961 78.9544 34.9989 79.4068 35.1591C79.7536 35.2783 79.989 35.3191 79.9983 35.4007Z" fill="#263238"/>
<path d="M75.2102 29.2748C75.3522 29.2748 75.4672 29.1582 75.4672 29.0144C75.4672 28.8705 75.3522 28.7539 75.2102 28.7539C75.0682 28.7539 74.9531 28.8705 74.9531 29.0144C74.9531 29.1582 75.0682 29.2748 75.2102 29.2748Z" fill="#AA6550"/>
<path d="M82.7485 27.737C82.7485 27.7885 82.7334 27.8389 82.7052 27.8817C82.6769 27.9246 82.6368 27.9579 82.5898 27.9777C82.5428 27.9974 82.4911 28.0025 82.4413 27.9925C82.3914 27.9824 82.3456 27.9576 82.3097 27.9212C82.2737 27.8848 82.2492 27.8384 82.2393 27.7878C82.2294 27.7373 82.2345 27.6849 82.2539 27.6374C82.2734 27.5898 82.3063 27.5491 82.3486 27.5205C82.3909 27.4918 82.4406 27.4766 82.4914 27.4766C82.5596 27.4766 82.625 27.504 82.6732 27.5529C82.7214 27.6017 82.7485 27.6679 82.7485 27.737Z" fill="#AA6550"/>
<path d="M84.1672 28.4165C84.1712 28.4533 84.1675 28.4906 84.1563 28.5259C84.1451 28.5611 84.1267 28.5936 84.1023 28.6212C84.0779 28.6488 84.0481 28.6708 84.0147 28.6859C83.9813 28.701 83.9452 28.7088 83.9086 28.7088C83.872 28.7088 83.8359 28.701 83.8025 28.6859C83.7691 28.6708 83.7393 28.6488 83.7149 28.6212C83.6905 28.5936 83.6721 28.5611 83.6609 28.5259C83.6497 28.4906 83.646 28.4533 83.65 28.4165C83.657 28.352 83.6872 28.2923 83.7349 28.249C83.7827 28.2056 83.8445 28.1816 83.9086 28.1816C83.9727 28.1816 84.0345 28.2056 84.0822 28.249C84.13 28.2923 84.1602 28.352 84.1672 28.4165Z" fill="#AA6550"/>
<path d="M84.6001 27.3269C84.6001 27.3784 84.585 27.4287 84.5567 27.4716C84.5285 27.5144 84.4883 27.5478 84.4414 27.5675C84.3944 27.5872 84.3427 27.5924 84.2928 27.5823C84.243 27.5723 84.1972 27.5475 84.1612 27.511C84.1253 27.4746 84.1008 27.4282 84.0909 27.3777C84.081 27.3272 84.0861 27.2748 84.1055 27.2272C84.125 27.1796 84.1579 27.1389 84.2002 27.1103C84.2425 27.0817 84.2922 27.0664 84.343 27.0664C84.4112 27.0664 84.4766 27.0938 84.5248 27.1427C84.573 27.1915 84.6001 27.2578 84.6001 27.3269Z" fill="#AA6550"/>
<path d="M74.2898 30.1667C74.2904 30.219 74.2757 30.2702 74.2475 30.314C74.2193 30.3578 74.1789 30.392 74.1314 30.4125C74.0839 30.4329 74.0315 30.4386 73.9808 30.4288C73.9302 30.419 73.8835 30.3941 73.8468 30.3574C73.8101 30.3206 73.7851 30.2737 73.7748 30.2224C73.7645 30.1712 73.7694 30.1181 73.789 30.0697C73.8086 30.0214 73.842 29.98 73.8848 29.9509C73.9277 29.9218 73.9781 29.9063 74.0297 29.9063C74.0981 29.9062 74.1638 29.9336 74.2125 29.9823C74.2612 30.0311 74.289 30.0973 74.2898 30.1667Z" fill="#AA6550"/>
<path d="M73.3266 29.1257C73.3266 29.1772 73.3115 29.2276 73.2833 29.2704C73.2551 29.3132 73.2149 29.3466 73.1679 29.3663C73.121 29.386 73.0693 29.3912 73.0194 29.3812C72.9695 29.3711 72.9237 29.3463 72.8878 29.3099C72.8518 29.2734 72.8274 29.227 72.8174 29.1765C72.8075 29.126 72.8126 29.0736 72.8321 29.026C72.8515 28.9784 72.8845 28.9378 72.9267 28.9091C72.969 28.8805 73.0187 28.8652 73.0696 28.8652C73.1377 28.8652 73.2031 28.8927 73.2513 28.9415C73.2995 28.9904 73.3266 29.0566 73.3266 29.1257Z" fill="#AA6550"/>
<path d="M77.5364 25.9683C77.5077 25.5983 77.4507 25.231 77.3661 24.8699C77.1114 23.8885 76.5374 23.0228 75.737 22.4128C75.1906 21.9922 74.5539 21.7084 73.8787 21.5843C73.1049 21.4409 72.3074 21.5091 71.5683 21.782C71.17 21.926 70.796 22.1314 70.4595 22.3908C70.1031 22.6535 69.7896 22.9711 69.5304 23.3323C68.9771 24.0951 68.6788 25.0169 68.6788 25.9636C68.6788 26.9102 68.9771 27.8321 69.5304 28.5949C70.0435 29.3087 70.7521 29.8542 71.5683 30.1639C72.3074 30.4368 73.1049 30.5051 73.8787 30.3616C74.5539 30.2376 75.1906 29.9537 75.737 29.5332C76.5365 28.9236 77.1103 28.0593 77.3661 27.0792C77.4503 26.718 77.5072 26.3508 77.5364 25.9808C77.541 26.0047 77.541 26.0292 77.5364 26.053V26.2695C77.5363 26.3872 77.5269 26.5048 77.5085 26.621C77.4928 26.7799 77.4648 26.9372 77.4249 27.0917C77.3273 27.5225 77.1643 27.9354 76.9418 28.3156C76.4099 29.238 75.5757 29.9423 74.5842 30.3058C73.5928 30.6693 72.5069 30.6691 71.5156 30.3051C71.1025 30.1562 70.714 29.9445 70.3635 29.6775C69.9926 29.4069 69.6674 29.0773 69.4003 28.7016C68.8232 27.9132 68.5117 26.9576 68.5117 25.9761C68.5117 24.9946 68.8232 24.0391 69.4003 23.2507C69.6674 22.8749 69.9926 22.5453 70.3635 22.2747C70.714 22.0077 71.1025 21.7961 71.5156 21.6471C72.2796 21.3693 73.1032 21.3043 73.9004 21.4588C74.5308 21.5826 75.1279 21.8408 75.6523 22.2162C76.1767 22.5917 76.6162 23.0759 76.9418 23.6367C77.1638 24.0171 77.3267 24.4299 77.4249 24.8605C77.4651 25.016 77.4931 25.1744 77.5085 25.3344C77.527 25.4495 77.5364 25.566 77.5364 25.6827V25.8992C77.5403 25.9221 77.5403 25.9454 77.5364 25.9683Z" fill="white"/>
<path d="M79.4782 24.5963C79.1335 24.5002 78.7763 24.4579 78.419 24.4708C78.0667 24.5354 77.7255 24.6517 77.4062 24.816C77.4062 24.816 77.4713 24.6967 77.6447 24.5775C77.8722 24.4287 78.1311 24.3362 78.4004 24.3076C78.6714 24.2765 78.9457 24.3132 79.1995 24.4143C79.3915 24.4928 79.4875 24.5775 79.4782 24.5963Z" fill="white"/>
<path d="M76.6477 12.6974C76.0283 18.3679 71.8658 23.4736 66.4954 25.1933C68.2267 27.7226 67.1365 32.5365 67.1798 36.5533C67.2232 40.2876 67.2201 41.3546 64.8322 43.2594C62.8594 43.7395 61.7351 38.2635 60.2547 36.7321C58.7743 35.2007 57.3837 33.3147 57.4921 31.1871C57.5447 30.1892 57.9288 29.2352 57.9814 28.2404C58.0433 27.1358 57.6934 26.0437 57.5014 24.9674C56.6465 20.1504 59.0995 14.9693 63.2527 12.4494C67.4059 9.92955 72.9219 10.099 77.0318 12.6754" fill="#263238"/>
<path d="M64.7968 36.0094C64.282 34.1776 63.3971 32.4742 62.1983 31.0073L62.2881 31.2018C61.9177 30.3461 61.3601 29.5869 60.6573 28.9817C59.9546 28.3766 59.1252 27.9414 58.2319 27.7091C57.3386 27.4767 56.4049 27.4534 55.5013 27.6407C54.5978 27.8281 53.7482 28.2212 53.0168 28.7904C52.2854 29.3597 51.6915 30.09 51.2798 30.9262C50.8682 31.7624 50.6497 32.6826 50.6409 33.617C50.6321 34.5514 50.8332 35.4756 51.229 36.3196C51.6248 37.1636 52.205 37.9053 52.9255 38.4885C52.2287 38.3316 51.5225 38.9404 51.377 39.6465C51.3229 40.0057 51.3415 40.3722 51.4314 40.7239C51.5214 41.0757 51.6809 41.4052 51.9004 41.6925C53.3529 43.8453 56.6452 44.4133 58.714 42.8693C60.3555 43.9959 62.7805 43.3401 63.9977 41.7553C65.2149 40.1706 65.3573 37.9362 64.7968 36.0094Z" fill="#263238"/>
<path d="M58.1478 27.7022C58.0832 27.6407 58.0242 27.5735 57.9712 27.5014C57.8271 27.2913 57.7221 27.0563 57.6615 26.8079C57.4726 26.1583 57.5624 25.1321 58.0703 24.0463C58.3464 23.4519 58.7262 22.9129 59.1915 22.4553C59.7011 21.9123 60.2658 21.4253 60.8763 21.0024C61.5518 20.5309 62.2888 20.157 63.066 19.8915C63.8681 19.6122 64.7198 19.3957 65.587 19.176C66.4542 18.9563 67.3028 18.7398 68.0957 18.4574C68.8601 18.1905 69.6026 17.8631 70.3163 17.4783C71.5237 16.827 72.6462 16.0258 73.6581 15.0933C74.3402 14.4615 74.97 13.774 75.5412 13.0379C75.7456 12.7774 75.8942 12.5671 75.9965 12.4102C76.0448 12.3362 76.0997 12.2669 76.1606 12.2031C76.1204 12.2815 76.0749 12.357 76.0243 12.4291C75.9283 12.5766 75.7889 12.7931 75.5907 13.0567C75.0353 13.813 74.4134 14.5167 73.7325 15.1592C72.7196 16.1116 71.5915 16.9299 70.3752 17.5944C69.6557 17.985 68.907 18.3176 68.136 18.5892C67.3338 18.8747 66.4821 19.0944 65.6149 19.3172C64.7477 19.54 63.8991 19.7503 63.1032 20.0233C62.3351 20.2822 61.6057 20.6465 60.9352 21.1059C60.3319 21.5227 59.7716 22 59.2627 22.5306C58.8095 22.9844 58.4402 23.5169 58.1725 24.1028C57.6615 25.1604 57.5531 26.1614 57.7235 26.7985C57.8024 27.126 57.9468 27.4336 58.1478 27.7022Z" fill="#455A64"/>
<path d="M76.1544 12.2207C76.11 12.2836 76.0613 12.3434 76.0088 12.3996C75.9097 12.5157 75.758 12.6789 75.5628 12.8891C75.001 13.4749 74.4042 14.0251 73.7758 14.5366C72.8464 15.3108 71.8117 15.9449 70.7035 16.4195C70.038 16.6686 69.3518 16.8566 68.6532 16.9812C67.9315 17.1287 67.1789 17.2417 66.4109 17.3609C64.9638 17.5362 63.5347 17.8397 62.1399 18.2678C61.0083 18.6421 59.9573 19.231 59.0428 20.0032C58.4281 20.5255 57.9208 21.1653 57.55 21.8861C57.4534 22.0841 57.3676 22.2873 57.2929 22.4949C57.271 22.5692 57.2409 22.6408 57.2031 22.7083C57.2176 22.6327 57.2372 22.5582 57.262 22.4855C57.3238 22.2707 57.4014 22.0609 57.4943 21.8578C57.8486 21.1154 58.3505 20.4552 58.9685 19.9185C59.8837 19.1228 60.943 18.5153 62.0873 18.1298C63.4875 17.6865 64.9241 17.3715 66.3799 17.1883C67.1511 17.0722 67.9006 16.9561 68.616 16.8149C69.3067 16.6937 69.9856 16.511 70.6446 16.2689C71.742 15.8068 72.77 15.191 73.6984 14.4393C74.3321 13.9401 74.9389 13.4069 75.5164 12.842L75.9841 12.3776C76.0355 12.3196 76.0925 12.2671 76.1544 12.2207Z" fill="#455A64"/>
<path d="M84.0167 6.01286C84.0167 6.04738 83.4128 6.06934 82.4682 6.32667C82.212 6.39422 81.9598 6.47594 81.7125 6.57144C81.443 6.66245 81.1705 6.79739 80.8762 6.92919C79.6236 7.54208 78.5213 8.42963 77.649 9.52754C77.457 9.788 77.265 10.0265 77.1163 10.2744C76.9682 10.4954 76.8327 10.7249 76.7106 10.9617C76.2553 11.8278 76.0912 12.424 76.0664 12.4115C76.087 12.27 76.1223 12.1312 76.1717 11.9972C76.2163 11.8344 76.2722 11.675 76.339 11.5202C76.4175 11.3058 76.5085 11.0962 76.6115 10.8926C76.7271 10.6477 76.8585 10.4108 77.0048 10.1834C77.1504 9.93236 77.3393 9.68445 77.5313 9.41771C77.9744 8.86125 78.4737 8.35325 79.0211 7.902C79.5777 7.46398 80.1788 7.08737 80.8143 6.77856C81.0924 6.64607 81.3779 6.52977 81.6691 6.43023C82.1299 6.26644 82.6048 6.14667 83.0876 6.07248C83.2511 6.04036 83.4167 6.02043 83.5831 6.01286C83.7271 5.99571 83.8727 5.99571 84.0167 6.01286Z" fill="#455A64"/>
<path d="M89.0076 33.1071C89.0076 33.1071 89.0076 33.0852 89.054 33.0444L89.1996 32.8718C89.3297 32.718 89.5248 32.4952 89.7447 32.1845C90.0216 31.8184 90.2313 31.405 90.3641 30.9638C90.4396 30.6893 90.4617 30.4026 90.4292 30.1196C90.3853 29.8037 90.28 29.4997 90.1195 29.2253C89.785 28.6385 89.2368 28.1269 88.735 27.493C87.6068 26.0626 86.8822 24.3492 86.6383 22.5348C86.5386 21.5182 86.5138 20.4955 86.564 19.4752C86.6138 18.4639 86.521 17.4505 86.2883 16.4657C86.0408 15.6069 85.6125 14.8126 85.0329 14.1376C84.4533 13.4626 83.7362 12.9229 82.931 12.5556C82.2634 12.2524 81.5439 12.084 80.8126 12.0598C79.4517 12.0042 78.1107 12.4045 76.997 13.199L76.8111 13.3308C76.7709 13.359 76.7492 13.3747 76.7461 13.3716C77.0357 13.1011 77.3596 12.871 77.7093 12.6874C78.6601 12.1704 79.7277 11.9141 80.8064 11.9437C81.5533 11.9623 82.2896 12.1275 82.9744 12.4301C83.8028 12.8008 84.5414 13.3504 85.1384 14.0404C85.7354 14.7304 86.1765 15.5442 86.4308 16.4249C86.6677 17.4239 86.7626 18.4521 86.7126 19.4783C86.6627 20.4913 86.6865 21.5066 86.7839 22.516C87.0194 24.3043 87.7279 25.9947 88.8341 27.4083C89.3235 28.0359 89.8748 28.5569 90.2155 29.1688C90.3805 29.4581 90.4859 29.7784 90.5252 30.1102C90.5561 30.4067 90.5287 30.7064 90.4447 30.992C90.3021 31.441 90.0784 31.8592 89.785 32.2253C89.6078 32.46 89.4175 32.6842 89.2151 32.8969L89.054 33.06C89.0405 33.0776 89.0249 33.0934 89.0076 33.1071Z" fill="#455A64"/>
<path d="M88.2868 24.8601C88.2578 24.4901 88.2009 24.1229 88.1164 23.7617C87.8618 22.7803 87.2878 21.9146 86.4874 21.3046C85.8991 20.8563 85.2097 20.5641 84.4817 20.4545C83.7536 20.3448 83.0101 20.4213 82.3186 20.677C81.5025 20.9867 80.7939 21.5322 80.2807 22.246C79.7273 23.0082 79.4288 23.9296 79.4288 24.8758C79.4288 25.822 79.7273 26.7434 80.2807 27.5055C80.5385 27.8679 80.8522 28.1858 81.2099 28.4469C81.5472 28.7043 81.921 28.9085 82.3186 29.0526C82.898 29.2659 83.5149 29.3543 84.1298 29.3121C84.7448 29.27 85.3443 29.0982 85.8901 28.8079C86.4358 28.5175 86.9157 28.115 87.2991 27.6259C87.6824 27.1369 87.9608 26.5721 88.1164 25.9678C88.2009 25.6067 88.2578 25.2395 88.2868 24.8695C88.2915 24.8944 88.2915 24.9199 88.2868 24.9448C88.2868 25.0013 88.2868 25.0735 88.2868 25.1582C88.2868 25.2759 88.2775 25.3935 88.2589 25.5097C88.2429 25.6695 88.215 25.8279 88.1753 25.9835C88.0771 26.4141 87.9141 26.8269 87.6921 27.2074C87.3992 27.7131 87.0134 28.1573 86.5555 28.516C85.9546 28.9855 85.2464 29.2939 84.4965 29.4123C83.7467 29.5308 82.9795 29.4557 82.266 29.1938C81.8521 29.0465 81.4634 28.8347 81.1139 28.5662C80.7438 28.2934 80.4187 27.9629 80.1507 27.5871C79.5734 26.7994 79.2617 25.8443 79.2617 24.8632C79.2617 23.8821 79.5734 22.927 80.1507 22.1393C80.4178 21.7636 80.743 21.434 81.1139 21.1634C81.4644 20.8963 81.8528 20.6847 82.266 20.5358C83.0297 20.2571 83.8532 20.191 84.6508 20.3443C85.283 20.4695 85.8815 20.7302 86.4061 21.1091C86.9307 21.488 87.3692 21.9762 87.6921 22.541C87.9146 22.9201 88.0776 23.3319 88.1753 23.7617C88.215 23.9173 88.2429 24.0757 88.2589 24.2356C88.2775 24.3518 88.2868 24.4693 88.2868 24.5871C88.2868 24.6718 88.2868 24.744 88.2868 24.8036C88.2896 24.8223 88.2896 24.8414 88.2868 24.8601Z" fill="white"/>
<path d="M64.7895 43.376C64.7346 43.3484 64.6836 43.3136 64.6378 43.2724C64.5417 43.2002 64.4055 43.0904 64.2258 42.9586C63.7251 42.5523 63.2551 42.1086 62.8197 41.6312C62.1478 40.9268 61.688 40.0428 61.4942 39.083C61.43 38.5165 61.4051 37.946 61.4199 37.3759C61.4304 36.7786 61.262 36.1921 60.9367 35.6939C60.5722 35.2153 60.167 34.7701 59.7257 34.3633C59.3165 33.9618 58.9791 33.4914 58.7285 32.9731C58.5066 32.5041 58.3443 32.0086 58.2453 31.4982C58.1521 31.0559 58.1095 30.6042 58.1183 30.152C58.1183 29.7346 58.2143 29.3706 58.2515 29.0505C58.2878 28.7769 58.294 28.5001 58.2701 28.2252C58.2174 27.7733 58.1307 27.5317 58.1462 27.5254C58.1747 27.5804 58.1975 27.6382 58.2143 27.698C58.266 27.8674 58.3053 28.0405 58.332 28.2158C58.3653 28.4961 58.3653 28.7796 58.332 29.0599C58.3042 29.3737 58.2298 29.7503 58.2205 30.1551C58.2252 31.1074 58.4367 32.047 58.84 32.9072C59.0864 33.4085 59.4165 33.8629 59.8155 34.2504C60.2681 34.6611 60.6827 35.1128 61.0544 35.5997C61.2343 35.8619 61.3674 36.154 61.4477 36.4627C61.5188 36.7598 61.5572 37.064 61.5623 37.3696C61.547 37.9332 61.5687 38.4973 61.6274 39.0579C61.8071 39.9979 62.2438 40.8678 62.8879 41.5684C63.3131 42.0494 63.7694 42.5012 64.2537 42.921L64.6749 43.2473C64.7172 43.2863 64.7555 43.3294 64.7895 43.376Z" fill="#455A64"/>
<path d="M61.2676 36.0664C61.273 36.1091 61.273 36.1524 61.2676 36.1951C61.2676 36.2798 61.2676 36.4022 61.2428 36.5622C61.1905 37.0133 61.0866 37.4566 60.9331 37.8834C60.4438 39.3157 59.4721 40.5276 58.1887 41.3063C56.9053 42.085 55.3922 42.3808 53.9151 42.1418C53.4726 42.074 53.0393 41.9551 52.6236 41.7872C52.4749 41.7307 52.3665 41.6679 52.2922 41.6334C52.2178 41.5989 52.1807 41.5738 52.1838 41.5675C52.7496 41.7792 53.3347 41.9337 53.9305 42.0288C54.5781 42.1135 55.2344 42.1019 55.8786 41.9943C57.4741 41.7466 58.9104 40.8759 59.8801 39.5685C60.2772 39.0442 60.5965 38.4637 60.8278 37.8457C61.0298 37.2681 61.1771 36.6723 61.2676 36.0664Z" fill="#455A64"/>
<path d="M60.0759 34.5918C60.063 34.7382 60.0329 34.8826 59.9861 35.0217C59.8763 35.4065 59.7301 35.7795 59.5494 36.1357C58.9467 37.3185 58.0336 38.3099 56.9107 39.0008C55.785 39.684 54.5057 40.0643 53.1941 40.1055C52.7998 40.1177 52.4051 40.0967 52.0141 40.0427C51.8699 40.0295 51.7276 40 51.5898 39.9548C52.1227 39.9936 52.6571 40.0052 53.1911 39.9893C54.4766 39.9174 55.7255 39.5297 56.8302 38.8596C57.9288 38.1813 58.8323 37.2225 59.4503 36.0793C59.6908 35.5979 59.8998 35.101 60.0759 34.5918Z" fill="#455A64"/>
<path d="M51.0156 31.4647C51.1007 31.3975 51.1945 31.3426 51.2944 31.3015C51.4051 31.241 51.52 31.1886 51.6381 31.1446C51.7928 31.079 51.951 31.0224 52.112 30.9752C52.529 30.8483 52.9575 30.7642 53.3911 30.7241C53.9224 30.6771 54.4571 30.6877 54.9861 30.7555C55.5144 30.831 56.0335 30.9625 56.5347 31.1477C56.9418 31.3061 57.3319 31.5059 57.6992 31.744C57.8402 31.8339 57.9757 31.9324 58.1049 32.039C58.2075 32.1134 58.3038 32.1964 58.393 32.2869C58.4755 32.3571 58.5494 32.4372 58.6129 32.5254C58.5912 32.5505 58.266 32.2116 57.6373 31.8413C57.2696 31.6218 56.883 31.4369 56.482 31.289C55.9887 31.1179 55.4806 30.994 54.9645 30.9187C54.4509 30.8533 53.9324 30.8375 53.4159 30.8716C52.9901 30.9051 52.5682 30.9776 52.1554 31.0881C51.4368 31.2764 51.0466 31.4929 51.0156 31.4647Z" fill="#455A64"/>
<path d="M58.1469 30.884C58.1191 30.9185 56.1648 29.2365 53.7862 27.1183C51.4076 25 49.4998 23.2772 49.5276 23.2427C49.5555 23.2082 51.5098 24.8934 53.8915 27.0084C56.2732 29.1235 58.1717 30.8526 58.1469 30.884Z" fill="#FF725E"/>
<path d="M67.0703 27.4488C67.2182 27.1549 67.4378 26.9043 67.7083 26.7207C67.9443 26.4928 68.2345 26.3306 68.5507 26.25C68.3198 26.4694 68.0712 26.6689 67.8074 26.8462C67.5774 27.066 67.331 27.2675 67.0703 27.4488Z" fill="white"/>
<path d="M58.3723 29.2157C58.3569 29.1961 58.3435 29.1751 58.3321 29.1529C58.3042 29.0996 58.2701 29.0368 58.2268 28.9615C58.1067 28.7076 58.0252 28.4367 57.9852 28.1581C57.8708 27.1144 58.1643 26.0668 58.8028 25.2397C59.0045 24.9623 59.2362 24.7086 59.4935 24.4834C59.7756 24.244 60.0806 24.0337 60.404 23.8558C61.1219 23.4748 61.8925 23.206 62.6897 23.0587C64.3653 22.7041 66.2514 22.7888 68.1716 22.5001C69.1112 22.3742 70.0232 22.0888 70.8692 21.656C71.6422 21.2302 72.3411 20.679 72.9381 20.0242C73.9514 18.9088 74.7628 17.6214 75.3353 16.2208C75.8432 15.0314 76.1622 14.0241 76.3945 13.3463L76.6577 12.5523L76.729 12.3483C76.7362 12.3245 76.7456 12.3014 76.7568 12.2793C76.7568 12.2793 76.7568 12.3044 76.7568 12.3515L76.7011 12.5617L76.444 13.3776C76.1572 14.3616 75.8192 15.3295 75.4313 16.2772C74.8675 17.6996 74.0567 19.0079 73.0372 20.1403C72.4282 20.8069 71.7145 21.3668 70.925 21.7972C70.0674 22.2411 69.1416 22.534 68.1871 22.6633C66.2421 22.9583 64.3653 22.8641 62.7083 23.2093C61.0513 23.5545 59.6298 24.2543 58.8834 25.3087C58.2569 26.1066 57.9555 27.1171 58.0409 28.133C58.0944 28.5094 58.2062 28.8748 58.3723 29.2157Z" fill="#FAFAFA"/>
<path d="M60.3384 41.677C60.2736 42.1111 60.1485 42.5337 59.9668 42.9322C59.7575 43.4115 59.4856 43.86 59.1584 44.2659C58.7245 44.8082 58.1926 45.2619 57.5913 45.6027C56.8548 46.0072 56.0318 46.2227 55.1941 46.2304C54.2272 46.2529 53.2772 45.9711 52.4748 45.4239C51.5924 44.8051 50.954 43.8904 50.6723 42.8412C50.5219 42.2886 50.4902 41.7096 50.5794 41.1435C50.6775 40.5609 50.8983 40.0064 51.2267 39.518C51.7622 38.6947 52.5836 38.1055 53.5279 37.8673V38.0242C52.5699 37.8741 51.6599 37.499 50.8705 36.929C50.1387 36.4059 49.5556 35.6971 49.1795 34.8736C48.8486 34.1334 48.7069 33.3208 48.7676 32.5106C48.8188 31.8105 49.0505 31.1363 49.4397 30.5555C49.767 30.0842 50.1893 29.6884 50.6785 29.3944C51.0421 29.1769 51.4387 29.0221 51.8523 28.9363C52.1112 28.8842 52.3754 28.8642 52.639 28.8766L52.8403 28.8986C52.8629 28.8952 52.8859 28.8952 52.9084 28.8986C52.5575 28.8802 52.2057 28.9076 51.8616 28.9802C51.4586 29.0736 51.0735 29.2337 50.7219 29.454C50.2526 29.7489 49.8496 30.1401 49.5388 30.6026C49.1665 31.1704 48.9476 31.8272 48.9039 32.5074C48.8521 33.2951 48.9947 34.0835 49.3189 34.8014C49.6886 35.599 50.2577 36.2849 50.9696 36.7909C51.7428 37.3426 52.6308 37.7066 53.565 37.8548L53.9646 37.9175L53.5712 38.0117C52.6654 38.2415 51.8782 38.8084 51.3661 39.5995C51.0504 40.0712 50.8391 40.6065 50.7467 41.1686C50.6618 41.7127 50.6914 42.2687 50.8334 42.8004C51.1019 43.8188 51.7174 44.7081 52.5709 45.3109C53.3469 45.8437 54.2662 46.1209 55.2034 46.1048C56.0215 46.1018 56.8264 45.8961 57.5479 45.5055C58.1396 45.1781 58.665 44.7406 59.0965 44.2157C59.4252 43.8193 59.7021 43.3816 59.9203 42.9134C60.0557 42.6164 60.1706 42.3102 60.2641 41.9971C60.292 41.8966 60.3137 41.8151 60.3291 41.7492L60.3384 41.677Z" fill="#263238"/>
<path d="M58.5155 28.1054C58.4892 28.0976 58.4642 28.0859 58.4412 28.0709L58.2244 27.9548C57.9533 27.7975 57.6954 27.618 57.4532 27.4181C56.5533 26.6736 55.8668 25.6983 55.4648 24.5939C54.9984 23.2847 54.9571 21.8587 55.3471 20.5241C55.7372 19.1895 56.538 18.0161 57.6328 17.1754C58.5089 16.5212 59.494 16.0322 60.541 15.7318C61.5879 15.4323 62.6618 15.24 63.7465 15.1576C64.7872 15.0571 65.7906 15.0101 66.7445 14.9442C67.6474 14.8866 68.5468 14.7819 69.439 14.6304C70.2139 14.4954 70.9741 14.2852 71.7092 14.0027C72.7764 13.6038 73.7491 12.9827 74.5648 12.1795C74.7795 11.9536 74.9792 11.7136 75.1625 11.4609L75.305 11.2632C75.3197 11.239 75.3374 11.2169 75.3576 11.1973C75.1538 11.5715 74.9017 11.9165 74.6081 12.2234C73.7987 13.0549 72.8199 13.6975 71.7402 14.1063C71 14.3979 70.2334 14.6154 69.4514 14.7559C68.5552 14.9088 67.6517 15.0135 66.7445 15.0697C64.8398 15.2235 62.7183 15.2391 60.5968 15.8762C59.569 16.1719 58.6011 16.65 57.7381 17.2883C56.6651 18.1093 55.877 19.2542 55.4874 20.5581C55.0978 21.862 55.1268 23.2575 55.5701 24.5436C55.9586 25.6303 56.6206 26.5952 57.4904 27.3428C57.7263 27.5474 57.9769 27.7341 58.2399 27.9014L58.4443 28.0301C58.4713 28.0518 58.4952 28.0771 58.5155 28.1054Z" fill="#263238"/>
<path d="M93.0321 23.476C92.9966 23.5189 92.9526 23.554 92.903 23.5788C92.8535 23.6037 92.7993 23.6178 92.7441 23.6203C92.5833 23.6235 92.4252 23.5777 92.2905 23.4887C92.1557 23.3997 92.0504 23.2717 91.9884 23.1214C91.9407 23.0123 91.9197 22.8931 91.9272 22.7739C91.9348 22.6548 91.9706 22.5393 92.0317 22.4373C92.1747 22.196 92.3925 22.0096 92.6512 21.9069C92.9668 21.7913 93.3064 21.7594 93.6376 21.8143C93.9689 21.8693 94.2807 22.0092 94.5435 22.2208C94.8602 22.4524 95.1043 22.7716 95.2465 23.1402C95.3969 23.5408 95.4271 23.9775 95.3333 24.3955C95.2383 24.8485 94.9962 25.2562 94.6457 25.5534C94.2745 25.8651 93.8211 26.0593 93.3418 26.112C92.8305 26.1496 92.3174 26.0704 91.8404 25.8803C91.3633 25.6902 90.9344 25.3941 90.5854 25.0137C90.2007 24.6281 89.9001 24.1653 89.7027 23.6549C89.5011 23.1243 89.4476 22.5479 89.5478 21.9885C89.655 21.4416 89.8233 20.9089 90.0496 20.4006C90.2571 19.8986 90.4491 19.4027 90.6102 18.9069C90.9321 17.9544 91.1401 16.9661 91.2296 15.9634C91.3126 15.0586 91.2583 14.1464 91.0685 13.2583C90.8995 12.4806 90.601 11.7378 90.1858 11.0616C89.5878 10.0782 88.7293 9.28447 87.7082 8.77082C87.429 8.64255 87.14 8.53759 86.8441 8.45701L86.6087 8.39738C86.5816 8.3919 86.5555 8.38238 86.5312 8.36914H86.6118L86.8503 8.41307C87.1543 8.48314 87.451 8.58298 87.736 8.71119C88.7801 9.21369 89.6603 10.0086 90.2726 11.002C90.7034 11.6753 91.0177 12.4182 91.2017 13.1987C91.4011 14.1002 91.4617 15.0274 91.3813 15.9477C91.2942 16.9631 91.0862 17.9641 90.7619 18.9289C90.6009 19.431 90.4057 19.9331 90.1982 20.432C89.9786 20.9352 89.8145 21.4614 89.7089 22.0011C89.6164 22.5281 89.6678 23.0706 89.8576 23.5701C90.0447 24.0612 90.3329 24.5062 90.7031 24.8756C91.0344 25.2398 91.442 25.5243 91.8958 25.7084C92.3497 25.8925 92.8385 25.9714 93.3263 25.9394C93.7807 25.8924 94.2115 25.7113 94.5652 25.4185C94.8947 25.1435 95.1237 24.7645 95.2156 24.3421C95.3063 23.9481 95.2816 23.5358 95.1443 23.1559C95.0108 22.8074 94.7833 22.504 94.4877 22.2804C94.2408 22.0772 93.9465 21.9416 93.6331 21.8867C93.3197 21.8318 92.9976 21.8593 92.6976 21.9666C92.4549 22.0573 92.249 22.2273 92.1123 22.4498C92.0533 22.542 92.0173 22.6473 92.0076 22.7566C91.9979 22.866 92.0147 22.9761 92.0565 23.0775C92.1128 23.2191 92.2087 23.341 92.3326 23.428C92.4564 23.515 92.6027 23.5633 92.7534 23.567C92.8526 23.5624 92.9488 23.531 93.0321 23.476Z" fill="#263238"/>
<g opacity="0.2">
<path d="M91.0531 94.4968C92.5583 94.0669 94.1193 95.4382 95.6462 95.0836C96.5753 94.864 97.2752 94.0229 97.6965 93.1411C98.1177 92.2593 98.3438 91.2865 98.7897 90.4141C99.2357 89.5417 99.979 88.7415 100.939 88.6066C101.819 88.4873 102.862 88.9047 103.516 88.2927C104.021 87.822 103.953 86.9496 103.55 86.3879C103.147 85.8262 102.509 85.4967 101.893 85.1892C101.217 84.815 100.498 84.5263 99.7529 84.3293C98.9999 84.1352 98.2027 84.229 97.5137 84.5929C96.2253 85.3523 95.9652 87.0752 95.5904 88.5375C95.3617 89.5664 94.9321 90.5384 94.3268 91.3963C93.7121 92.2567 92.8016 92.8523 91.7748 93.0658C91.3794 93.0804 90.9917 93.181 90.6381 93.3608C90.3129 93.5867 90.1859 94.1516 90.5235 94.3619" fill="black"/>
</g>
<path d="M83.207 88.8597L88.85 86.867L93.9076 78.8554C94.1543 78.4646 94.4771 78.1289 94.8563 77.8688C95.2354 77.6087 95.663 77.4297 96.1127 77.3428L105.184 75.6074C105.299 75.9577 105.284 76.3385 105.141 76.678C104.997 77.0174 104.736 77.2919 104.407 77.4495C103.196 78.1493 97.748 79.4359 97.748 79.4359L106.138 79.2916C106.138 79.2916 106.395 80.5186 105.444 80.9579C104.494 81.3972 98.5161 81.6169 98.5161 81.6169L106.175 82.7215C106.175 82.7215 106.219 83.9548 104.469 83.9768C102.746 83.9609 101.025 83.8562 99.312 83.663C99.2411 83.6521 99.1687 83.6701 99.1107 83.713C99.0527 83.7559 99.0138 83.8202 99.0023 83.892C98.9911 83.9613 99.0063 84.0322 99.0449 84.0905C99.0834 84.1488 99.1424 84.19 99.2098 84.2058L104.298 85.4234C104.445 85.4565 104.577 85.5378 104.673 85.6547C104.77 85.7716 104.825 85.9175 104.831 86.0697C104.837 86.2219 104.793 86.3719 104.707 86.4962C104.62 86.6206 104.495 86.7123 104.351 86.7571C104.258 86.781 104.161 86.7874 104.066 86.776C103.202 86.6881 98.0206 86.0228 98.0206 86.0228C98.0206 86.0228 96.1933 92.5124 95.0102 93.0365C93.8271 93.5605 91.3463 93.7049 91.3463 93.7049L86.0812 95.8168L83.207 88.8597Z" fill="#FFBE9D"/>
<path d="M105.556 79.2651C105.412 79.296 105.264 79.3108 105.116 79.309L103.915 79.3687C102.902 79.4126 101.499 79.4628 99.9536 79.5036L97.7701 79.5601C97.1827 79.5352 96.5958 79.6203 96.0388 79.8111C95.6722 79.9573 95.3609 80.2178 95.1499 80.5549C95.0821 80.6845 95.0231 80.8187 94.9734 80.9565C94.9672 80.9181 94.9672 80.8789 94.9734 80.8404C94.9972 80.7314 95.0346 80.626 95.0849 80.5266C95.2867 80.1593 95.6039 79.871 95.9862 79.7076C96.5525 79.4948 97.154 79.3946 97.7577 79.4126L99.9257 79.3435C101.474 79.3028 102.877 79.2714 103.89 79.2557H105.092C105.247 79.2457 105.402 79.2489 105.556 79.2651Z" fill="#AA6550"/>
<path d="M105.685 82.7431C105.549 82.7484 105.413 82.739 105.279 82.7148L104.183 82.5736C103.254 82.4512 101.978 82.2598 100.568 82.0527C99.8653 81.9523 99.1933 81.8236 98.5862 81.7702C98.0538 81.7052 97.5143 81.8036 97.0377 82.0527C96.7199 82.2315 96.4458 82.4803 96.2355 82.7807C96.0869 82.9941 96.028 83.129 96.0156 83.1228C96.0205 83.0868 96.031 83.0519 96.0466 83.0192C96.0843 82.9235 96.1299 82.8311 96.1829 82.7431C96.3822 82.4178 96.6564 82.1465 96.9819 81.9523C97.4738 81.6742 98.0387 81.558 98.5986 81.6196C99.218 81.6667 99.8901 81.7922 100.596 81.8895C102.005 82.1029 103.281 82.3069 104.201 82.4606L105.291 82.6521C105.425 82.6694 105.557 82.6998 105.685 82.7431Z" fill="#AA6550"/>
<path d="M101.427 84.7157C101.127 84.6728 100.831 84.6078 100.541 84.5211C99.9959 84.3862 99.2464 84.1854 98.4164 84.0128C98.2189 83.9659 98.018 83.9354 97.8156 83.9218C97.6342 83.929 97.4576 83.9818 97.3014 84.0755C97.0241 84.2309 96.7906 84.4556 96.6232 84.7283C96.4845 84.9945 96.3933 85.2835 96.3537 85.5818C96.3278 85.5008 96.3215 85.4148 96.3351 85.3308C96.3513 85.1004 96.4146 84.876 96.521 84.6718C96.6873 84.3691 96.9313 84.1176 97.2271 83.9437C97.405 83.8363 97.6057 83.7738 97.8125 83.7617C98.0261 83.7734 98.2385 83.8028 98.4474 83.8496C99.2898 84.0285 100.033 84.245 100.569 84.4082C100.864 84.4816 101.152 84.5846 101.427 84.7157Z" fill="#AA6550"/>
<path d="M58.2646 91.206L58.2646 91.2061L58.2704 91.2051L87.8367 86.3357L91.5666 95.8344C80.4686 99.7283 69.0841 103.243 57.9138 106.335C57.0094 106.517 56.0875 106.596 55.1657 106.569L55.1657 106.569L55.1607 106.569C53.3031 106.577 50.0886 106.202 47.2369 104.34C44.416 102.497 41.9324 99.1868 41.4804 93.2972L58.2646 91.206Z" fill="white" stroke="#E4E4E4" stroke-width="0.3"/>
<path d="M91.763 95.9258C91.7341 95.8697 91.7083 95.8121 91.6856 95.7532C91.6329 95.6308 91.5648 95.4614 91.4719 95.2417C91.2892 94.7835 91.0228 94.1245 90.6852 93.2835L87.8699 86.1914L87.9412 86.2322L73.5179 88.6736C70.1111 89.2667 66.8436 89.6527 63.8828 90.0513C62.3992 90.249 60.9931 90.4467 59.6831 90.6789C59.0265 90.7856 58.3947 90.8902 57.7876 90.9927C57.2059 91.0872 56.63 91.215 56.0625 91.3755C54.3534 91.9212 52.9136 93.1062 52.0363 94.6894C51.796 95.1152 51.5978 95.564 51.4447 96.0294C51.3921 96.1894 51.358 96.3149 51.3363 96.3965C51.3257 96.4396 51.3111 96.4816 51.293 96.522C51.3218 96.3521 51.3622 96.1843 51.4138 96.0199C51.5548 95.547 51.7448 95.0905 51.9805 94.658C52.3529 93.971 52.8319 93.349 53.399 92.8159C54.1582 92.1127 55.0583 91.5839 56.0378 91.2657C56.6093 91.1008 57.1893 90.9678 57.7752 90.8672C58.3947 90.7542 59.0141 90.6381 59.6707 90.5283C60.9839 90.3086 62.3899 90.1015 63.8704 89.9006C66.8343 89.4958 70.0987 89.1067 73.4993 88.5104L87.9288 86.1035H87.9814L88 86.1537C89.1521 89.1161 90.0999 91.5576 90.7627 93.2647L91.5183 95.2354C91.602 95.4582 91.6639 95.6308 91.7135 95.7532C91.763 95.8756 91.763 95.9258 91.763 95.9258Z" fill="#263238"/>
<path d="M50.4297 106.203C50.4759 106.208 50.5215 106.217 50.566 106.231L50.9593 106.328C51.3062 106.404 51.8172 106.523 52.4862 106.604C54.3761 106.84 56.292 106.747 58.1508 106.328C58.7393 106.203 59.3463 106.033 59.9812 105.851L61.9572 105.286L66.2931 104.031C69.3562 103.127 72.7166 102.114 76.2318 101.006C82.1163 99.1546 87.5239 97.3407 91.7174 95.8753L91.6802 95.96C90.5219 92.9788 89.5711 90.5405 88.9114 88.8365C88.5862 87.9923 88.3353 87.3302 88.1588 86.872C88.0752 86.6524 88.0132 86.4829 87.9668 86.3574C87.9203 86.2318 87.9079 86.1816 87.9079 86.1816C87.9079 86.1816 87.9358 86.2381 87.9853 86.3511C88.0349 86.4641 88.103 86.6429 88.1929 86.8595L88.9764 88.8082L91.7979 95.9129L91.8227 95.9757L91.7607 95.9976C87.561 97.4851 82.1597 99.3083 76.2751 101.163C72.7599 102.271 69.3964 103.281 66.3303 104.179L61.9695 105.434L59.9905 105.986C59.3711 106.165 58.7516 106.335 58.1539 106.457C56.2818 106.868 54.3535 106.945 52.4552 106.686C51.7663 106.591 51.0879 106.43 50.4297 106.203Z" fill="#263238"/>
<path d="M56.9869 91.06C56.8481 91.0971 56.7059 91.1192 56.5626 91.1259L55.4011 91.242L51.5731 91.6217L47.7451 92.036L46.5836 92.1583C46.4425 92.1827 46.2992 92.1912 46.1562 92.1834C46.294 92.1423 46.4349 92.1129 46.5775 92.0956C46.85 92.0516 47.2433 91.992 47.7327 91.923C48.7083 91.7849 50.0586 91.6092 51.5545 91.4617C53.0504 91.3142 54.4101 91.1949 55.3919 91.129C55.8843 91.0945 56.2838 91.0726 56.5595 91.06C56.7017 91.0477 56.8447 91.0477 56.9869 91.06Z" fill="#263238"/>
<path d="M119.585 30.3858C119.275 27.805 117.204 25.3999 114.729 25.3999C113.27 25.3999 111.88 26.2005 110.882 27.3233C110.528 27.7007 110.201 28.1066 109.907 28.5372C109.697 28.0541 109.453 27.5884 109.176 27.1443C108.408 25.8425 107.197 24.7652 105.769 24.4626C103.341 23.9549 100.857 25.8815 100.073 28.3485C99.2898 30.8154 99.9433 33.5817 101.229 35.8013C102.514 38.0209 104.728 40.9272 108.807 42.3657C111.616 41.9881 115.382 39.3683 117.058 37.4546C118.733 35.5409 119.889 32.9666 119.585 30.3858Z" fill="#4FBCB6"/>
<path d="M118.695 35.0178H118.614L118.376 35.0015L117.447 34.9202L114.083 34.5947L114.142 34.5557L112.742 38.396L112.656 38.6271L112.6 38.3862C112.175 36.5214 111.695 34.4353 111.191 32.2352L110.735 30.2337L110.878 30.2662L108.31 33.9764L108.285 34.0089H108.258L102.345 33.358L100.673 33.1627L100.23 33.1042L100.078 33.0749C100.13 33.0698 100.181 33.0698 100.233 33.0749L100.676 33.1107L102.355 33.2636L108.27 33.8494L108.205 33.882L110.76 30.1621L110.862 30.0156L110.903 30.1914C111.051 30.8423 111.212 31.516 111.361 32.1994C111.86 34.3995 112.333 36.4889 112.758 38.3537H112.615L114.046 34.5231L114.062 34.4808H114.105L117.465 34.8583L118.379 34.9723L118.614 35.0048L118.695 35.0178Z" fill="#FAFAFA"/>
</svg>
