<svg width="17" height="16" viewBox="0 0 17 16" fill="none" xmlns="http://www.w3.org/2000/svg">
<g id="edit">
<path id="Vector" d="M7.83203 2.66699H3.16536C2.81174 2.66699 2.4726 2.80747 2.22256 3.05752C1.97251 3.30756 1.83203 3.6467 1.83203 4.00033V13.3337C1.83203 13.6873 1.97251 14.0264 2.22256 14.2765C2.4726 14.5265 2.81174 14.667 3.16536 14.667H12.4987C12.8523 14.667 13.1915 14.5265 13.4415 14.2765C13.6916 14.0264 13.832 13.6873 13.832 13.3337V8.66699" stroke="#3A643B" stroke-linecap="round" stroke-linejoin="round"/>
<path id="Vector_2" d="M12.832 1.66714C13.0972 1.40193 13.457 1.25293 13.832 1.25293C14.2071 1.25293 14.5668 1.40193 14.832 1.66714C15.0972 1.93236 15.2462 2.29207 15.2462 2.66714C15.2462 3.04222 15.0972 3.40193 14.832 3.66714L8.4987 10.0005L5.83203 10.6671L6.4987 8.00048L12.832 1.66714Z" stroke="#3A643B" stroke-linecap="round" stroke-linejoin="round"/>
</g>
</svg>
