<svg width="20" height="20" viewBox="0 0 20 20" fill="none" xmlns="http://www.w3.org/2000/svg">
<g id="chat-foot-icon-02.svg" clip-path="url(#clip0_1_22003)">
<path id="Vector" opacity="0.4" d="M17.0712 2.92875C13.1667 -0.97625 6.83316 -0.97625 2.92859 2.92875C-0.975984 6.83332 -0.976409 13.1668 2.92859 17.0714C6.83316 20.976 13.1667 20.9764 17.0712 17.0714C20.9758 13.1668 20.9762 6.83545 17.0712 2.92875ZM13.5292 5.9408C14.324 5.9408 14.9679 6.58469 14.9679 7.37946C14.9679 8.17466 14.324 8.81812 13.5292 8.81812C12.7344 8.81812 12.0905 8.17466 12.0905 7.37946C12.0905 6.58469 12.7344 5.9408 13.5292 5.9408ZM6.46808 5.85027C7.26285 5.85027 7.90674 6.49416 7.90674 7.28894C7.90674 8.08371 7.26285 8.7276 6.46808 8.7276C5.67331 8.7276 5.02942 8.08371 5.02942 7.28894C5.02687 6.49416 5.67331 5.85027 6.46808 5.85027ZM15.089 12.6976C14.6266 13.5829 13.9223 14.336 13.0855 14.8775C11.8003 15.7075 10.1916 15.9609 8.70406 15.6285C7.09327 15.266 5.67076 14.1597 4.90872 12.6976C4.72724 12.3512 4.82966 11.956 5.15947 11.7422C5.46633 11.5446 5.94532 11.6678 6.1149 11.9934C6.18927 12.1375 6.27045 12.2769 6.35673 12.4116C6.4005 12.4813 6.44725 12.5463 6.49358 12.6139C6.51441 12.6441 6.54501 12.6742 6.56328 12.707C6.75156 12.939 6.95854 13.1532 7.1838 13.3483C7.23523 13.3925 7.28623 13.4342 7.33723 13.4762C7.32575 13.469 7.31428 13.4597 7.30493 13.4507C7.2977 13.4461 7.29558 13.4435 7.29345 13.4435C7.29728 13.4478 7.35933 13.4954 7.3725 13.5047C7.37123 13.503 7.36868 13.5005 7.36485 13.4975C7.37165 13.5022 7.37888 13.5068 7.3861 13.5111C7.48853 13.5855 7.59521 13.6573 7.70231 13.7249C7.89527 13.8435 8.09502 13.948 8.302 14.0411C8.66241 14.1852 9.0343 14.2872 9.41765 14.3454C9.80569 14.3896 10.1963 14.3896 10.5843 14.3454C10.9655 14.285 11.34 14.1852 11.7 14.0411C11.9069 13.9501 12.1067 13.8435 12.2997 13.7249C12.4136 13.6552 12.5228 13.5808 12.6299 13.5017C12.6367 13.4971 12.6439 13.4924 12.6507 13.4877C12.6414 13.4945 12.632 13.5017 12.6227 13.5111C12.6333 13.5039 12.6426 13.4954 12.6528 13.4877C12.6537 13.4873 12.6541 13.4864 12.655 13.486C12.6618 13.4796 12.6703 13.4733 12.6762 13.469C12.7251 13.4295 12.7714 13.39 12.8182 13.3504C13.046 13.1532 13.2551 12.9369 13.4434 12.7023C13.4548 12.6883 13.4663 12.6721 13.4782 12.6581C13.4786 12.6572 13.4795 12.6564 13.4803 12.6555C13.4816 12.6538 13.4825 12.6521 13.4837 12.6509C13.4918 12.6381 13.4999 12.6241 13.5084 12.6139C13.5547 12.5489 13.6015 12.4813 13.6457 12.4116C13.7336 12.2769 13.8127 12.1375 13.8871 11.9934C14.0685 11.647 14.5216 11.5726 14.8425 11.7422C15.1817 11.9258 15.256 12.3746 15.089 12.6976Z" fill="#3A643B"/>
<path id="Vector_2" d="M15.0896 12.697C14.6271 13.5823 13.9229 14.3354 13.0861 14.8769C11.8008 15.7069 10.1922 15.9602 8.7046 15.6279C7.09381 15.2653 5.6713 14.159 4.90926 12.697C4.72778 12.3506 4.83021 11.9554 5.16001 11.7416C5.46687 11.5439 5.94586 11.6672 6.11544 11.9928C6.18982 12.1368 6.27099 12.2762 6.35727 12.411C6.40105 12.4807 6.4478 12.5457 6.49412 12.6133C6.51495 12.6434 6.54555 12.6736 6.56382 12.7063C6.7521 12.9384 6.95909 13.1526 7.18434 13.3477C7.23577 13.3919 7.28677 13.4335 7.33777 13.4756C7.32629 13.4684 7.31482 13.459 7.30547 13.4501C7.29824 13.4454 7.29612 13.4429 7.29399 13.4429C7.29782 13.4471 7.35987 13.4947 7.37305 13.5041C7.37177 13.5024 7.36922 13.4998 7.3654 13.4969C7.3722 13.5015 7.37942 13.5062 7.38665 13.5105C7.48907 13.5848 7.59575 13.6567 7.70285 13.7242C7.89581 13.8428 8.09556 13.9474 8.30254 14.0405C8.66295 14.1845 9.03484 14.2865 9.4182 14.3448C9.80623 14.389 10.1968 14.389 10.5849 14.3448C10.9661 14.2844 11.3405 14.1845 11.7005 14.0405C11.9075 13.9495 12.1073 13.8428 12.3002 13.7242C12.4141 13.6545 12.5233 13.5802 12.6304 13.5011C12.6372 13.4964 12.6445 13.4918 12.6513 13.4871C12.6419 13.4939 12.6326 13.5011 12.6232 13.5105C12.6338 13.5032 12.6432 13.4947 12.6534 13.4871C12.6542 13.4867 12.6547 13.4858 12.6555 13.4854C12.6623 13.479 12.6708 13.4726 12.6768 13.4684C12.7256 13.4289 12.772 13.3893 12.8187 13.3498C13.0465 13.1526 13.2556 12.9363 13.4439 12.7017C13.4554 12.6876 13.4669 12.6715 13.4788 12.6575C13.4792 12.6566 13.48 12.6558 13.4809 12.6549C13.4822 12.6532 13.483 12.6515 13.4843 12.6502C13.4924 12.6375 13.5004 12.6235 13.5089 12.6133C13.5553 12.5482 13.602 12.4807 13.6462 12.411C13.7342 12.2762 13.8132 12.1368 13.8876 11.9928C14.0691 11.6464 14.5222 11.572 14.843 11.7416C15.1822 11.9252 15.2566 12.374 15.0896 12.697Z" fill="#3A643B"/>
<path id="Vector_3" d="M14.5458 8.39733C15.1076 7.8355 15.1076 6.9246 14.5458 6.36278C13.9839 5.80095 13.073 5.80095 12.5112 6.36278C11.9494 6.9246 11.9494 7.8355 12.5112 8.39733C13.073 8.95916 13.9839 8.95916 14.5458 8.39733Z" fill="#3A643B"/>
<path id="Vector_4" d="M7.90663 7.29022C7.90663 8.08499 7.26274 8.72888 6.46797 8.72888C5.6732 8.72888 5.0293 8.08499 5.0293 7.29022C5.02675 6.49545 5.6732 5.85156 6.46797 5.85156C7.26274 5.85156 7.90663 6.49545 7.90663 7.29022Z" fill="#3A643B"/>
</g>
<defs>
<clipPath id="clip0_1_22003">
<rect width="20" height="20" fill="white"/>
</clipPath>
</defs>
</svg>
