<svg width="25" height="26" stroke="#9DB29D" viewBox="0 0 25 26" fill="none" xmlns="http://www.w3.org/2000/svg">
<g id="Frame 2610323">
<path id="Vector" d="M3.57031 11.061L11.6597 4.62424C12.2887 4.11223 13.1956 4.11223 13.8246 4.62424L20.8482 9.99518C22.6823 11.4851 21.3204 12.9627 20.2816 12.9627H19.3979V18.3315C19.3979 19.7944 17.979 20.9794 16.2236 20.9794H12.0254"  stroke-width="1.46285" stroke-linecap="round" stroke-linejoin="round"/>
<path id="Vector_2" d="M11.0751 21.5967L14.0885 18.9782C17.1604 16.1548 16.0194 13.7849 15.9755 13.6971C15.0101 12.1903 13.796 12.1172 13.7521 12.1172C11.6164 12.1172 11.0897 13.7117 11.0897 13.7117C11.0897 13.7117 10.5778 12.1318 8.42743 12.1172C8.36891 12.1172 7.16941 12.1903 6.20395 13.6971C6.16007 13.7849 5.01907 16.1548 8.09098 18.9782L11.1044 21.5967H11.0751Z"  stroke-width="1.46285" stroke-linecap="round" stroke-linejoin="round"/>
</g>
</svg>
