<svg width="15" height="17" viewBox="0 0 15 17" fill="none" xmlns="http://www.w3.org/2000/svg">
<path opacity="0.4" d="M4.16667 16.6666H10.8333C13.1333 16.6666 15 14.8 15 12.5V4.16667C15 1.86667 13.1333 0 10.8333 0H4.16667C1.86667 0 0 1.86667 0 4.16667V12.5C0 14.8 1.86667 16.6666 4.16667 16.6666Z" fill="#BCCAC1"/>
<path d="M10.2 6H4.8C3.81602 6 3 5.77334 3 5.5C3 5.22667 3.81602 5 4.8 5H10.2C11.184 5 12 5.22667 12 5.5C12 5.77334 11.184 6 10.2 6Z" fill="#3A643B"/>
<path d="M10.5 9H4.5C3.68002 9 3 8.77335 3 8.50001C3 8.22668 3.68002 8 4.5 8H10.5C11.32 8 12 8.22668 12 8.50001C12 8.77335 11.32 9 10.5 9Z" fill="#3A643B"/>
<path d="M10.5 12H4.5C3.68002 12 3 11.7733 3 11.5C3 11.2267 3.68002 11 4.5 11H10.5C11.32 11 12 11.2267 12 11.5C12 11.7733 11.32 12 10.5 12Z" fill="#3A643B"/>
</svg>
