<svg width="22" height="20" viewBox="0 0 22 20" fill="none" xmlns="http://www.w3.org/2000/svg">
<g clip-path="url(#clip0_2_18617)">
<g clip-path="url(#clip1_2_18617)">
<path d="M18.9817 9.08073V3.41406C18.9817 2.16406 18.4484 1.66406 17.1234 1.66406H13.7567C12.4317 1.66406 11.8984 2.16406 11.8984 3.41406V9.08073C11.8984 10.3307 12.4317 10.8307 13.7567 10.8307H17.1234C18.4484 10.8307 18.9817 10.3307 18.9817 9.08073Z" fill="#3A643B"/>
<path d="M10.2318 10.9141V16.5807C10.2318 17.8307 9.69844 18.3307 8.37344 18.3307H5.00678C3.68178 18.3307 3.14844 17.8307 3.14844 16.5807V10.9141C3.14844 9.66406 3.68178 9.16406 5.00678 9.16406H8.37344C9.69844 9.16406 10.2318 9.66406 10.2318 10.9141Z" fill="#3A643B"/>
<path opacity="0.4" d="M18.9817 16.5833V14.25C18.9817 13 18.4484 12.5 17.1234 12.5H13.7567C12.4317 12.5 11.8984 13 11.8984 14.25V16.5833C11.8984 17.8333 12.4317 18.3333 13.7567 18.3333H17.1234C18.4484 18.3333 18.9817 17.8333 18.9817 16.5833Z" fill="#3A643B" fill-opacity="0.75"/>
<path opacity="0.4" d="M10.2318 5.7474V3.41406C10.2318 2.16406 9.69844 1.66406 8.37344 1.66406H5.00678C3.68178 1.66406 3.14844 2.16406 3.14844 3.41406V5.7474C3.14844 6.9974 3.68178 7.4974 5.00678 7.4974H8.37344C9.69844 7.4974 10.2318 6.9974 10.2318 5.7474Z" fill="#3A643B" fill-opacity="0.75"/>
</g>
</g>
<defs>
<clipPath id="clip0_2_18617">
<rect width="21" height="20" fill="white" transform="translate(0.5)"/>
</clipPath>
<clipPath id="clip1_2_18617">
<rect width="21" height="20" fill="white" transform="translate(0.5)"/>
</clipPath>
</defs>
</svg>
    