<svg width="16" height="20" viewBox="0 0 16 20" fill="none" xmlns="http://www.w3.org/2000/svg">
<g id="chat-foot-icon-04.svg">
<path id="Vector" opacity="0.4" d="M15.9344 7.2095C15.6094 7.2095 15.3511 7.46783 15.3511 7.79283V9.1095C15.3511 12.0595 12.9511 14.4595 10.0011 14.4595C7.05104 14.4595 4.65105 12.0595 4.65105 9.1095V7.7845C4.65105 7.4595 4.3927 7.20117 4.0677 7.20117C3.7427 7.20117 3.48438 7.4595 3.48438 7.7845V9.10117C3.48438 12.4929 6.0927 15.2845 9.4177 15.5845V17.3595C9.4177 17.6845 9.67604 17.9429 10.0011 17.9429C10.3261 17.9429 10.5844 17.6845 10.5844 17.3595V15.5845C13.9011 15.2929 16.5177 12.4929 16.5177 9.10117V7.7845C16.5094 7.46783 16.2511 7.2095 15.9344 7.2095Z" fill="#3A643B"/>
<path id="Vector_2" d="M9.99974 1.27539C7.96641 1.27539 6.31641 2.92539 6.31641 4.95873V9.22539C6.31641 11.2587 7.96641 12.9087 9.99974 12.9087C12.0331 12.9087 13.6831 11.2587 13.6831 9.22539V4.95873C13.6831 2.92539 12.0331 1.27539 9.99974 1.27539ZM11.0915 7.06706C11.0331 7.28373 10.8415 7.42539 10.6248 7.42539C10.5831 7.42539 10.5415 7.41706 10.4998 7.40872C10.1748 7.31706 9.83308 7.31706 9.50808 7.40872C9.24141 7.48373 8.98308 7.32539 8.91641 7.06706C8.84141 6.80873 8.99974 6.54206 9.25808 6.47539C9.74974 6.34206 10.2665 6.34206 10.7581 6.47539C11.0081 6.54206 11.1581 6.80873 11.0915 7.06706ZM11.5331 5.45039C11.4581 5.65039 11.2748 5.76706 11.0748 5.76706C11.0165 5.76706 10.9665 5.75873 10.9081 5.74206C10.3248 5.52539 9.67474 5.52539 9.09141 5.74206C8.84141 5.83373 8.55808 5.70039 8.46641 5.45039C8.37474 5.20039 8.50808 4.91706 8.75808 4.83373C9.55808 4.54206 10.4415 4.54206 11.2415 4.83373C11.4915 4.92539 11.6248 5.20039 11.5331 5.45039Z" fill="#3A643B"/>
</g>
</svg>
