<svg width="21" height="20" viewBox="0 0 21 20" fill="none" xmlns="http://www.w3.org/2000/svg">
<g clip-path="url(#clip0_2_18762)">
<g clip-path="url(#clip1_2_18762)">
<path opacity="0.4" d="M7.23308 18.3307H13.8998C16.1998 18.3307 18.0665 16.4641 18.0665 14.1641V5.83073C18.0665 3.53073 16.1998 1.66406 13.8998 1.66406H7.23308C4.93308 1.66406 3.06641 3.53073 3.06641 5.83073V14.1641C3.06641 16.4641 4.93308 18.3307 7.23308 18.3307Z" fill="#BCCAC1"/>
<path d="M13.0667 4.75781H8.06667C7.20833 4.75781 6.5 5.45781 6.5 6.32448V7.15781C6.5 8.01615 7.2 8.72448 8.06667 8.72448H13.0667C13.925 8.72448 14.6333 8.02448 14.6333 7.15781V6.32448C14.6333 5.45781 13.9333 4.75781 13.0667 4.75781Z" fill="#3A643B"/>
<path d="M7.36706 12.433C7.25039 12.433 7.14206 12.408 7.04206 12.3664C6.94206 12.3247 6.85039 12.2664 6.77539 12.1914C6.61706 12.033 6.52539 11.8247 6.52539 11.5997C6.52539 11.4914 6.55039 11.383 6.59206 11.283C6.63372 11.1747 6.69206 11.0914 6.77539 11.008C6.96706 10.8164 7.25872 10.7247 7.52539 10.783C7.57539 10.7914 7.63372 10.808 7.68372 10.833C7.73372 10.8497 7.78372 10.8747 7.82539 10.908C7.87539 10.933 7.91706 10.9747 7.95039 11.008C8.02539 11.0914 8.09206 11.1747 8.13372 11.283C8.17539 11.383 8.19206 11.4914 8.19206 11.5997C8.19206 11.8247 8.10872 12.033 7.95039 12.1914C7.79206 12.3497 7.58372 12.433 7.36706 12.433Z" fill="#3A643B"/>
<path d="M10.6927 12.4297C10.476 12.4297 10.2677 12.3464 10.1093 12.188C9.95104 12.0297 9.85938 11.8214 9.85938 11.5964C9.85938 11.3797 9.95104 11.163 10.1093 11.0047C10.4177 10.6964 10.976 10.6964 11.2843 11.0047C11.3593 11.088 11.426 11.1714 11.4677 11.2797C11.5093 11.3797 11.526 11.488 11.526 11.5964C11.526 11.8214 11.4427 12.0297 11.2843 12.188C11.126 12.3464 10.9177 12.4297 10.6927 12.4297Z" fill="#3A643B"/>
<path d="M14.0247 12.4297C13.8081 12.4297 13.5997 12.3464 13.4414 12.188C13.2831 12.0297 13.1914 11.8214 13.1914 11.5964C13.1914 11.3797 13.2831 11.163 13.4414 11.0047C13.7497 10.6964 14.3081 10.6964 14.6164 11.0047C14.7747 11.163 14.8664 11.3797 14.8664 11.5964C14.8664 11.7047 14.8414 11.813 14.7997 11.913C14.7581 12.013 14.6997 12.1047 14.6164 12.188C14.4581 12.3464 14.2497 12.4297 14.0247 12.4297Z" fill="#3A643B"/>
<path d="M7.36706 15.7641C7.14206 15.7641 6.93372 15.6807 6.77539 15.5224C6.61706 15.3641 6.52539 15.1557 6.52539 14.9307C6.52539 14.7141 6.61706 14.4974 6.77539 14.3391C6.85039 14.2641 6.94206 14.2057 7.04206 14.1641C7.25039 14.0807 7.47539 14.0807 7.68372 14.1641C7.73372 14.1807 7.78372 14.2057 7.82539 14.2391C7.87539 14.2641 7.91706 14.3057 7.95039 14.3391C8.10872 14.4974 8.20039 14.7141 8.20039 14.9307C8.20039 15.1557 8.10872 15.3641 7.95039 15.5224C7.79206 15.6807 7.58372 15.7641 7.36706 15.7641Z" fill="#3A643B"/>
<path d="M10.6927 15.7636C10.476 15.7636 10.2677 15.6803 10.1093 15.5219C9.95104 15.3636 9.85938 15.1553 9.85938 14.9303C9.85938 14.8719 9.86772 14.8219 9.87605 14.7636C9.89272 14.7136 9.90938 14.6636 9.92605 14.6136C9.95105 14.5636 9.97605 14.5136 10.001 14.4636C10.0343 14.4219 10.0677 14.3803 10.1093 14.3386C10.1843 14.2636 10.276 14.2053 10.376 14.1636C10.6843 14.0386 11.051 14.1053 11.2843 14.3386C11.4427 14.4969 11.526 14.7136 11.526 14.9303C11.526 15.1553 11.4427 15.3636 11.2843 15.5219C11.2093 15.5969 11.1177 15.6553 11.0177 15.6969C10.9177 15.7386 10.8093 15.7636 10.6927 15.7636Z" fill="#3A643B"/>
<path d="M14.0262 15.7636C13.9179 15.7636 13.8095 15.7386 13.7095 15.6969C13.6095 15.6553 13.5179 15.5969 13.4429 15.5219C13.2845 15.3636 13.2012 15.1553 13.2012 14.9303C13.2012 14.7136 13.2845 14.4969 13.4429 14.3386C13.6679 14.1053 14.0429 14.0386 14.3512 14.1636C14.4512 14.2053 14.5429 14.2636 14.6179 14.3386C14.7762 14.4969 14.8595 14.7136 14.8595 14.9303C14.8595 15.1553 14.7762 15.3636 14.6179 15.5219C14.4595 15.6803 14.2512 15.7636 14.0262 15.7636Z" fill="#3A643B"/>
</g>
</g>
<defs>
<clipPath id="clip0_2_18762">
<rect width="21" height="20" fill="white"/>
</clipPath>
<clipPath id="clip1_2_18762">
<rect width="21" height="20" fill="white"/>
</clipPath>
</defs>
</svg>
