<svg width="20" height="20" viewBox="0 0 20 20" fill="none" xmlns="http://www.w3.org/2000/svg">
<g clip-path="url(#clip0_2_18653)">
<path opacity="0.4" d="M9.99937 4.41674V17.7751C9.85768 17.7751 9.70769 17.7501 9.59102 17.6834L9.55768 17.6667C7.95769 16.7917 5.16602 15.8751 3.35768 15.6334L3.11602 15.6001C2.31602 15.5001 1.66602 14.7501 1.66602 13.9501V3.88341C1.66602 2.89174 2.47435 2.14174 3.46602 2.22508C5.21602 2.36674 7.86602 3.25008 9.34935 4.17508L9.55768 4.30008C9.68268 4.37508 9.84102 4.41674 9.99937 4.41674Z" fill="#BCCAC1"/>
<path d="M18.3333 3.89128V13.9496C18.3333 14.7496 17.6833 15.4996 16.8833 15.5996L16.6083 15.633C14.7917 15.8746 11.9917 16.7996 10.3917 17.683C10.2833 17.7496 10.15 17.7746 10 17.7746V4.41628C10.1583 4.41628 10.3167 4.37462 10.4417 4.29962L10.5833 4.20795C12.0667 3.27462 14.725 2.38295 16.475 2.23295H16.525C17.5167 2.14962 18.3333 2.89128 18.3333 3.89128Z" fill="#3A643B"/>
<path d="M6.45898 7.70312H4.58398C4.24232 7.70312 3.95898 7.4198 3.95898 7.07812C3.95898 6.73647 4.24232 6.45312 4.58398 6.45312H6.45898C6.80065 6.45312 7.08398 6.73647 7.08398 7.07812C7.08398 7.4198 6.80065 7.70312 6.45898 7.70312Z" fill="#3A643B"/>
<path d="M7.08398 10.2031H4.58398C4.24232 10.2031 3.95898 9.9198 3.95898 9.57812C3.95898 9.23647 4.24232 8.95312 4.58398 8.95312H7.08398C7.42565 8.95312 7.70898 9.23647 7.70898 9.57812C7.70898 9.9198 7.42565 10.2031 7.08398 10.2031Z" fill="#3A643B"/>
</g>
<defs>
<clipPath id="clip0_2_18653">
<rect width="20" height="20" fill="white"/>
</clipPath>
</defs>
</svg>
