<svg width="24" height="24" viewBox="0 0 24 24" fill="none" xmlns="http://www.w3.org/2000/svg" fill="#9DB29D"
>
<g id="noun-growth-2728509 1">
<path id="Vector" d="M15.9301 17.0507L11.444 12.5646C11.1332 12.2538 11.1332 11.7446 11.444 11.4335L14.7877 8.08984L15.9191 9.22096L13.1411 11.9992L17.0612 15.9196L15.9301 17.0507Z" />
<path id="Vector_2" d="M6.40633 8.80078C3.93529 10.553 2.40625 12.9727 2.40625 15.6446C2.40625 17.7516 3.78049 19.5101 5.60617 19.9133V21.6007H7.20625V19.9133C9.03193 19.5093 10.4062 17.7516 10.4062 15.6446C10.4062 12.9727 8.87737 10.553 6.40633 8.80078ZM6.40633 18.4008C5.08297 18.4008 4.00633 17.1641 4.00633 15.6446C4.00633 13.9109 4.85017 12.2376 6.40633 10.8429C7.96249 12.2376 8.80633 13.9109 8.80633 15.6446C8.80633 17.1641 7.72969 18.4008 6.40633 18.4008Z" />
<path id="Vector_3" d="M5.08841 8.00343C6.34625 5.83167 8.58905 4.30119 11.211 4.04103V5.60055H12.8111V4.04103C16.5909 4.41615 19.5957 7.42071 19.9706 11.2005H18.4113V12.8006H19.9706C19.5954 16.5803 16.5909 19.5851 12.8111 19.96V18.4007H11.211V21.5601C11.4758 21.5817 11.7407 21.6004 12.011 21.6004C17.3133 21.6004 21.611 17.3027 21.611 12.0004C21.611 6.69879 17.3133 2.40039 12.011 2.40039C8.45873 2.40039 5.3632 4.33479 3.70312 7.20351L5.08841 8.00343Z" />
</g>
</svg>
