<svg width="26" stroke="#9DB29D" height="26" viewBox="0 0 26 26" fill="none" xmlns="http://www.w3.org/2000/svg">
<g id="Frame 2610324" clip-path="url(#clip0_856_1234)">
<g id="Group">
<path id="Vector" d="M5.1875 10.791H21.7437V20.1579C21.7437 21.719 20.4741 22.9885 18.9129 22.9885H8.03552C6.47426 22.9885 5.20465 21.719 5.20465 20.1579V10.791H5.1875Z"  stroke-width="1.7156"  stroke-linecap="round" stroke-linejoin="round"/>
<path id="Vector_2" d="M23.9909 9.50406C23.9909 9.50406 23.9566 9.41829 23.9223 9.36682L21.6576 5.19806C21.0228 4.04865 19.8218 3.32812 18.5179 3.32812H8.42979C7.17735 3.32812 6.02786 3.98003 5.3759 5.04366L2.71661 9.38398C2.71661 9.38398 2.66515 9.46975 2.64799 9.52122C2.47642 9.93295 2.39062 10.3961 2.39062 10.8593C2.39062 12.8494 4.02052 14.462 6.04501 14.462C7.60627 14.462 8.9445 13.4841 9.4592 12.1117C9.54499 11.9058 9.83664 11.9058 9.90527 12.1117C10.42 13.4841 11.7582 14.462 13.3195 14.462C14.8807 14.462 16.2361 13.4841 16.7508 12.1117C16.8366 11.9058 17.1282 11.9058 17.1969 12.1117C17.7116 13.4841 19.0498 14.462 20.6111 14.462C22.6355 14.462 24.2654 12.8494 24.2654 10.8593C24.2654 10.3961 24.1796 9.93295 24.0081 9.52122L23.9909 9.50406Z"  stroke-width="1.7156" stroke-linecap="round" stroke-linejoin="round"/>
<path id="Vector_3" d="M9.55469 12.0814L10.4811 8.16992"  stroke-width="1.7156" stroke-linecap="round" stroke-linejoin="round"/>
<path id="Vector_4" d="M17.0936 12.0589L16.1328 8.11316"  stroke-width="1.7156" stroke-linecap="round" stroke-linejoin="round"/>
<path id="Vector_5" d="M10.0578 22.9672C10.0406 22.7956 10.0234 22.6241 10.0234 22.4353C10.0234 20.411 11.6705 18.7812 13.6778 18.7812C15.6852 18.7812 17.3322 20.4282 17.3322 22.4353C17.3322 22.6241 17.3322 22.7956 17.2979 22.9672"  stroke-width="1.7156" stroke-linecap="round" stroke-linejoin="round"/>
</g>
</g>
<defs>
<clipPath id="clip0_856_1234">
<rect width="24.9998" height="24.9998" fill="white" transform="translate(0.835938 0.667969)"/>
</clipPath>
</defs>
</svg>
