<svg width="14" height="15"  viewBox="0 0 14 15" fill="none" xmlns="http://www.w3.org/2000/svg">
<g id="Group">
<path id="Vector" fill-rule="evenodd" clip-rule="evenodd" d="M5.18719 6.67773C5.59672 6.67773 5.92837 7.01007 5.92837 7.41958V11.1274C5.92837 11.5369 5.59672 11.8692 5.18719 11.8692C4.77766 11.8692 4.44531 11.5369 4.44531 11.1274V7.41958C4.44531 7.01007 4.77766 6.67773 5.18719 6.67773Z" fill="#A0A0A0"/>
<path id="Vector_2" fill-rule="evenodd" clip-rule="evenodd" d="M8.15524 6.67773C8.56477 6.67773 8.89712 7.01007 8.89712 7.41958V11.1274C8.89712 11.5369 8.56477 11.8692 8.15524 11.8692C7.74572 11.8692 7.41406 11.5369 7.41406 11.1274V7.41958C7.41406 7.01007 7.74572 6.67773 8.15524 6.67773Z" fill="#A0A0A0"/>
<path id="Vector_3" fill-rule="evenodd" clip-rule="evenodd" d="M0 3.71157C0 3.30206 0.332349 2.96973 0.741876 2.96973H12.6076C13.0172 2.96973 13.3495 3.30206 13.3495 3.71157C13.3495 4.12108 13.0172 4.45272 12.6076 4.45272H0.741876C0.332349 4.45272 0 4.12108 0 3.71157Z" fill="#A0A0A0"/>
<path id="Vector_4" fill-rule="evenodd" clip-rule="evenodd" d="M2.22625 5.19238C2.63578 5.19238 2.96813 5.52472 2.96813 5.93423V11.8668C2.96813 12.6859 3.63213 13.3498 4.45117 13.3498H8.901C9.72006 13.3498 10.384 12.6858 10.384 11.8668V5.93423C10.384 5.52472 10.7164 5.19238 11.1259 5.19238C11.5354 5.19238 11.8678 5.52472 11.8678 5.93423V11.8668C11.8678 13.5049 10.5391 14.8335 8.901 14.8335H4.45117C2.81308 14.8335 1.48438 13.5049 1.48438 11.8668V5.93423C1.48438 5.52472 1.81672 5.19238 2.22625 5.19238Z" fill="#A0A0A0"/>
<path id="Vector_5" fill-rule="evenodd" clip-rule="evenodd" d="M3.71096 2.22482C3.71096 0.99631 4.70731 0 5.93587 0H7.41961C8.64817 0 9.64453 0.99631 9.64453 2.22482V3.70849C9.64453 4.118 9.31218 4.44964 8.90265 4.44964H4.45281C4.04329 4.44964 3.71094 4.118 3.71094 3.70849L3.71096 2.22482ZM5.93587 1.48367C5.52635 1.48367 5.19469 1.81531 5.19469 2.22482V2.96666H8.16077V2.22482C8.16077 1.81531 7.82912 1.48367 7.41959 1.48367H5.93587Z" fill="#A0A0A0"/>
</g>
</svg>
