<svg width="22" height="21" viewBox="0 0 22 21" fill="none" xmlns="http://www.w3.org/2000/svg">
<g id="chat-icon-03.svg">
<g id="Group">
<path id="Vector" d="M9.2644 2.8672C9.26432 3.11248 9.31255 3.35538 9.40635 3.58202C9.50014 3.80866 9.63766 4.01461 9.81104 4.18811C9.98443 4.36161 10.1903 4.49925 10.4169 4.59319C10.6435 4.68713 10.8863 4.73552 11.1316 4.7356C11.3769 4.73568 11.6198 4.68745 11.8464 4.59365C12.0731 4.49986 12.279 4.36234 12.4525 4.18896C12.626 4.01557 12.7637 3.80971 12.8576 3.58313C12.9515 3.35655 12.9999 3.11368 13 2.8684C13.0002 2.37303 12.8035 1.89788 12.4534 1.54749C12.1032 1.1971 11.6282 1.00016 11.1328 1C10.6374 0.999841 10.1623 1.19647 9.81189 1.54664C9.4615 1.89681 9.26456 2.37183 9.2644 2.8672Z" fill="#11161A"/>
<path id="Vector_2" d="M11.1328 11.1446C10.1016 11.1446 9.2656 10.3086 9.2656 9.27736C9.2656 8.24613 10.1016 7.41016 11.1328 7.41016C12.164 7.41016 13 8.24613 13 9.27736C13 10.3086 12.164 11.1446 11.1328 11.1446Z" fill="#11161A"/>
<path id="Vector_3" d="M11.1328 17.5567C10.1016 17.5567 9.2656 16.7207 9.2656 15.6895C9.2656 14.6582 10.1016 13.8223 11.1328 13.8223C12.164 13.8223 13 14.6582 13 15.6895C13 16.7207 12.164 17.5567 11.1328 17.5567Z" fill="#11161A"/>
</g>
</g>
</svg>
