<svg width="15" height="14" viewBox="0 0 15 14" fill="none" xmlns="http://www.w3.org/2000/svg">
<g id="fluent-mdl2:work-item-alert" clip-path="url(#clip0_1_15991)">
<path id="Vector" d="M3.125 2.625V13.125H9.25V14H2.25V1.75H5.75C5.75 1.50846 5.79557 1.28288 5.88672 1.07324C5.97786 0.863607 6.10319 0.676758 6.2627 0.512695C6.4222 0.348633 6.60677 0.223307 6.81641 0.136719C7.02604 0.0501302 7.25391 0.00455729 7.5 0C7.74154 0 7.96712 0.0455729 8.17676 0.136719C8.38639 0.227865 8.57324 0.35319 8.7373 0.512695C8.90137 0.672201 9.02669 0.856771 9.11328 1.06641C9.19987 1.27604 9.24544 1.50391 9.25 1.75H12.75V7H11.875V2.625H11V4.375H4V2.625H3.125ZM4.875 2.625V3.5H10.125V2.625H8.375V1.75C8.375 1.62695 8.35221 1.51302 8.30664 1.4082C8.26107 1.30339 8.19954 1.21224 8.12207 1.13477C8.0446 1.05729 7.95117 0.99349 7.8418 0.943359C7.73242 0.893229 7.61849 0.870443 7.5 0.875C7.37695 0.875 7.26302 0.897786 7.1582 0.943359C7.05339 0.988932 6.96224 1.05046 6.88477 1.12793C6.80729 1.2054 6.74349 1.29883 6.69336 1.4082C6.64323 1.51758 6.62044 1.63151 6.625 1.75V2.625H4.875ZM13.625 11.375H14.5V12.25H12.75V12.6875C12.75 12.8698 12.7158 13.0407 12.6475 13.2002C12.5791 13.3597 12.4857 13.4987 12.3672 13.6172C12.2487 13.7357 12.1097 13.8291 11.9502 13.8975C11.7907 13.9658 11.6198 14 11.4375 14C11.2552 14 11.0843 13.9658 10.9248 13.8975C10.7653 13.8291 10.6263 13.7357 10.5078 13.6172C10.3893 13.4987 10.2959 13.3597 10.2275 13.2002C10.1592 13.0407 10.125 12.8698 10.125 12.6875V12.25H8.375V11.375H9.25V10.0625C9.25 9.76172 9.30697 9.47917 9.4209 9.21484C9.53483 8.95052 9.68978 8.72038 9.88574 8.52441C10.0817 8.32845 10.3141 8.17122 10.583 8.05273C10.8519 7.93424 11.1367 7.875 11.4375 7.875C11.7383 7.875 12.0208 7.93197 12.2852 8.0459C12.5495 8.15983 12.7796 8.31706 12.9756 8.51758C13.1715 8.7181 13.3288 8.95052 13.4473 9.21484C13.5658 9.47917 13.625 9.76172 13.625 10.0625V11.375ZM11.875 12.6875V12.25H11V12.6875C11 12.806 11.0433 12.9085 11.1299 12.9951C11.2165 13.0817 11.319 13.125 11.4375 13.125C11.556 13.125 11.6585 13.0817 11.7451 12.9951C11.8317 12.9085 11.875 12.806 11.875 12.6875ZM10.125 11.375H12.75V10.0625C12.75 9.88021 12.7158 9.70931 12.6475 9.5498C12.5791 9.3903 12.4857 9.2513 12.3672 9.13281C12.2487 9.01432 12.1097 8.9209 11.9502 8.85254C11.7907 8.78418 11.6198 8.75 11.4375 8.75C11.2552 8.75 11.0843 8.78418 10.9248 8.85254C10.7653 8.9209 10.6263 9.01432 10.5078 9.13281C10.3893 9.2513 10.2959 9.3903 10.2275 9.5498C10.1592 9.70931 10.125 9.88021 10.125 10.0625V11.375Z" fill="#3A643B"/>
</g>
<defs>
<clipPath id="clip0_1_15991">
<rect width="14" height="14" fill="white" transform="translate(0.5)"/>
</clipPath>
</defs>
</svg>
